<?xml version="1.0" encoding="UTF-8"?>
<svg width="512px" height="512px" viewBox="0 0 512 512" version="1.1" xmlns="http://www.w3.org/2000/svg" xmlns:xlink="http://www.w3.org/1999/xlink">
    <title>Compass</title>
    <g id="Page-1" stroke="none" stroke-width="1" fill="none" fill-rule="evenodd">
        <g id="Compass">
            <rect id="bg" stroke="#979797" fill="#D8D8D8" opacity="0.01" x="0.5" y="0.5" width="511" height="511"></rect>
            <g>
                <path d="M256,47 C141.124883,47 48,140.124883 48,255 C48,369.875116 141.124883,463 256,463 C370.875117,463 464,369.875117 464,255 C464,140.124883 370.875116,47 256,47 L256,47 Z M255.999999,83.2095966 C350.877219,83.2095966 427.790402,160.12278 427.790402,254.999999 C427.790402,349.877219 350.877219,426.790402 255.999999,426.790402 C161.12278,426.790402 84.2095966,349.877219 84.2095966,254.999999 C84.2095966,160.12278 161.12278,83.2095966 255.999999,83.2095966 L255.999999,83.2095966 Z" id="path4688-3" fill="#0CF3DA" fill-rule="nonzero"></path>
                <g id="g4615">
                    <polygon id="path4489" fill="#057A6E" points="256.023997 0 217.731243 216.992342 256.023997 255.2851"></polygon>
                    <polygon id="path4489-4" fill="#0CF3DA" points="255.975961 0 294.268718 216.992342 255.975961 255.2851"></polygon>
                    <polygon id="path4489-9" fill="#057A6E" points="255.975965 512 294.268718 295.007709 255.975965 256.714951 255.975965 512"></polygon>
                    <polygon id="path4489-4-0" fill="#0CF3DA" points="256.023997 512 217.731243 295.007709 256.023997 256.714951"></polygon>
                    <polygon id="path4489-8" fill="#057A6E" points="512 256.024022 295.007679 217.731265 256.714926 256.024022"></polygon>
                    <polygon id="path4489-4-00" fill="#0CF3DA" points="512 255.976029 295.007679 294.268786 256.714926 255.976029"></polygon>
                    <polygon id="path4489-9-3" fill="#057A6E" points="0 255.976029 216.992321 294.268786 255.285074 255.976029"></polygon>
                    <polygon id="path4489-4-0-2" fill="#0CF3DA" points="0 256.024022 216.992321 217.731265 255.285074 256.024022"></polygon>
                </g>
            </g>
        </g>
    </g>
</svg>