<?xml version="1.0" encoding="UTF-8"?>
<svg width="512px" height="512px" viewBox="0 0 512 512" version="1.1" xmlns="http://www.w3.org/2000/svg" xmlns:xlink="http://www.w3.org/1999/xlink">
    <title>iOS</title>
    <g id="Page-1" stroke="none" stroke-width="1" fill="none" fill-rule="evenodd">
        <g id="iOS" fill-rule="nonzero">
            <path d="M146.141456,0 L365.858544,0 C416.675112,0 435.102427,5.29105984 453.680205,15.2265641 C472.257983,25.1620684 486.837932,39.7420171 496.773436,58.3197949 C506.70894,76.8975727 512,95.3248882 512,146.141456 L512,365.858544 C512,416.675112 506.70894,435.102427 496.773436,453.680205 C486.837932,472.257983 472.257983,486.837932 453.680205,496.773436 C435.102427,506.70894 416.675112,512 365.858544,512 L146.141456,512 C95.3248882,512 76.8975727,506.70894 58.3197949,496.773436 C39.7420171,486.837932 25.1620684,472.257983 15.2265641,453.680205 C5.29105984,435.102427 0,416.675112 0,365.858544 L0,146.141456 C0,95.3248882 5.29105984,76.8975727 15.2265641,58.3197949 C25.1620684,39.7420171 39.7420171,25.1620684 58.3197949,15.2265641 C76.8975727,5.29105984 95.3248882,0 146.141456,0 Z" id="path-2" fill-opacity="0.01" fill="#FFFFFF"></path>
            <g id="github-mark-white" transform="translate(43.000000, 40.000000)" fill="#22939C">
                <path d="M213.176247,0 C95.2952892,0 0,96.0204318 0,214.8108 C0,309.766278 61.0589762,390.144108 145.763961,418.592343 C156.354265,420.73098 160.23345,413.970269 160.23345,408.283241 C160.23345,403.303272 159.884367,386.233458 159.884367,368.447855 C100.583896,381.253489 88.235086,342.840952 88.235086,342.840952 C78.7051207,317.945473 64.5847143,311.54702 64.5847143,311.54702 C45.1757008,298.387856 65.9985003,298.387856 65.9985003,298.387856 C87.5281929,299.810705 98.8253908,320.437639 98.8253908,320.437639 C117.880958,353.154419 148.587169,343.91027 160.940343,338.218877 C162.703212,324.34829 168.353993,314.746246 174.353856,309.412748 C127.057477,304.432779 77.2956982,285.940117 77.2956982,203.428014 C77.2956982,179.955383 85.7609604,160.751297 99.1744738,145.815755 C97.0581582,140.482256 89.6445085,118.428109 101.295153,88.9105553 C101.295153,88.9105553 119.294744,83.2191624 159.880003,110.960338 C177.255996,106.258229 195.175576,103.866236 213.176247,103.846097 C231.175838,103.846097 249.524512,106.338264 266.468127,110.960338 C307.05775,83.2191624 325.057341,88.9105553 325.057341,88.9105553 C336.707985,118.428109 329.289972,140.482256 327.173657,145.815755 C340.940617,160.751297 349.056796,179.955383 349.056796,203.428014 C349.056796,285.940117 299.295017,304.074885 251.645191,309.412748 C259.412287,316.169095 266.11468,328.970364 266.11468,349.243769 C266.11468,378.049898 265.765597,401.169 265.765597,408.278876 C265.765597,413.970269 269.649146,420.73098 280.235087,418.596708 C364.940071,390.139744 426.002826,309.766278 426.002826,214.8108 C426.34813,96.0204318 330.703758,0 213.176247,0 Z" id="Path"></path>
            </g>
        </g>
    </g>
</svg>