<?xml version="1.0" encoding="UTF-8"?>
<svg width="512px" height="512px" viewBox="0 0 512 512" version="1.1" xmlns="http://www.w3.org/2000/svg" xmlns:xlink="http://www.w3.org/1999/xlink">
    <title>iOS</title>
    <g id="Page-1" stroke="none" stroke-width="1" fill="none" fill-rule="evenodd">
        <g id="iOS" fill-rule="nonzero">
            <path d="M146.141456,0 L365.858544,0 C416.675112,0 435.102427,5.29105984 453.680205,15.2265641 C472.257983,25.1620684 486.837932,39.7420171 496.773436,58.3197949 C506.70894,76.8975727 512,95.3248882 512,146.141456 L512,365.858544 C512,416.675112 506.70894,435.102427 496.773436,453.680205 C486.837932,472.257983 472.257983,486.837932 453.680205,496.773436 C435.102427,506.70894 416.675112,512 365.858544,512 L146.141456,512 C95.3248882,512 76.8975727,506.70894 58.3197949,496.773436 C39.7420171,486.837932 25.1620684,472.257983 15.2265641,453.680205 C5.29105984,435.102427 0,416.675112 0,365.858544 L0,146.141456 C0,95.3248882 5.29105984,76.8975727 15.2265641,58.3197949 C25.1620684,39.7420171 39.7420171,25.1620684 58.3197949,15.2265641 C76.8975727,5.29105984 95.3248882,0 146.141456,0 Z" id="background" fill-opacity="0.01" fill="#FFFFFF"></path>
            <g id="guy" transform="translate(122, 88)" fill="#11848E">
                <circle id="Oval" cx="147" cy="37" r="37"></circle>
                <path d="M218.758557,112.424 C211.58313,105.248 199.256112,92 175.33802,92 C171.474328,92 149.212103,92 128.605746,92 C78.00978,91.816 36.797066,50.6 36.797066,0 L0,0 C0,58.144 38.8209046,107.456 91.992665,123.464 L91.992665,368 L128.789731,368 L128.789731,257.6 L165.586797,257.6 L165.586797,368 L202.383863,368 L202.383863,148.12 L275.058068,220.8 L301,194.856 L218.758557,112.424 Z" id="Path"></path>
            </g>
        </g>
    </g>
</svg>