<?xml version="1.0" encoding="UTF-8"?>
<svg width="512px" height="512px" viewBox="0 0 512 512" version="1.1" xmlns="http://www.w3.org/2000/svg" xmlns:xlink="http://www.w3.org/1999/xlink">
    <title>iOS</title>
    <g stroke="none" stroke-width="1" fill="none" fill-rule="evenodd">
        <g fill-rule="nonzero">
            <path d="M146.141456,0 L365.858544,0 C416.675112,0 435.102427,5.29105984 453.680205,15.2265641 C472.257983,25.1620684 486.837932,39.7420171 496.773436,58.3197949 C506.70894,76.8975727 512,95.3248882 512,146.141456 L512,365.858544 C512,416.675112 506.70894,435.102427 496.773436,453.680205 C486.837932,472.257983 472.257983,486.837932 453.680205,496.773436 C435.102427,506.70894 416.675112,512 365.858544,512 L146.141456,512 C95.3248882,512 76.8975727,506.70894 58.3197949,496.773436 C39.7420171,486.837932 25.1620684,472.257983 15.2265641,453.680205 C5.29105984,435.102427 0,416.675112 0,365.858544 L0,146.141456 C0,95.3248882 5.29105984,76.8975727 15.2265641,58.3197949 C25.1620684,39.7420171 39.7420171,25.1620684 58.3197949,15.2265641 C76.8975727,5.29105984 95.3248882,0 146.141456,0 Z" fill="none"></path>
            <path d="M454,256 L361.05,386.596428 C356.283333,393.153572 350.6,398.526786 344,402.716072 C337.4,406.905357 330.066667,409 322,409 L91,409 C81.9250003,409 74.15625,405.789732 67.69375,399.369196 C61.23125,392.94866 58,385.230358 58,376.214286 L58,135.785714 C58,126.769642 61.23125,119.05134 67.69375,112.630804 C74.15625,106.210268 81.9250003,103 91,103 L322,103 C330.066667,103 337.4,105.094643 344,109.283928 C350.6,113.473214 356.283333,118.846428 361.05,125.403572 L454,256 Z" stroke="#C09F52" stroke-width="20"></path>
        </g>
    </g>
</svg>