<?xml version="1.0" encoding="UTF-8"?>
<svg width="512px" height="512px" viewBox="0 0 512 512" version="1.1" xmlns="http://www.w3.org/2000/svg" xmlns:xlink="http://www.w3.org/1999/xlink">
    <title>pingpong</title>
    <g id="Page-1" stroke="none" stroke-width="1" fill="none" fill-rule="evenodd">
        <g id="pingpong" fill-rule="nonzero">
            <path d="M146.141456,0 L365.858544,0 C416.675112,0 435.102427,5.29105984 453.680205,15.2265641 C472.257983,25.1620684 486.837932,39.7420171 496.773436,58.3197949 C506.70894,76.8975727 512,95.3248882 512,146.141456 L512,365.858544 C512,416.675112 506.70894,435.102427 496.773436,453.680205 C486.837932,472.257983 472.257983,486.837932 453.680205,496.773436 C435.102427,506.70894 416.675112,512 365.858544,512 L146.141456,512 C95.3248882,512 76.8975727,506.70894 58.3197949,496.773436 C39.7420171,486.837932 25.1620684,472.257983 15.2265641,453.680205 C5.29105984,435.102427 0,416.675112 0,365.858544 L0,146.141456 C0,95.3248882 5.29105984,76.8975727 15.2265641,58.3197949 C25.1620684,39.7420171 39.7420171,25.1620684 58.3197949,15.2265641 C76.8975727,5.29105984 95.3248882,0 146.141456,0 Z" id="background" fill-opacity="0.01" fill="#FFFFFF"></path>
            <g id="SmileyDark" transform="translate(36, 40)">
                <path d="M228.777293,0.152872379 C350.487552,4.60718181 445.445073,104.848344 440.83929,224.05872 C436.331503,343.269096 334.024328,436.300804 212.314069,431.846495 C90.6038107,427.392185 -4.35371027,327.151024 0.154077095,207.940648 C4.75985984,88.7302714 107.067034,-4.29183725 228.777293,0.152872379 Z" id="head" fill="#C09F52"></path>
                <path d="M149,249 C239.86736,440.950001 385,285.735798 385,285.735798 C281.179626,314.523082 149,249 149,249 Z" id="smile" fill="#FFFFFF"></path>
            </g>
        </g>
    </g>
</svg>