<?xml version="1.0" encoding="UTF-8"?>
<svg width="497px" height="497px" viewBox="0 0 497 497" version="1.1" xmlns="http://www.w3.org/2000/svg" xmlns:xlink="http://www.w3.org/1999/xlink">
    <title>pi</title>
    <defs>
        <polygon id="path-1" points="0 0 496.06 0 496.06 496.06 0 496.06"></polygon>
    </defs>
    <g id="Page-1" stroke="none" stroke-width="1" fill="none" fill-rule="evenodd">
        <g id="pi" transform="translate(0.385, 0)">
            <mask id="mask-2" fill="white">
                <use xlink:href="#path-1"></use>
            </mask>
            <use id="Path" fill="#000000" xlink:href="#path-1"></use>
            <g id="Skull_&amp;_crossbones" mask="url(#mask-2)">
                <g transform="translate(53.615, 61)">
                    <path d="M257.533881,318.084145 L257.533881,318.084145 L307.434098,344.043813 C319.252239,354.340532 316.298098,361.350258 324.505184,367.704007 C332.602653,375.15263 337.745981,376.357229 342.560457,369.347503 C346.390746,361.351048 345.625004,353.354592 346.829214,344.70137 C352.409433,339.334351 357.006253,336.595979 361.602284,331.22896 C366.635995,325.642493 366.415972,320.056026 358.646566,316.113055 C352.190199,313.484407 346.062683,312.169294 338.293277,314.469558 C333.368395,316.00333 328.116239,316.879546 321.551043,314.141175 L267.71092,289.166657 L114.650781,236.054563 C94.0680056,225.985187 76.9677415,218.471834 56.6168184,207.241274 C45.5518025,198.41123 49.1115974,188.419212 35.7251441,180.286983 C29.844385,177.344161 25.58864,176.027469 20.8685602,184.00498 C17.8507784,191.131534 18.0829458,198.721457 17.6186898,206.080091 C12.3569912,211.733656 6.39886934,215.064855 2.0656826,222.11326 C-4.20196923,232.182637 5.31547408,235.513046 10.422447,236.752378 C24.9694218,240.392226 30.2310415,233.808767 43.6173371,236.51951 C69.6943724,248.679964 96.002471,261.304575 121.150521,273.697108 L257.533881,318.084145 Z" id="path4" stroke="#000000" stroke-width="20" fill="#FFFFFF" fill-rule="nonzero" stroke-linejoin="round"></path>
                    <path d="M268.341877,272.757732 L268.341877,272.757732 L342.735422,237.609109 C356.827345,232.024564 358.793917,239.908581 371.247555,237.609109 C380.751337,237.499423 388.616835,233.777182 387.961836,224.798666 C383.154837,217.680088 378.675337,213.19083 370.26427,205.4165 C370.701198,197.094525 369.171555,189.100822 366.003628,181.107907 C362.726272,176.399276 356.827345,174.318388 347.97935,182.750049 C339.021138,189.538779 341.860778,198.62777 330.609283,208.044242 C312.256718,217.132444 295.543225,225.235834 275.224089,235.309637 L120.538072,288.854826 C102.622435,298.380985 86.3458701,307.249813 65.8086635,315.13383 C49.094383,319.294818 49.7501691,309.002431 29.4311117,315.791161 C23.6412994,320.390105 23.7505709,326.959462 28.4479836,331.886676 C33.910139,337.252637 37.733695,340.647397 42.5404578,345.356027 C44.0701007,352.144757 44.2881712,357.947886 45.1620279,366.050487 C48.4393841,376.015393 55.6490954,375.467749 61.8755211,370.650221 C64.6065201,367.255461 67.9933052,364.189761 70.068518,360.466731 C72.9089459,355.539517 76.0768732,349.954972 79.9005866,345.356027 L129.386855,319.076234 L268.341877,272.757732 Z" id="path6" stroke="#000000" stroke-width="20" fill="#FFFFFF" fill-rule="nonzero" stroke-linejoin="round"></path>
                    <path d="M94.1480658,168 C79.0916951,153.332945 68.568916,127.878669 67.1085991,100.391048 C65.5231796,70.0997872 81.4426794,40.0213258 105.297931,22.8738089 C132.025035,4.02305918 176.713407,-1.19047456 204.500342,0.216468279 C223.321592,0.229556121 265.246692,10.0088546 280.045777,21.0527066 C306.005742,39.9670822 319.927534,66.8128475 320.892162,97.4115925 C322.318646,128.146733 309.400034,151.556625 293.581246,166.166914" id="path8" stroke="#000000" stroke-width="20" fill="#FFFFFF" fill-rule="nonzero"></path>
                    <path d="M95.7234733,163.02364 C95.7234733,163.02364 77.5135197,218.206256 112.602912,227.614801 L125.396329,301.417512 C138.898305,359.507795 246.953477,359.547194 262.856679,301.417512 L275.650096,227.614801 C311.629123,218.00138 293.364059,163 293.364059,163 L95.7234733,163.02364 Z" id="path10" stroke="none" fill="#FFFFFF" fill-rule="nonzero"></path>
                    <path d="M94.9873492,82 C88.8848507,87.3519001 89.6547479,95.3971112 90.7537015,107.40377 C91.6212135,116.526148 97.4277189,125.505692 97.7331587,133.839726 C99.8680885,151.425555 94.6819094,169.011385 92.2407525,183.386232 C90.562408,199.901208 95.292789,214.122963 101.3945,219.627955 C107.496212,225.05719 115.372308,227.30543 123.647523,229.83618 C131.166223,231.807434 135.065304,235.235428 140.752152,239.485698 C147.526933,246.696006 149.143088,252.659485 148.990368,260" id="path12" stroke="#000000" stroke-width="12.5" fill="none"></path>
                    <path d="M294.012532,81 C300.115176,86.3519001 299.34526,94.3971112 298.246281,106.40377 C297.378748,115.526148 291.572105,124.505692 291.266658,132.839726 C289.131677,150.425555 294.317979,168.011385 296.759194,182.386232 C298.437579,198.901208 293.707085,213.122963 287.605229,218.627955 C281.503373,224.05719 270.335661,226.973036 265.351678,228.83618 C259.544248,230.872932 253.606137,234.563707 248.246643,238.813977 C241.799191,245.038659 239.855508,251.659485 240.008232,259" id="path14" stroke="#000000" stroke-width="12.5" fill="none"></path>
                    <path d="M113,227 C118.466614,240.274162 124.261005,253.219435 124.807824,266.822487 C122.293559,277.792843 123.058633,290.738116 125.79194,301.050693 C129.291109,315.20242 142.957644,331.986844 156.624968,337.581915 C170.619279,342.682862 179.366019,344 195,344" id="path16" stroke="#000000" stroke-width="12.5" fill="none"></path>
                    <path d="M276,227 C270.522438,240.274162 264.716444,253.219435 264.16853,266.822487 C266.687829,277.792843 265.921223,290.738116 263.182442,301.050693 C259.676266,315.20242 245.818145,331.49351 232.123451,337.088581 C218.429547,342.683652 209.666079,344 194,344" id="path18" stroke="#000000" stroke-width="12.5" fill="none"></path>
                    <path d="M191,187 C183.391716,192.794221 181.699156,194.740035 177.494826,201.15195 C175.973326,203.626655 173.13199,209.409874 172.355154,213.289715 C171.579103,217.16877 170.997653,222.797172 171,225.777978 C171.009423,235.878767 174.21956,242.215238 177.725523,241.994409 C180.857976,241.63448 184.844164,238.362903 190.884652,230.9325" id="path20" stroke="#000000" stroke-width="1" fill="#000000" fill-rule="nonzero"></path>
                    <path d="M197,187 C204.608284,192.794221 206.300844,194.740035 210.505174,201.15195 C212.026674,203.626655 214.86801,209.409874 215.644846,213.289715 C216.420897,217.16877 217.002347,222.797172 217,225.777978 C216.990577,235.878767 213.78044,242.215238 210.274477,241.994409 C207.142024,241.63448 203.155836,238.362903 197.115348,230.9325" id="path22" stroke="#000000" stroke-width="1" fill="#000000" fill-rule="nonzero"></path>
                    <path d="M126.186506,142.73337 C136.841562,140.883794 147.166518,139.687332 157.821574,138.49087 C171.772099,135.0089 178.802378,150.784789 174.957533,162.643561 C170.124761,173.196887 163.314549,182.444768 155.515617,191.3657 C149.474058,198.110891 142.276749,199.20229 135.4135,196.913645 C129.87382,195.392586 124.757652,192.018815 119.265469,184.185361 C116.849478,177.439387 114.762797,173.957416 111.686605,165.580615 C109.270614,157.856145 113.028382,146.292961 126.186506,142.73337 L126.186506,142.73337 Z" id="path24" stroke="#000000" stroke-width="1" fill="#000000" fill-rule="nonzero"></path>
                    <path d="M261.813494,142.73337 C251.158438,140.883794 240.833482,139.687332 230.178426,138.49087 C216.227901,135.0089 209.197622,150.784789 213.042467,162.643561 C217.875239,173.196887 224.685451,182.444768 232.484383,191.3657 C238.525942,198.110891 245.723251,199.20229 252.5865,196.913645 C258.12618,195.392586 263.242348,192.018815 268.734531,184.185361 C271.150522,177.439387 273.237203,173.957416 276.313395,165.580615 C278.729386,157.856145 274.971618,146.292961 261.813494,142.73337 L261.813494,142.73337 Z" id="path26" stroke="#000000" stroke-width="1" fill="#000000" fill-rule="nonzero"></path>
                    <path d="M126,233 C130.61501,243.446764 132.0425,247.416754 135.370336,257.83142 C138.205851,267.452244 139.24808,273.327766 141,287" id="path28" stroke="#000000" stroke-width="7.05000019" fill="none"></path>
                    <path d="M262,233 C257.38499,243.446764 255.9575,247.416754 252.629664,257.83142 C249.794149,267.452244 248.75192,273.327766 247,287" id="path30" stroke="#000000" stroke-width="7.05000019" fill="none"></path>
                    <path d="M146,258.44127 C157.597829,265.215671 177.646991,266.260311 195.60952,265.952623 C215.62007,265.855813 232.750468,264.47947 244,258" id="path32" stroke="#000000" stroke-width="5" fill="none"></path>
                    <path d="M150,276.221232 C162.752319,283.899639 177.749133,286.536364 195.020286,285.911797 C212.958977,285.493413 226.70946,284.047127 239,276" id="path34" stroke="#000000" stroke-width="5" fill="none"></path>
                    <path d="M140,286 C153.664546,302.505066 172.737632,305.370682 194.426077,305.945853 C217.65195,306.794429 240.978536,297.558589 247,286.000788" id="path36" stroke="#000000" stroke-width="6.25" fill="none"></path>
                    <line x1="149.708" y1="262" x2="149.292" y2="294" id="path38" stroke="#000000" stroke-width="7" fill="#000000" fill-rule="nonzero"></line>
                    <line x1="159.604" y1="265" x2="159.396" y2="300" id="path40" stroke="#000000" stroke-width="7" fill="#000000" fill-rule="nonzero"></line>
                    <line x1="171.708" y1="267" x2="171.292" y2="303" id="path42" stroke="#000000" stroke-width="7" fill="#000000" fill-rule="nonzero"></line>
                    <line x1="182.6045" y1="267" x2="182.3955" y2="304" id="path44" stroke="#000000" stroke-width="7" fill="#000000" fill-rule="nonzero"></line>
                    <line x1="194.5" y1="267" x2="194.5" y2="304" id="path46" stroke="#000000" stroke-width="7" fill="#000000" fill-rule="nonzero"></line>
                    <line x1="206.396" y1="267" x2="206.604" y2="304" id="path48" stroke="#000000" stroke-width="7" fill="#000000" fill-rule="nonzero"></line>
                    <line x1="216.292" y1="266" x2="216.708" y2="302" id="path50" stroke="#000000" stroke-width="7" fill="#000000" fill-rule="nonzero"></line>
                    <line x1="228.396" y1="264" x2="228.604" y2="299" id="path52" stroke="#000000" stroke-width="7" fill="#000000" fill-rule="nonzero"></line>
                    <line x1="239.2915" y1="260" x2="239.7085" y2="293" id="path54" stroke="#000000" stroke-width="7" fill="#000000" fill-rule="nonzero"></line>
                    <path d="M149,276 C177.481124,288.401759 207.256788,290.233489 239,276" id="path3826" stroke="#000000" stroke-width="13" fill="none"></path>
                    <path d="M243,274.867556 L243,261.008996 L244.387946,260.350688 C245.5506,259.799245 245.82556,259.122268 246.081836,256.180166 C246.503296,251.341817 248.244729,247.593299 251.781278,243.911832 C253.431037,242.194474 254.875209,240.887593 254.990545,241.007654 C255.10588,241.127715 254.152548,244.380098 252.87204,248.235172 C249.45339,258.527294 247.793865,265.614208 246.163547,276.883431 C245.263545,283.104508 244.382659,287.28148 243.85426,287.833569 C243.105524,288.615866 243,287.014223 243,274.867556 Z" id="path3832" stroke="none" fill="#000000" fill-rule="nonzero"></path>
                    <path d="M146.040411,294.560445 C144.932152,293.579811 143.505655,288.789166 142.032388,281.100196 C139.117736,265.888548 132.374116,246.609878 125.369116,233.463239 C122.448638,227.982218 137.706652,239.234305 141.323229,245.228666 C142.755218,247.602137 144.2418,251.591604 144.626743,254.094183 C145.087972,257.092558 146.012089,259.063197 147.336523,259.872636 C149.239057,261.035368 149.304078,262.035236 148.553728,278.591967 C147.819062,294.803277 147.635183,295.971563 146.040411,294.560445 L146.040411,294.560445 L146.040411,294.560445 Z" id="path4194" stroke="none" fill="#000000" fill-rule="nonzero"></path>
                    <path d="M239.698064,277.761047 C237.319571,261.016984 237.365024,259.529435 240.30897,257.775239 C242.257601,256.614104 244.279934,253.112256 245.52997,248.734663 C247.04649,243.423707 249.065535,240.314156 253.394542,236.622275 C258.78615,232.024223 263.906805,228.66741 264.981988,229.026281 C265.229784,229.108979 262.891325,234.664563 259.785438,241.37201 C252.763935,256.535348 251.218504,261.219937 247.6084,278.283426 C246.024547,285.769548 244.175,292.784903 243.498277,293.873097 C242.78373,295.022072 241.190405,288.266685 239.698064,277.761047 L239.698064,277.761047 L239.698064,277.761047 Z" id="path4196" stroke="none" fill="#000000" fill-rule="nonzero"></path>
                    <polygon id="path4202" stroke="#000000" stroke-width="1" fill="none" points="191.346506 186.913438 194.188105 185 198 187.323466 197.930713 215 191 214.931683"></polygon>
                    <path d="M193.160512,214.948854 L191,214.929679 L191.032353,201.367929 L191.064706,187.806188 L191.354486,187.533178 C191.598793,187.303022 193.585615,186 193.692253,186 C193.785382,186 196.523708,187.613347 196.700794,187.772552 L196.903957,187.955201 L196.951979,201.4776 L197,215 L196.160541,214.984046 C195.698842,214.975244 194.348858,214.959448 193.160571,214.948917 L193.160571,214.948917 L193.160512,214.948854 Z" id="path4204" stroke="none" fill="#000000" fill-rule="nonzero"></path>
                    <path d="M191.064112,231.911425 C190.994258,231.845211 190.984468,226.91459 191.02032,209.775635 L191.066405,187.724987 L191.404406,187.30934 C191.853845,186.756603 193.18495,185.33611 193.469278,185.105777 C193.694956,184.922959 193.69734,184.924101 194.381392,185.542525 C195.4375,186.497296 196.866232,187.947439 196.896748,188.095567 C196.911804,188.168631 196.941228,198.077097 196.962093,210.114266 L197,232 L194.567619,230.364889 C192.959997,230.364102 191.113651,231.958374 191.064219,231.911575 L191.064219,231.911575 L191.064112,231.911425 Z" id="path4206" stroke="none" fill="#000000" fill-rule="nonzero"></path>
                </g>
            </g>
        </g>
    </g>
</svg>