<?xml version="1.0" encoding="UTF-8"?>
<svg width="512px" height="512px" viewBox="0 0 512 512" version="1.1" xmlns="http://www.w3.org/2000/svg" xmlns:xlink="http://www.w3.org/1999/xlink">
    <title>iOS</title>
    <g id="Page-1" stroke="none" stroke-width="1" fill="none" fill-rule="evenodd">
        <g id="iOS">
            <rect id="bg" x="0" y="0" width="512" height="512"></rect>
            <path d="M457,256 L364.05,386.596428 C359.283333,393.153572 353.6,398.526786 347,402.716072 C340.4,406.905357 333.066667,409 325,409 L94,409 C84.9250003,409 77.15625,405.789732 70.69375,399.369196 C64.23125,392.94866 61,385.230358 61,376.214286 L61,135.785714 C61,126.769642 64.23125,119.05134 70.69375,112.630804 C77.15625,106.210268 84.9250003,103 94,103 L325,103 C333.066667,103 340.4,105.094643 347,109.283928 C353.6,113.473214 359.283333,118.846428 364.05,125.403572 L457,256 Z" id="ticket" stroke="#980A78" stroke-width="20"></path>
        </g>
    </g>
</svg>