<?xml version="1.0" encoding="UTF-8"?>
<svg width="512px" height="512px" viewBox="0 0 512 512" version="1.1" xmlns="http://www.w3.org/2000/svg" xmlns:xlink="http://www.w3.org/1999/xlink">
    <title>localhost</title>
    <g id="Page-1" stroke="none" stroke-width="1" fill="none" fill-rule="evenodd">
        <g id="localhost" fill-rule="nonzero">
            <path d="M146.141456,0 L365.858544,0 C416.675112,0 435.102427,5.29105984 453.680205,15.2265641 C472.257983,25.1620684 486.837932,39.7420171 496.773436,58.3197949 C506.70894,76.8975727 512,95.3248882 512,146.141456 L512,365.858544 C512,416.675112 506.70894,435.102427 496.773436,453.680205 C486.837932,472.257983 472.257983,486.837932 453.680205,496.773436 C435.102427,506.70894 416.675112,512 365.858544,512 L146.141456,512 C95.3248882,512 76.8975727,506.70894 58.3197949,496.773436 C39.7420171,486.837932 25.1620684,472.257983 15.2265641,453.680205 C5.29105984,435.102427 0,416.675112 0,365.858544 L0,146.141456 C0,95.3248882 5.29105984,76.8975727 15.2265641,58.3197949 C25.1620684,39.7420171 39.7420171,25.1620684 58.3197949,15.2265641 C76.8975727,5.29105984 95.3248882,0 146.141456,0 Z" id="colorBg" fill-opacity="0.01" fill="#000000"></path>
            <g id="public_off_FILL0_wght400_GRAD0_opsz24" transform="translate(69, 69)" fill="#ACACAC">
                <path d="M348.182884,375 L296.307151,323.06338 C282.239156,332.453052 267.072098,339.642019 250.805979,344.630282 C234.539859,349.618545 217.321219,352.112676 199.150059,352.112676 C174.82415,352.112676 151.963658,347.491197 130.568581,338.248239 C109.173505,329.005282 90.5627198,316.461268 74.7362251,300.616197 C58.9097304,284.771127 46.380422,266.138498 37.1483001,244.71831 C27.9161782,223.298122 23.3001172,200.410798 23.3001172,176.056338 C23.3001172,157.86385 25.7913247,140.625 30.7737397,124.339789 C35.7561547,108.054577 42.936694,92.8697183 52.3153576,78.7852113 L0,26.4084507 L25.0586166,1.32042254 L373.241501,349.911972 L348.182884,375 Z M181.565064,316.021127 L181.565064,281.690141 C171.893318,281.690141 163.613716,278.242371 156.72626,271.346831 C149.838804,264.451291 146.395076,256.161972 146.395076,246.478873 L146.395076,228.873239 L61.9871043,144.366197 C61.1078546,149.647887 60.3018757,154.929577 59.5691676,160.211268 C58.8364596,165.492958 58.4701055,170.774648 58.4701055,176.056338 C58.4701055,211.561033 70.1201641,242.664319 93.4202814,269.366197 C116.720399,296.068075 146.101993,311.619718 181.565064,316.021127 Z M345.98476,272.447183 L320.486518,246.919014 C326.641266,236.062207 331.403869,224.691901 334.774326,212.808099 C338.144783,200.924296 339.830012,188.673709 339.830012,176.056338 C339.830012,147.300469 331.843494,121.038732 315.870457,97.2711268 C299.897421,73.5035211 278.575615,56.3380282 251.905041,45.7746479 L251.905041,52.8169014 C251.905041,62.5 248.461313,70.7893192 241.573857,77.6848592 C234.686401,84.5803991 226.4068,88.028169 216.735053,88.028169 L181.565064,88.028169 L181.565064,107.834507 L102.872216,29.0492958 C116.940211,19.9530516 132.033998,12.8374413 148.153576,7.70246479 C164.273154,2.56748826 181.271981,0 199.150059,0 C223.475967,0 246.33646,4.62147887 267.731536,13.8644366 C289.126612,23.1073944 307.737397,35.6514085 323.563892,51.4964789 C339.390387,67.3415493 351.919695,85.9741784 361.151817,107.394366 C370.383939,128.814554 375,151.701878 375,176.056338 C375,193.955399 372.435522,210.974178 367.306565,227.112676 C362.177608,243.251174 355.07034,258.362676 345.98476,272.447183 Z" id="Shape"></path>
            </g>
        </g>
    </g>
</svg>