<?xml version="1.0" encoding="UTF-8"?>
<svg width="512px" height="512px" viewBox="0 0 512 512" version="1.1" xmlns="http://www.w3.org/2000/svg" xmlns:xlink="http://www.w3.org/1999/xlink">
    <!-- Generator: Sketch 60.1 (88133) - https://sketch.com -->
    <title>512Grid</title>
    <desc>Created with Sketch.</desc>
    <g id="Page-1" stroke="none" stroke-width="1" fill="none" fill-rule="evenodd">
        <g id="512Grid">
            <rect id="whitetrans" fill-opacity="0.01" fill="#FFFFFF" x="0" y="0" width="512" height="512"></rect>
            <g id="Android" transform="translate(81.000000, 51.000000)" fill="#000000" fill-rule="nonzero">
                <g id="Android_robot">
                    <g id="Group">
                        <g id="b-link" transform="translate(63.818182, 31.916503)">
                            <g id="b">
                                <ellipse id="Oval" cx="111.681818" cy="103.114855" rx="111.681818" ry="103.114855"></ellipse>
                                <rect id="Rectangle" x="0" y="77.336141" width="223.363637" height="223.415518" rx="22"></rect>
                            </g>
                        </g>
                        <g id="a-link" transform="translate(223.000000, 209.500000) scale(-1, 1) translate(-223.000000, -209.500000) translate(95.000000, 0.000000)">
                            <g id="a">
                                <path d="M223.084165,-2.04720168 C227.491866,-2.04720168 231.062224,1.52103209 231.062658,5.92557295 L231.071483,95.5458032 C231.071916,99.9426947 227.505322,103.511521 223.105273,103.517006 C223.101702,103.517006 223.098131,103.517006 223.09456,103.517006 C218.68686,103.517006 215.116501,99.9487727 215.116067,95.5442318 L215.107242,5.92400158 C215.106809,1.52711003 218.673403,-2.04171647 223.073453,-2.04720168 C223.077023,-2.04720168 223.080594,-2.04720168 223.084165,-2.04720168 Z" id="Rectangle" transform="translate(223.089363, 50.734902) rotate(29.000000) translate(-223.089363, -50.734902) "></path>
                                <rect id="c" x="0" y="135.031357" width="58.9090909" height="163.265186" rx="18.041958"></rect>
                                <g id="c-link" transform="translate(104.318181, 254.104464)">
                                    <rect id="c" x="0" y="0" width="58.9090909" height="163.265186" rx="18.041958"></rect>
                                </g>
                            </g>
                        </g>
                        <g id="a">
                            <path d="M223.084165,-2.04720168 C227.491866,-2.04720168 231.062224,1.52103209 231.062658,5.92557295 L231.071483,95.5458032 C231.071916,99.9426947 227.505322,103.511521 223.105273,103.517006 C223.101702,103.517006 223.098131,103.517006 223.09456,103.517006 C218.68686,103.517006 215.116501,99.9487727 215.116067,95.5442318 L215.107242,5.92400158 C215.106809,1.52711003 218.673403,-2.04171647 223.073453,-2.04720168 C223.077023,-2.04720168 223.080594,-2.04720168 223.084165,-2.04720168 Z" id="Rectangle" transform="translate(223.089363, 50.734902) rotate(29.000000) translate(-223.089363, -50.734902) "></path>
                            <rect id="c" x="0" y="135.031357" width="58.9090909" height="163.265186" rx="18.041958"></rect>
                            <g id="c-link" transform="translate(104.318181, 254.104464)">
                                <rect id="c" x="0" y="0" width="58.9090909" height="163.265186" rx="18.041958"></rect>
                            </g>
                        </g>
                        <g id="b" transform="translate(63.818182, 31.916503)">
                            <ellipse id="Oval" cx="111.681818" cy="103.114855" rx="111.681818" ry="103.114855"></ellipse>
                            <rect id="Rectangle" x="0" y="77.336141" width="223.363637" height="223.415518" rx="22"></rect>
                        </g>
                    </g>
                </g>
            </g>
        </g>
    </g>
</svg>