<?xml version="1.0" encoding="UTF-8"?>
<svg width="512px" height="512px" viewBox="0 0 512 512" version="1.1" xmlns="http://www.w3.org/2000/svg" xmlns:xlink="http://www.w3.org/1999/xlink">
    <!-- Generator: Sketch 60.1 (88133) - https://sketch.com -->
    <title>512Grid</title>
    <desc>Created with Sketch.</desc>
    <g id="Page-1" stroke="none" stroke-width="1" fill="none" fill-rule="evenodd">
        <g id="512Grid">
            <rect id="whitetrans" fill-opacity="0.01" fill="#FFFFFF" x="0" y="0" width="512" height="512"></rect>
            <g id="Chrome" transform="translate(45.000000, 45.000000)" fill="#000000" fill-rule="nonzero">
                <g id="google-chrome">
                    <path d="M211,379.8 L284.006,253.2 L283.795,253.2 C290.969,240.54 295.4,226.403 295.4,211 C295.4,185.68 284.006,163.103 266.282,147.7 L367.351,147.7 C375.369,167.323 379.8,188.634 379.8,211 C379.8,304.262 304.262,379.8 211,379.8 M42.2,211 C42.2,180.194 50.429,151.498 64.777,126.6 L137.994,253.2 L138.205,253.2 C152.764,278.309 179.35,295.4 211,295.4 C220.495,295.4 229.568,293.501 238.219,290.547 L187.579,377.901 C105.5,366.507 42.2,296.244 42.2,211 M274.3,211 C274.3,246.026 246.026,274.3 211,274.3 C175.974,274.3 147.7,246.026 147.7,211 C147.7,175.974 175.974,147.7 211,147.7 C246.026,147.7 274.3,175.974 274.3,211 M211,42.2 C273.456,42.2 327.894,76.171 357.012,126.6 L211,126.6 C170.066,126.6 136.095,155.718 128.288,194.331 L78.07,107.188 C108.876,67.731 156.984,42.2 211,42.2 M211,0 C94.528,0 0,94.528 0,211 C0,327.472 94.528,422 211,422 C327.472,422 422,327.472 422,211 C422,94.528 327.472,0 211,0 Z" id="Shape"></path>
                </g>
            </g>
        </g>
    </g>
</svg>