<?xml version="1.0" encoding="UTF-8"?>
<svg width="512px" height="512px" viewBox="0 0 512 512" version="1.1" xmlns="http://www.w3.org/2000/svg" xmlns:xlink="http://www.w3.org/1999/xlink">
    <!-- Generator: Sketch 60.1 (88133) - https://sketch.com -->
    <title>512Grid</title>
    <desc>Created with Sketch.</desc>
    <g id="Page-1" stroke="none" stroke-width="1" fill="none" fill-rule="evenodd">
        <g id="512Grid">
            <rect id="whitetrans" fill-opacity="0.01" fill="#FFFFFF" x="0" y="0" width="512" height="512"></rect>
            <g id="Desktop" transform="translate(69.000000, 117.000000)" fill="#000000" fill-rule="nonzero">
                <path d="M340.909091,0 L34.0909091,0 C15.3409091,0 0,15.345 0,34.1 L0,238.7 C0,257.455 15.3409091,272.8 34.0909091,272.8 L153.409091,272.8 L153.409091,306.9 L119.318182,306.9 L119.318182,341 L255.681818,341 L255.681818,306.9 L221.590909,306.9 L221.590909,272.8 L340.909091,272.8 C359.659091,272.8 375,257.455 375,238.7 L375,34.1 C375,15.345 359.659091,0 340.909091,0 Z M340.909091,238.7 L34.0909091,238.7 L34.0909091,34.1 L340.909091,34.1 L340.909091,238.7 Z" id="Shape"></path>
            </g>
        </g>
    </g>
</svg>