<?xml version="1.0" encoding="UTF-8"?>
<svg width="512px" height="512px" viewBox="0 0 512 512" version="1.1" xmlns="http://www.w3.org/2000/svg" xmlns:xlink="http://www.w3.org/1999/xlink">
    <!-- Generator: Sketch 60.1 (88133) - https://sketch.com -->
    <title>512Grid</title>
    <desc>Created with Sketch.</desc>
    <g id="Page-1" stroke="none" stroke-width="1" fill="none" fill-rule="evenodd">
        <g id="512Grid">
            <rect id="whitetrans" fill-opacity="0.01" fill="#FFFFFF" x="0" y="0" width="512" height="512"></rect>
            <g id="Edge" transform="translate(64.000000, 40.000000)" fill="#000000" fill-rule="nonzero">
                <g id="Microsoft_Edge-Logo.wine">
                    <path d="M118.544935,242.25 C118.544935,252.067499 120.009239,260.992499 123.001512,269.025 C126.184781,276.93 130.32303,284.00625 135.607257,290.19 C140.891483,296.37375 147.067026,301.665 154.324878,306.127501 C161.32807,310.59 168.967915,314.287501 177.117083,317.15625 C185.202586,320.08875 193.670083,322.25625 202.264909,323.65875 C210.987066,325.06125 219.454561,325.762501 228.049387,325.762501 C238.872502,325.762501 248.931631,324.93375 258.481438,323.212501 C268.031244,321.427501 277.326389,319.06875 286.494205,316.072501 C295.662019,313.07625 304.511507,309.50625 313.360994,305.42625 C322.274148,301.34625 331.314632,296.88375 340.609777,291.91125 L340.609777,378.35625 C330.232319,383.45625 320.045859,387.727501 309.859399,391.425 C299.672937,394.995 289.486477,398.11875 279.109021,400.605 C268.731563,403.155 258.226776,405.067501 247.467328,406.215 C236.707878,407.362501 225.693768,408 214.233999,408 C198.954309,408 184.183941,406.215 169.986561,402.70875 C155.789181,399.202501 142.483118,394.16625 130.004704,387.53625 C117.526289,380.90625 106.130187,372.87375 95.7527297,363.43875 C85.3116075,354.00375 76.46212,343.357501 69.0132706,331.56375 C61.5644213,319.77 55.8345371,306.82875 51.6962876,292.93125 C47.6853687,279.03375 45.6480766,264.24375 45.6480766,248.56125 C45.6480766,231.795 47.9400302,215.857499 52.5239375,200.62125 C57.1715101,185.32125 63.7290442,171.42375 72.3875356,158.67375 C80.9823619,145.92375 91.4871494,134.57625 103.901898,124.695 C116.316647,114.81375 130.259365,106.7175 145.793717,100.47 C137.326222,108.94875 130.705023,118.9575 126.05745,130.62375 C121.282547,142.22625 118.290274,153.892499 116.953301,165.55875 L261.983033,165.55875 C261.983033,150.89625 260.518731,138.14625 257.526457,127.18125 C254.534185,116.21625 249.759281,107.1 243.074416,99.8962499 C236.453217,92.6287499 227.922056,87.1462499 217.417269,83.5762499 C206.912481,79.9425 194.243071,78.0937499 179.409038,78.0937499 C161.901058,78.0937499 144.393079,80.6437499 126.8851,85.935 C109.377121,91.035 92.7604569,98.3662499 76.9714429,107.61 C61.1824291,116.98125 46.6667227,128.01 33.4243239,140.6325 C20.1819251,153.382499 9.04048379,167.08875 0,181.942499 C1.90996136,164.73 5.7298841,148.155 11.0141105,132.40875 C16.2983369,116.6625 23.3015287,102 31.7053587,88.4212499 C40.1091887,75.0337499 49.9773224,62.7937499 61.2460944,51.8287499 C72.5148665,40.8637499 84.9932807,31.4287499 98.808668,23.7787499 C112.624055,16.1287499 127.267092,9.945 143.183437,5.80125 C159.099782,2.1675 176.034772,0 193.861079,0 C204.302201,0 214.679657,0.95625 225.057114,2.805 C235.434571,4.7175 245.557367,7.2675 255.4255,10.5825 C275.034436,17.34 292.542416,26.775 307.949438,38.76 C323.356459,50.8725 336.28053,64.6425 346.785319,80.3887499 C357.290106,96.135 365.248278,113.53875 370.723501,132.4725 C376.198724,151.40625 379,171.105 379,191.56875 L379,242.25 L118.544935,242.25 Z" id="Path"></path>
                </g>
            </g>
        </g>
    </g>
</svg>