<?xml version="1.0" encoding="UTF-8"?>
<svg width="512px" height="512px" viewBox="0 0 512 512" version="1.1" xmlns="http://www.w3.org/2000/svg" xmlns:xlink="http://www.w3.org/1999/xlink">
    <!-- Generator: Sketch 60.1 (88133) - https://sketch.com -->
    <title>512Grid</title>
    <desc>Created with Sketch.</desc>
    <g id="Page-1" stroke="none" stroke-width="1" fill="none" fill-rule="evenodd">
        <g id="512Grid">
            <rect id="whitetrans" fill-opacity="0.01" fill="#FFFFFF" x="0" y="0" width="512" height="512"></rect>
            <g id="Firefox" transform="translate(56.000000, 68.000000)" fill="#000000" fill-rule="nonzero">
                <path d="M408,195.619121 C408,186.548946 405.733333,172.943681 403.466666,163.873506 C396.666667,125.325259 376.266667,91.3121002 351.333334,64.1015729 C346.8,57.2989412 337.733333,50.4963094 328.666667,43.6936775 C303.733333,23.2857823 274.266667,9.68051861 240.266666,2.87788682 C172.266667,-8.45983284 104.266667,14.2156065 58.9333333,61.834029 C58.9333333,61.834029 58.9333333,59.5664852 58.9333333,59.5664852 C56.6666666,55.0313973 56.6666666,55.0313973 54.4,55.0313973 C54.4,55.0313973 54.4,55.0313973 54.4,55.0313973 C52.1333333,50.4963094 52.1333333,48.2287654 49.8666667,45.9612215 C49.8666667,45.9612215 49.8666667,45.9612215 49.8666667,45.9612215 C49.8666667,41.4261337 47.6,36.8910458 47.6,32.3559579 C40.8,34.6235019 40.8,41.4261337 38.5333333,45.9612215 C38.5333333,45.9612215 38.5333333,45.9612215 38.5333333,45.9612215 C34,50.4963094 29.4666667,57.2989412 29.4666667,64.1015729 C29.4666667,64.1015729 29.4666667,64.1015729 29.4666667,64.1015729 C27.2,68.6366608 22.6666667,89.0445562 27.2,91.3121002 C27.2,91.3121002 27.2,91.3121002 29.4666667,91.3121002 C29.4666667,93.5796441 29.4666667,95.8471881 29.4666667,98.1147319 C24.9333334,102.64982 22.6666667,104.917364 22.6666667,107.184908 C15.8666666,120.790171 9.06666667,132.127891 6.8,145.733155 C6.8,150.268243 6.8,152.535786 6.8,154.80333 C6.8,154.80333 6.8,154.80333 6.8,154.80333 C6.8,154.80333 6.8,152.535786 6.8,152.535786 C2.26666667,157.070874 2.26666667,163.873506 0,168.408594 C2.26666667,168.408594 2.26666667,166.14105 4.53333334,166.14105 C-6.8,225.097192 9.06666667,286.320879 45.3333334,331.671758 C99.7333333,397.430531 192.666667,424.641058 274.266667,395.162986 C353.6,365.684916 408,288.588423 408,202.421753 C408,200.154209 408,197.886665 408,195.619121 M238,23.2857823 C272,30.088414 303.733333,45.9612215 328.666667,68.6366608 C330.933334,70.9042048 333.2,75.4392927 333.2,75.4392927 C326.4,68.6366608 310.533334,57.2989412 301.466666,61.834029 C303.733333,68.6366608 330.933334,102.64982 333.2,104.917364 C333.2,104.917364 340,134.395435 342.266666,136.662979 C342.266666,136.662979 342.266666,136.662979 342.266666,136.662979 C342.266666,136.662979 342.266666,136.662979 342.266666,136.662979 C342.266666,141.198067 326.4,200.154209 326.4,209.224385 C326.4,211.491929 306,252.307719 308.266667,252.307719 C301.466666,268.180527 294.666667,268.180527 292.4,270.448071 C290.133334,270.448071 276.533333,274.983158 260.666666,279.518246 C247.066667,281.78579 231.2,286.320879 219.866666,284.053334 C213.066667,284.053334 204,284.053334 197.2,279.518246 C194.933333,277.250702 176.8,268.180527 172.266667,265.912983 C165.466667,263.645439 160.933333,259.110351 156.4,254.575263 C163.2,254.575263 176.8,254.575263 181.333333,254.575263 C194.933333,252.307719 253.866667,231.899823 251.6,222.829648 C251.6,216.027016 240.266666,211.491929 235.733333,206.956841 C228.933334,204.689297 201.733333,209.224385 190.4,213.759472 C190.4,213.759472 147.333334,202.421753 136,193.351576 C136,191.084034 133.733333,177.478769 133.733333,175.211225 C131.466667,172.943681 140.533333,166.14105 140.533333,166.14105 C140.533333,166.14105 163.2,143.465611 163.2,141.198067 C167.733334,141.198067 172.266667,136.662979 174.533333,134.395435 C172.266667,134.395435 176.8,132.127891 183.6,127.592803 C183.6,127.592803 183.6,127.592803 183.6,127.592803 C190.4,123.057715 194.933333,123.057715 194.933333,116.255083 C194.933333,116.255083 206.266667,95.8471881 192.666667,98.1147319 C192.666667,98.1147319 172.266667,95.8471881 165.466667,95.8471881 C158.666666,100.382276 156.4,98.1147319 149.6,95.8471881 C149.6,95.8471881 145.066667,91.3121002 145.066667,89.0445562 C147.333334,84.5094683 163.2,50.4963094 170,48.2287654 C165.466667,39.1585898 142.8,45.9612215 138.266667,52.7638533 C138.266667,52.7638533 120.133333,66.3691169 111.066667,68.6366608 C111.066667,68.6366608 111.066667,68.6366608 111.066667,68.6366608 C111.066667,66.3691169 99.7333333,64.1015729 88.4,64.1015729 C129.2,30.088414 183.6,14.2156065 238,23.2857823 Z" id="Shape"></path>
            </g>
        </g>
    </g>
</svg>