<?xml version="1.0" encoding="UTF-8"?>
<svg width="512px" height="512px" viewBox="0 0 512 512" version="1.1" xmlns="http://www.w3.org/2000/svg" xmlns:xlink="http://www.w3.org/1999/xlink">
    <!-- Generator: Sketch 60.1 (88133) - https://sketch.com -->
    <title>512Grid</title>
    <desc>Created with Sketch.</desc>
    <g id="Page-1" stroke="none" stroke-width="1" fill="none" fill-rule="evenodd">
        <g id="512Grid">
            <rect id="whitetrans" fill-opacity="0.01" fill="#FFFFFF" x="0" y="0" width="512" height="512"></rect>
            <g id="iPhone" transform="translate(136.000000, 54.000000)" fill="#000000" fill-rule="nonzero">
                <g id="apple">
                    <path d="M193.846154,0 L46.1538461,0 C20.6769231,0 0,20.6181819 0,46.0227273 L0,358.977273 C0,384.381819 20.6769231,405 46.1538461,405 L193.846154,405 C219.323077,405 240,384.381819 240,358.977273 L240,46.0227273 C240,20.6181819 219.323077,0 193.846154,0 Z M120,386.590909 C104.676923,386.590909 92.3076922,374.256819 92.3076922,358.977273 C92.3076922,343.697728 104.676923,331.363636 120,331.363636 C135.323077,331.363636 147.692307,343.697728 147.692307,358.977273 C147.692307,374.256819 135.323077,386.590909 120,386.590909 Z M203.076922,312.954545 L36.9230769,312.954545 L36.9230769,55.2272727 L203.076922,55.2272727 L203.076922,312.954545 Z" id="Shape"></path>
                    <g id="Apple_logo_black" transform="translate(67.500000, 116.250000)">
                        <path d="M102.799362,97.4129535 C100.914196,101.780105 98.6827725,105.800043 96.0973991,109.495921 C92.5732874,114.534341 89.6878272,118.021893 87.464098,119.958565 C84.0169355,123.13748 80.3235447,124.765516 76.3685382,124.858108 C73.5292456,124.858108 70.1051641,124.047944 66.1193811,122.404483 C62.1205181,120.768719 58.4455939,119.958565 55.0853775,119.958565 C51.5612677,119.958565 47.7816972,120.768719 43.7389749,122.404483 C39.690092,124.047944 36.4283689,124.904404 33.9345597,124.989278 C30.1419094,125.151309 26.3615735,123.476977 22.5881571,119.958565 C20.1797612,117.852144 17.1673405,114.24114 13.5585881,109.125553 C9.68668557,103.662763 6.50344479,97.3280792 4.00963674,90.1060764 C1.33885407,82.3053861 -2.84217094e-14,74.751603 -2.84217094e-14,67.438556 C-2.84217094e-14,59.0614957 1.80514465,51.8364057 5.42081962,45.7818045 C8.26242169,40.9185289 12.0427603,37.0822242 16.774145,34.26595 C21.5055339,31.44968 26.6178017,30.0145386 32.123263,29.9227184 C35.1356816,29.9227184 39.0860734,30.8571037 43.9952031,32.6934684 C48.8904844,34.5360051 52.033714,35.4703905 53.4118081,35.4703905 C54.4421099,35.4703905 57.9339027,34.377829 63.8533305,32.1996574 C69.4511277,30.1796565 74.1755876,29.3432591 78.0459526,29.6727241 C88.5336435,30.5214646 96.4128757,34.6671732 101.652874,42.1360821 C92.2732026,47.8349844 87.63338,55.8169945 87.7257139,66.0566524 C87.8103544,74.0324894 90.6958144,80.6696326 96.3667072,85.9395382 C98.9366896,88.3854476 101.806764,90.2758229 105,91.6183764 C104.307499,93.6322031 103.576515,95.5611576 102.799362,97.4129535 Z M71.9287774,19.9916896 C66.4502444,26.4143372 59.82369,30.1256427 52.6377358,29.5400135 C52.5461716,28.7900351 52.4930784,28.0007087 52.4930784,27.1712596 C52.4930784,21.1698961 55.0984584,14.7472516 59.7252011,9.4958673 C62.0351049,6.83699946 64.9728895,4.62618682 68.5354734,2.86257969 C72.0903607,1.12528661 75.452886,0.164526126 78.6153486,0 C78.7076897,0.835718154 78.7461606,1.6714889 78.7461606,2.50063064 C78.7461606,8.7521389 76.4685665,14.5890787 71.9287774,19.9916896 Z" id="path4"></path>
                    </g>
                </g>
            </g>
        </g>
    </g>
</svg>