<?xml version="1.0" encoding="UTF-8"?>
<svg width="512px" height="512px" viewBox="0 0 512 512" version="1.1" xmlns="http://www.w3.org/2000/svg" xmlns:xlink="http://www.w3.org/1999/xlink">
    <!-- Generator: Sketch 60.1 (88133) - https://sketch.com -->
    <title>512Grid</title>
    <desc>Created with Sketch.</desc>
    <g id="Page-1" stroke="none" stroke-width="1" fill="none" fill-rule="evenodd">
        <g id="512Grid">
            <rect id="whitetrans" fill-opacity="0.01" fill="#FFFFFF" x="0" y="0" width="512" height="512"></rect>
            <g id="MacOS" transform="translate(77.000000, 54.000000)" fill="#000000" fill-rule="nonzero">
                <path d="M332.874125,315.617969 C326.769778,329.76754 319.544216,342.792138 311.172531,354.766783 C299.76112,371.091266 290.417727,382.390932 283.21708,388.665752 C272.054839,398.965435 260.095287,404.240272 247.2886,404.54027 C238.094701,404.54027 227.007198,401.915338 214.100853,396.590525 C201.152153,391.290649 189.252399,388.665752 178.371698,388.665752 C166.960296,388.665752 154.721686,391.290649 141.630966,396.590525 C128.520298,401.915338 117.958528,404.690269 109.883336,404.965261 C97.6023733,405.49024 85.3612856,400.065405 73.1426038,388.665752 C65.3439888,381.840947 55.5894835,370.141294 43.9039999,353.566791 C31.3664104,335.867354 21.0587736,315.342977 12.9835856,291.943687 C4.33533701,266.669451 0,242.195193 0,218.500921 C0,191.359245 5.8452303,167.949954 17.5531302,148.333047 C26.7545084,132.576034 38.9956049,120.146407 54.3162791,111.021678 C69.6369669,101.896963 86.1909772,97.2471051 104.018185,96.9496075 C113.772684,96.9496075 126.564428,99.9770162 142.460658,105.926838 C158.312044,111.896657 168.490122,114.924065 172.952521,114.924065 C176.288736,114.924065 187.595495,111.384166 206.763165,104.32689 C224.889366,97.782087 240.187617,95.0721598 252.720227,96.1396263 C286.680369,98.8895452 312.194074,112.321641 329.161687,136.520906 C298.789418,154.985349 283.765231,180.847062 284.064217,214.023553 C284.338291,239.865266 293.681684,261.369609 312.044575,278.444104 C320.366423,286.368851 329.659998,292.493666 340,296.84354 C337.757615,303.368339 335.390622,309.618151 332.874125,315.617969 Z M254.987568,8.10230596 C254.987568,28.3569301 247.612501,47.268615 232.912232,64.7730745 C215.172219,85.5824529 193.714806,97.6070824 170.446002,95.7096438 C170.149509,93.2797137 169.977588,90.7222965 169.977588,88.0348811 C169.977588,68.5904633 178.414056,47.7810952 193.39589,30.7666101 C200.875577,22.1518782 210.388405,14.9888453 221.92439,9.27475818 C233.435454,3.64592862 244.323631,0.53306465 254.563987,0 C254.862995,2.70772682 254.987568,5.41562406 254.987568,8.10204328 L254.987568,8.10230596 Z" id="path4"></path>
            </g>
        </g>
    </g>
</svg>