<?xml version="1.0" encoding="UTF-8"?>
<svg width="512px" height="512px" viewBox="0 0 512 512" version="1.1" xmlns="http://www.w3.org/2000/svg" xmlns:xlink="http://www.w3.org/1999/xlink">
    <!-- Generator: Sketch 60.1 (88133) - https://sketch.com -->
    <title>512Grid</title>
    <desc>Created with Sketch.</desc>
    <g id="Page-1" stroke="none" stroke-width="1" fill="none" fill-rule="evenodd">
        <g id="512Grid">
            <rect id="whitetrans" fill-opacity="0.01" fill="#FFFFFF" x="0" y="0" width="512" height="512"></rect>
            <g id="Safari" transform="translate(54.000000, 42.000000)" fill="#000000" fill-rule="nonzero">
                <path d="M202.498585,26.620272 C195.233345,26.620272 187.92849,27.0135212 180.691546,27.7915016 C183.125084,23.8022231 184.006532,19.3515508 183.088296,15.0243901 C181.185328,6.03786557 172.062393,0 160.385659,0 C158.000227,0 155.568105,0.2598 153.148717,0.772301639 C146.377257,2.21752788 140.433484,5.4813541 136.415319,9.96467868 C132.117013,14.7603311 130.397974,20.4603147 131.575127,26.0126523 C132.499022,30.3838231 135.174498,34.1260788 139.109188,36.7837049 C100.691843,49.5153246 66.2742708,74.0515181 41.5512314,106.489607 C14.3691877,142.151771 0,184.797301 0,229.810846 C0,341.848532 90.840262,433 202.498585,433 C314.156908,433 405,341.848532 405,229.810846 C405,117.770321 314.156908,26.620272 202.498585,26.620272 Z M160.385659,13.7509443 C165.658795,13.7509443 169.255337,15.8506393 169.684035,17.8807704 C169.923144,19.0136689 169.277974,20.4801901 167.983389,21.8941836 C164.693869,20.3155082 160.913397,19.8484361 157.287144,20.6221573 C153.701922,21.3873607 150.464751,23.3323115 148.080734,26.0978328 C146.367354,25.3326296 145.215668,24.2664557 144.979389,23.1520132 C144.710568,21.8814065 145.539668,20.1763803 147.196454,18.5934458 C149.327214,16.5562164 152.536087,14.9647639 155.996803,14.2265344 C157.476734,13.9113672 158.953834,13.7509443 160.385659,13.7509443 Z M246.395633,371.002918 L230.246568,344.721947 C229.464158,343.447082 227.964419,342.799711 226.502883,343.113458 C225.038516,343.425788 223.930689,344.62541 223.731197,346.111807 L219.640874,376.660311 C213.951773,377.319039 208.197588,377.654082 202.498585,377.654082 C164.22697,377.654082 128.185153,363.112381 100.635249,336.631236 C100.928122,336.514822 101.209677,336.357239 101.471424,336.157065 L181.376331,275.22048 C186.721624,277.72052 192.509764,279.272222 198.336104,279.769108 L218.610866,322.465747 C219.315459,323.949304 220.945361,324.752839 222.539896,324.410699 C224.140087,324.069978 225.297432,322.6716 225.339877,321.030458 L226.558061,273.768154 C231.02049,271.3178 235.044314,268.214397 238.564454,264.509053 L262.500838,273.022827 C264.045851,273.570819 265.759233,272.987335 266.649171,271.610253 C267.541939,270.233169 267.376403,268.423089 266.248767,267.233403 L248.762672,248.75779 C250.705257,244.016085 251.896558,239.062849 252.30828,233.981843 L294.84,213.640781 C296.318516,212.935203 297.119319,211.305419 296.779756,209.698351 C296.440191,208.092701 295.046568,206.93141 293.411003,206.888819 L249.921432,205.7616 L308.490445,128.433479 C308.68711,128.172259 308.844158,127.891164 308.960175,127.600131 C324.73572,144.143571 336.519983,164.145332 343.217869,185.764099 L317.026218,201.968236 C315.755686,202.754735 315.110516,204.259588 315.423197,205.727528 C315.733048,207.194049 316.928594,208.307072 318.409939,208.505827 L348.85179,212.610099 C349.512525,218.339896 349.843597,224.113701 349.843597,229.810846 C349.843597,269.297607 334.517974,306.424872 306.685101,334.351243 C289.769188,351.324843 268.97235,363.958504 246.395633,371.002918 Z M89.5782182,253.894164 C89.2669519,252.426222 88.0714061,251.314619 86.5900611,251.114446 L56.1482095,247.005915 C55.4888908,241.276118 55.1564017,235.503732 55.1564017,229.809427 C55.1564017,190.315566 70.4834412,153.188301 98.3148997,125.26619 C115.230812,108.29401 136.027651,95.6575082 158.601538,88.6088361 L174.752017,114.894065 C175.535842,116.170351 177.039825,116.817721 178.497117,116.502554 C179.960069,116.190226 181.067896,114.989184 181.267389,113.504207 L185.359126,82.9571212 C191.043983,82.2969738 196.796751,81.9633508 202.498585,81.9633508 C240.771616,81.9633508 276.814847,96.5050523 304.363337,122.986197 C304.073292,123.10261 303.794568,123.260193 303.531406,123.458948 L223.625084,184.395535 C218.284036,181.896911 212.497311,180.34379 206.666725,179.846904 L186.38772,137.148846 C185.683126,135.666708 184.051809,134.861754 182.460104,135.203895 C180.859913,135.544616 179.701153,136.942993 179.658708,138.584135 L178.441939,185.84928 C173.980925,188.298212 169.955685,191.400197 166.434131,195.105542 L142.496332,186.591766 C140.952734,186.043773 139.237939,186.62868 138.348,188.004342 C137.456646,189.381422 137.622183,191.191504 138.749816,192.38119 L156.235913,210.858222 C154.296157,215.601347 153.107685,220.554584 152.693136,225.63559 L110.158585,245.973812 C108.681485,246.68081 107.880681,248.310593 108.220245,249.916243 C108.559808,251.521892 109.953432,252.683184 111.588996,252.725773 L155.082812,253.852993 L96.5137991,331.181115 C96.3143056,331.443754 96.1572577,331.726268 96.0412403,332.01872 C80.2671092,315.4838 68.484262,295.480619 61.7821311,273.850496 L87.9723669,257.649197 C89.2457292,256.865538 89.8880698,255.360685 89.5782182,253.894164 Z M221.426412,260.836361 C217.91476,262.995682 214.081939,264.528928 210.035475,265.392089 C206.11635,266.229696 202.101013,266.415672 198.05172,265.924465 C197.893257,265.891812 197.731964,265.869099 197.572087,265.859161 C196.516611,265.714354 195.463964,265.52128 194.418393,265.278515 L218.709905,246.748954 C218.967406,246.554458 219.193782,246.327311 219.387616,246.070351 L237.844296,221.700258 C237.885328,221.880557 237.927773,222.062277 237.965974,222.243993 C241.147964,237.299616 234.505257,252.808115 221.426412,260.836361 Z M194.958866,194.225345 C197.471633,193.690128 200.022603,193.42039 202.539616,193.42039 C204.018131,193.42039 205.522114,193.515508 207.011947,193.702904 C207.144944,193.728458 207.279353,193.745496 207.41235,193.755434 C208.476314,193.901658 209.53462,194.096154 210.584436,194.338918 L186.288681,212.865639 C186.034009,213.060135 185.806218,213.287282 185.612384,213.544243 L167.152873,237.917173 C167.111842,237.735455 167.070812,237.553738 167.032611,237.372019 C162.881449,217.750732 175.409922,198.396342 194.958866,194.225345 Z" id="XMLID_26_"></path>
            </g>
        </g>
    </g>
</svg>