<?xml version="1.0" encoding="UTF-8"?>
<svg width="512px" height="512px" viewBox="0 0 512 512" version="1.1" xmlns="http://www.w3.org/2000/svg" xmlns:xlink="http://www.w3.org/1999/xlink">
    <!-- Generator: Sketch 60.1 (88133) - https://sketch.com -->
    <title>512Grid</title>
    <desc>Created with Sketch.</desc>
    <g id="Page-1" stroke="none" stroke-width="1" fill="none" fill-rule="evenodd">
        <g id="512Grid">
            <rect id="whitetrans" fill-opacity="0.01" fill="#FFFFFF" x="0" y="0" width="512" height="512"></rect>
            <g id="Xbox" transform="translate(52.000000, 52.000000)" fill="#000000" fill-rule="nonzero">
                <path d="M183.690114,407.152713 C152.282079,404.162566 120.465559,392.881562 93.0969975,375.031298 C70.1763946,360.080571 65.0022387,353.964363 65.0022387,341.686644 C65.0022387,317.085899 92.0984761,273.955312 138.393555,224.844434 C164.718208,196.936408 201.345786,164.226027 205.294483,165.086826 C213.01033,166.808425 274.600941,226.88317 297.657706,255.108334 C334.149121,299.869908 350.942435,336.476542 342.409615,352.786427 C335.919228,365.200062 295.751438,389.438364 266.249671,398.725938 C241.92206,406.427828 209.969378,409.689805 183.690114,407.152713 Z M34.0934651,316.13449 C15.0761727,286.957916 5.45405822,258.18909 0.779162958,216.644187 C-0.76400635,202.916699 -0.219358359,195.078893 4.27398758,166.899036 C9.85662949,131.787476 29.8270559,91.1939831 53.8823422,66.1854917 C64.1398792,55.5387608 65.0476259,55.2669294 77.5291424,59.4803164 C92.6885116,64.5998084 108.846402,75.744897 133.945597,98.4428211 L148.605705,111.671951 L140.617535,121.503187 C103.445309,167.080257 64.2760412,231.685525 49.5251581,271.644745 C41.4916003,293.345955 38.2690996,315.183079 41.718537,324.244126 C44.0332909,330.360334 41.9000862,328.095073 34.0934651,316.13449 Z M368.144232,321.07276 C370.005113,311.921102 367.644973,295.067555 362.06233,278.078089 C350.034687,241.290236 309.685349,172.788717 272.649285,126.260237 L260.984741,111.626645 L273.60242,100.028504 C290.078022,84.8965549 301.515629,75.8355073 313.860983,68.1789221 C323.61926,62.1080202 337.507784,56.7620021 343.498912,56.7620021 C347.175285,56.7620021 360.156063,70.2176578 370.640537,84.9418602 C386.889201,107.68509 398.82607,135.321285 404.862585,164.044806 C408.765896,182.619953 409.083606,222.352647 405.498008,240.837183 C402.547832,256.014438 396.28438,275.722217 390.202477,289.132567 C385.618356,299.145025 374.271522,318.580973 369.278917,324.923706 C366.737225,328.095073 366.737225,328.095073 368.144232,321.07276 L368.144232,321.07276 Z M187.048775,49.7849955 C169.937752,41.0863898 143.567711,31.7988161 128.998378,29.2617229 C123.869609,28.4009232 115.200629,27.9025657 109.617987,28.1743971 C97.5903434,28.7633652 98.1349915,28.1743971 117.424608,19.0680442 C133.446336,11.5020695 146.835599,7.06215621 164.990532,3.25651623 C185.414833,-1.04748137 223.767128,-1.09278661 243.873716,3.16590575 C265.568862,7.74173479 291.12193,17.2558347 305.509715,26.0903561 L309.776124,28.7180599 L299.972459,28.2197024 C280.455906,27.2229871 252.043437,35.1060985 221.497762,49.9662166 C212.284133,54.451435 204.295962,58.0305489 203.705926,57.8946331 C203.161279,57.8040226 195.626982,54.1342984 187.048775,49.7849955 Z" id="path4148"></path>
            </g>
        </g>
    </g>
</svg>