<?xml version="1.0" encoding="UTF-8"?>
<svg width="512px" height="512px" viewBox="0 0 512 512" version="1.1" xmlns="http://www.w3.org/2000/svg" xmlns:xlink="http://www.w3.org/1999/xlink">
    <!-- Generator: Sketch 60.1 (88133) - https://sketch.com -->
    <title>avatar</title>
    <desc>Created with Sketch.</desc>
    <g id="avatars" stroke="none" stroke-width="1" fill="none" fill-rule="evenodd">
        <g id="avatar">
            <rect id="invisible" stroke="#FFFFFF" fill-opacity="0" fill="#000000" x="0.5" y="0.5" width="511" height="511"></rect>
            <g id="biker" transform="translate(160.000000, 65.000000)" fill-rule="nonzero">
                <path d="M190.856436,310.413897 C190.856436,264.345792 148.164216,227 95.5000588,227 C42.8359014,227 0.142581087,264.345792 0.142581087,310.413897 C0.142581087,313.996217 -0.0819526047,355.21043 0.0325155518,359.167645 C0.368215433,370.723585 3.60854478,382 23.8363888,382 L167.107595,382 C187.393774,382 190.634103,370.744413 190.967602,359.178606 C191.08207,355.222489 190.856436,314.004985 190.856436,310.413897" id="Fill-2" fill="#E6E6C9"></path>
                <path d="M65,382 L126,382 L126,340.257624 C116.251142,340.257624 102.533662,330.248114 96.1272693,323 C87.0045662,330.248114 75.5844749,340.257624 65,340.257624 L65,382" id="Fill-3" fill="#FF6600"></path>
                <path d="M72,382 L120,382 L120,344.237652 C112.329267,344.237652 101.535326,336.388408 96.4933636,330 C89.3159942,336.388408 80.3292666,344.237652 72,344.237652 L72,382" id="Fill-4" fill="#666666"></path>
                <polygon id="Fill-5" fill="#FF6600" points="69 355 126 355 126 351 69 351"></polygon>
                <path d="M60.2550468,231 C24.9560812,243.403159 0,273.882188 0,309.517825 C0,313.144986 1.29079377,354.181406 1.40543301,358.188154 C1.74053233,369.888745 3.47114396,382 23.7292208,382 L77.4674677,382 C75.1416139,331.830191 69.403038,281.497229 60.2550468,231 Z M130.744953,231 C166.043919,243.403159 191,273.882188 191,309.517825 C191,313.144986 190.192014,354.112592 190.077374,358.11823 C189.741173,369.819931 187.528856,382 167.271882,382 L113.532532,382 C115.858386,331.830191 121.596962,281.497229 130.744953,231 L130.744953,231 Z" id="Fill-6" fill="#2A2A2A"></path>
                <path d="M190.856436,309.052926 C190.856436,288.983404 183.048387,270.5425 169.999017,256.001117 C165.327835,270.316861 162.717081,286.269043 162.717081,303.090266 C162.717081,305.456117 162.673055,345.704627 162.637834,382 L167.107595,382 C187.393774,382 190.634103,370.530426 190.967602,358.744734 C191.08207,354.713404 190.856436,312.712287 190.856436,309.052926 Z M21,256 C7.95063014,270.541383 0.142581087,288.983404 0.142581087,309.052926 C0.142581087,312.703352 -0.0819526047,354.701117 0.0325155518,358.733565 C0.368215433,370.509201 3.60854478,382 23.8363888,382 L28.3622837,382 C28.3270627,345.704627 28.2830365,305.456117 28.2830365,303.090266 C28.2830365,286.269043 25.6722819,270.316861 21,256 L21,256 Z" id="Fill-7" fill="#FAB385"></path>
                <path d="M18.1842888,297.583759 C19.3250738,288.03833 17.8110011,288.975997 14.4910525,296.195698 C11.3505904,303.02312 7.11999585,309.575615 0.0980017986,312.968651 C0.0528549028,314.784751 0.0418434646,316.318099 0,327.72545 C5.86138848,325.322609 16.3266592,313.120644 18.1842888,297.583759 Z M190.896492,310.454048 C190.896492,300.628103 189.024548,291.193317 185.585676,282.414562 C183.747867,283.633865 181.282406,285.025278 179.667028,286.043411 C177.357929,287.498528 177.949244,287.117427 178.079178,289.599618 C178.206911,292.03487 178.83126,295.035629 178.21572,295.469256 C175.219508,297.516702 170.246743,294.279012 169.767745,297.970448 C169.518887,299.89272 169.255713,308.854761 170.430634,310.456283 C171.135366,311.415184 171.998662,311.628646 172.915915,311.631999 C174.107353,311.635352 175.560863,311.810816 176.714861,312.280208 C177.601282,312.641193 177.167432,312.99659 177.60899,314.168953 C178.199203,315.731358 178.968903,318.503009 179.233177,319.991653 C179.822289,323.294163 184.38653,332.310967 187.44771,333.880078 C188.794409,334.569637 189.82508,332.16009 191,329.860069 C190.958157,317.897269 190.896492,312.366262 190.896492,310.454048 Z M12.1852574,269 C15.1120976,273.693923 15.7727839,281.336078 13.438359,289.178281 C10.9255488,297.613933 5.65107001,303.908261 0.243352781,305.723243 C0.515335301,301.825053 0.906241352,298.021857 1.64070427,294.165016 C3.52366018,284.288778 7.03190434,277.209896 12.1852574,269 L12.1852574,269 Z" id="Fill-8" fill="#93778C"></path>
                <path d="M31,161 C20.5810972,158.499865 10.7941768,143.473042 8.33230779,125.306692 C6.64335113,112.849363 11.5406649,109.455161 19.6551438,109 C20.7374412,127.996478 24.7517412,145.692495 31,161" id="Fill-9" fill="#F49A6A"></path>
                <path d="M124.206824,268.011527 C116.549194,272.346847 106.286619,275 95.0044283,275 C83.7189167,275 73.4530203,272.345744 65.7953901,268.007123 C63.999716,256.021694 62.005876,244.027458 59.8171908,232.023314 L56,139 C82.000738,139 108.000369,139 134,139 L130.157346,232.174136 C127.978625,244.128741 125.994748,256.075638 124.206824,268.011527" id="Fill-10" fill="#F49A6A"></path>
                <path d="M160,161 C170.418903,158.499865 180.205823,143.473042 182.667692,125.306692 C184.356649,112.849363 179.459335,109.455161 171.344856,109 C170.262559,127.996478 166.248259,145.692495 160,161" id="Fill-11" fill="#F49A6A"></path>
                <path d="M169.173363,65.3288173 C170.012265,75.8417133 172,86.65983 172,97.9762879 C172,164.263473 138.198639,218 96.5,218 C54.803551,218 21,164.263473 21,97.9762879 C21,80.3489844 23.3918536,63.6095945 27.6849244,48.5317129 C50.0220339,27.3849421 165.362168,17.5035744 169.173363,65.3288173" id="Fill-12" fill="#FAB385"></path>
                <path d="M160.508259,153.421134 C158.34235,160.015812 155.715213,164.764335 152.712301,171.349028 C149.04877,179.382686 146.193757,180.911533 139.067182,177.061679 C110.710972,158.457009 89.4386101,156.49658 60.146797,173.1386 C57.5404754,174.458867 54.8980004,175.718113 52.3322142,177.107167 C45.6635803,180.717376 43.7934705,179.496961 40.3118017,172.141188 C37.6101667,166.434085 35.1550315,162.639704 33.0833398,156.807231 C24.9762441,133.977707 27.3612641,109.813494 26.4475724,85.7091921 C26.2558506,80.6378138 19.154473,88.4784243 19,88.3652584 C19.142422,89.7421082 20.116369,105.925918 21.6369972,119.387093 C25.2983368,151.797982 31.3698942,197.186319 49.0313116,225.019542 C53.3357412,231.80172 57.1756561,234.851648 60.8709579,237.925985 C73.8488844,248.725547 119.792014,248.372734 133.089842,238.770289 C161.784579,218.048756 169.732819,123.300187 174,89.61341 C173.456605,89.8486171 161.66845,81.4066751 164.608916,87.0205831 C170.175423,97.6481774 165.345128,138.694056 160.508259,153.421134 Z M117.771814,197.432621 C111.106467,197.320564 104.811416,195.648596 103.56139,191.199629 C102.70138,188.143045 100.956164,188.321669 97.6903189,188.118637 C97.2082752,188.148592 96.7645762,188.170782 96.3548391,188.194081 C95.9440066,188.170782 95.5003074,188.148592 95.0182639,188.118637 C91.7535146,188.321669 90.0072023,188.143045 89.1482884,191.199629 C87.777751,196.073522 80.3542807,197.611245 73.0206459,197.423745 C67.7378871,197.289499 64.5848842,195.468862 65.9050261,190.193342 C66.9304642,186.091639 68.8334405,184.449626 72.9823016,184.190011 C79.2543452,183.797259 86.9297927,182.170779 96.3964703,178.672626 C103.828705,181.418559 110.156622,183.011756 115.56756,183.758427 C121.634735,184.597185 124.686947,185.23291 126.124313,190.193342 C128.226681,197.452591 124.591634,197.548005 117.771814,197.432621 L117.771814,197.432621 Z" id="Fill-13" fill="#7D5D48"></path>
                <path d="M25.3190578,104.036387 C23.1146968,105.382603 21.1431833,107.228276 18.7048767,108.073934 C16.2698652,108.918489 8.24651863,108.933925 5.67092006,108.997873 C-4.15809128,109.240434 8.8604886,88.6568833 8.88025866,88.3636042 C12.4103115,38.0541371 24.5348456,-0.104099785 95.4994508,0 C166.465154,-0.104099785 178.590787,38.0541371 182.119741,88.3636042 C182.139511,88.6568833 195.158091,109.240434 185.32908,108.997873 C182.753481,108.933925 174.731233,108.918489 172.295123,108.073934 C169.856817,107.228276 167.885303,105.382603 165.680942,104.036387 C148.330524,96.8345145 42.6694758,96.8345145 25.3190578,104.036387" id="Fill-14" fill="#3F3F3F"></path>
                <path d="M26.1137434,72.1424079 C20.2331668,70.6958938 18.7616427,69.5488489 19.0298951,65.1816803 C19.5818546,56.2285424 22.1882074,50.5463608 23.7359017,46.214554 C34.8799642,15.0321739 58.3051253,5.95195502 90.1962414,6 C147.229113,5.91438323 156.973406,36.6624775 159.810478,77.1991294 C160.284059,83.9719981 160.569974,83.0967964 151.596217,83.9664729 C150.389633,84.0825033 142.987856,83.8824888 132.257763,83.5951751 C121.931705,83.318912 110.385816,52.7100543 96.4477348,52.4790983 C88.0678858,52.3398617 79.0985437,69.6151521 70.9946743,69.8074313 C47.0528789,70.3765335 26.1965373,72.1622989 26.1137434,72.1424079" id="Fill-15" fill="#525252"></path>
                <path d="M162.040653,100.578632 C172.768423,102.940182 167.05912,97.686216 160.159554,95.3109949 C157.783428,94.4919139 153.839718,92.6361654 146.067806,91.499249 C129.191811,89.0340316 106.039982,87.9905291 94.8204869,88.001921 C67.2640249,87.9119247 44.2508039,91.0036994 30.4087696,93.1408287 C21.8734166,94.4577379 12.3909136,103.96204 15.6613871,104.965671 C16.6503396,105.269836 19.6314978,103.491553 23.2770913,102.05275 C27.2417014,100.487496 44.1837004,98.5269419 49.5750865,98.0473408 C57.727619,97.3205345 81.5317819,96.6871422 91.5170117,96.4296842 C100.045764,96.2086804 108.284101,96.1289368 115.719396,96.1426071 C126.484567,96.1608343 133.069516,97.2225638 137.994478,97.4629338 C147.316372,97.9174725 150.345933,98.0029122 162.040653,100.578632" id="Fill-16" fill="#636363"></path>
                <path d="M10.8642334,75.7833484 C30.5463089,73.7146095 50.4148462,72.3369837 70.4872919,71.714867 L70.4872919,59 C50.1466029,59.4818242 30.5223198,60.6685604 10.6221602,62.7706474 C9.47940039,62.891391 9.24605057,63.1972745 9.00615825,63.671049 C8.83169109,64.0137308 8.02805178,71.2905398 8.00733379,72.0713479 C7.95063198,74.1446866 8.23414109,75.2244785 8.46421966,75.6879036 C8.71283534,76.1915765 8.98325942,75.9799879 10.8642334,75.7833484 Z M177.13579,75.7833484 C157.452624,73.7146095 137.584087,72.3369837 117.511641,71.714867 L117.511641,59 C137.85233,59.4818242 157.476614,60.6685604 177.376773,62.7706474 C178.519533,62.891391 178.753973,63.1972745 178.993866,63.671049 C179.167242,64.0137308 179.970882,71.2905398 179.99269,72.0713479 C180.049392,74.1446866 179.764792,75.2244785 179.534714,75.6879036 C179.286098,76.1915765 179.016764,75.9799879 177.13579,75.7833484 L177.13579,75.7833484 Z" id="Fill-17" fill="#94744C"></path>
                <path d="M138.636003,33.5441531 C124.702458,31.7274579 111.910234,34.5774406 104.568315,40.3359361 C96.8496067,46.3904607 96.5933021,46.9183603 88.67415,40.5306625 C81.3738531,34.641599 68.4523819,31.7071974 54.3622061,33.5441531 C33.5402034,36.2590654 21.3098784,46.5840614 23.1894447,64.9952641 C26.266194,95.16771 67.9145807,95.7980377 87.380579,78.7679286 C90.7300629,75.8369039 92.7695457,72.1337275 93.9513942,68.0039542 C94.2350817,67.0089367 95.2110103,65.9373791 96.569205,66.1534916 C97.3205934,66.2728036 98.6415474,66.6881447 98.955904,67.9589308 C99.9855031,72.1145926 102.24405,75.8256481 105.618726,78.7668031 C125.113202,95.762019 166.732015,95.16771 169.810955,64.9952641 C171.688331,46.582936 159.459101,36.260191 138.636003,33.5441531" id="Fill-18" fill="#AA885D"></path>
                <path d="M135.575331,40.401562 C120.022616,38.3994845 106.370812,44.0775433 105.37039,53.1166252 C104.49597,61.0071003 105.233524,68.8193867 110.914534,73.7232647 C125.453792,86.2720388 156.559222,85.8084115 158.858782,63.5752216 C160.261111,50.00889 151.12696,42.4014367 135.575331,40.401562 Z M54.4237881,40.401562 C69.9775893,38.3994845 83.6283067,44.0775433 84.6298156,53.1166252 C85.5031487,61.0071003 84.7655949,68.820488 79.084585,73.7232647 C64.5464136,86.2720388 33.4398972,85.8073103 31.1414234,63.5752216 C29.7380077,50.00889 38.8721591,42.4025379 54.4237881,40.401562 L54.4237881,40.401562 Z" id="Fill-19" fill="#262626"></path>
                <path d="M111.274333,61.2792998 C118.362122,63.0879928 128.986688,60.5560429 134.093663,55.7706574 C140.916468,49.380236 141.255911,44.108276 131.069335,44.0103005 C124.788545,43.9497538 115.924702,45.2564601 111.495519,48.4434145 C108.02882,50.9368348 105.720607,59.8636096 111.274333,61.2792998 Z M53.3412665,44.2656972 C65.496611,42.552778 85.0594781,49.1655706 71.8409103,62.8447054 C64.4530975,70.4889925 46.6432894,73.5174249 38.0291018,68.6263581 C33.5276495,66.0712903 33.4323866,63.5206259 34.7025602,58.0725302 C36.5300777,50.2311914 43.2981332,45.6813874 53.3412665,44.2656972 L53.3412665,44.2656972 Z" id="Fill-20" fill="#393939"></path>
                <path d="M31.2241209,290.043812 C30.7568014,278.385578 28.4429218,270.274286 26.8256939,264.286024 C26.5963613,263.441728 23.4798174,255.216523 25.941898,254.547562 C28.7306693,251.464088 44.6141179,239.555692 50.7844639,236.550392 C53.9572593,235.004748 54.2136359,233.793023 55.119067,237.118843 C57.0543317,244.232835 56.8423072,279.606234 43.4512283,256.82136 C37.5080515,246.709888 38.54113,257.270313 39.046311,261.013813 C39.9549873,267.739159 39.3135051,290.976336 36.7973366,295.405551 C34.4445135,299.544397 31.5994908,299.394746 31.2241209,290.043812" id="Fill-21" fill="#3F3F3F"></path>
            </g>
        </g>
    </g>
</svg>