<?xml version="1.0" encoding="UTF-8"?>
<svg width="512px" height="512px" viewBox="0 0 512 512" version="1.1" xmlns="http://www.w3.org/2000/svg" xmlns:xlink="http://www.w3.org/1999/xlink">
    <!-- Generator: Sketch 60.1 (88133) - https://sketch.com -->
    <title>avatar</title>
    <desc>Created with Sketch.</desc>
    <g id="avatars" stroke="none" stroke-width="1" fill="none" fill-rule="evenodd">
        <g id="avatar">
            <rect id="invisible" stroke="#FFFFFF" fill-opacity="0" fill="#000000" x="0.5" y="0.5" width="511" height="511"></rect>
            <g id="chix" transform="translate(160.000000, 64.000000)" fill-rule="nonzero">
                <path d="M130.578939,149 C132.736454,160.890736 137.191999,174.33034 133.938024,187.989329 C130.024624,204.411489 127.052785,219.856283 126.862481,233.316728 C164.661037,244.503234 191.855684,275.668154 191.855684,312.364895 C191.855684,315.958442 192.0825,357.204161 191.967432,361.164083 C191.633294,372.736708 188.374893,384 167.982504,384 L23.9611866,384 C3.6274377,384 0.370143262,372.715867 0.0326857903,361.152016 C-0.0823816759,357.192094 0.143327584,315.949667 0.143327584,312.364895 C0.143327584,275.749325 27.2195875,244.643642 64.8864799,233.393513 C64.643068,219.91442 62.6769633,204.442203 58.0609876,187.989329 C54.2538035,174.420288 59.2625576,160.890736 61.4200725,149 L130.578939,149" id="Fill-149" fill="#F5A479"></path>
                <path d="M31,163 C20.5810972,160.499865 10.7941768,145.473042 8.33230779,127.306692 C6.64335113,114.849363 11.5406649,111.455161 19.6551438,111 C20.7374412,129.996478 24.7517412,147.692495 31,163" id="Fill-150" fill="#F49A6A"></path>
                <path d="M161,163 C171.418903,160.499865 181.205823,145.473042 183.667692,127.306692 C185.356649,114.849363 180.459335,111.455161 172.344856,111 C171.262559,129.996478 167.248259,147.692495 161,163" id="Fill-151" fill="#F49A6A"></path>
                <path d="M184.857228,312.22712 C184.857228,285.268738 175.863061,261.293158 153.405553,246 C150.329782,283.135501 125.187269,312.096334 94.6211102,312.096334 C64.371285,312.096334 39.4323639,283.734477 35.9351795,247.155091 C14.4277682,262.486716 6.14179415,285.938055 6.14179415,312.22712 C6.14179415,315.818785 5.91849972,357.140533 6.03233608,361.108073 C6.36618313,372.694164 4.11572572,384 24.2319253,384 L166.712368,384 C186.88658,384 184.637217,372.715046 184.967781,361.120162 C185.081617,357.152623 184.857228,315.827578 184.857228,312.22712" id="Fill-152" fill="#2A2A2A"></path>
                <path d="M174.395879,261.706236 C172.112389,259.00889 169.649002,256.435746 167.01896,254 L154.707541,254 C154.22303,256.624804 153.627049,259.195746 152.924013,261.706236 L174.395879,261.706236 Z M138.678967,289.765688 C136.406514,292.569653 133.951955,295.147192 131.339573,297.470824 L184,297.470824 L184,289.765688 L138.678967,289.765688 Z M61.8868326,297.470824 C59.2755535,295.147192 56.822099,292.569653 54.549646,289.765688 L11,289.765688 L11,297.470824 L61.8868326,297.470824 Z M40.3012887,261.706236 C39.5982519,259.196846 39.0022711,256.624804 38.5177608,254 L27.9799362,254 C25.3509984,256.435746 22.8876108,259.00889 20.6041212,261.706236 L40.3012887,261.706236 Z M11,369 L184,369 L184,361.294862 L11,361.294862 L11,369 Z M11,333.235412 L184,333.235412 L184,325.530274 L11,325.530274 L11,333.235412 Z" id="Fill-153" fill="#B04878"></path>
                <path d="M191.855684,312.210816 C191.855684,292.459858 184.006755,274.311666 170.89017,260.001099 C166.193426,274.089609 163.570109,289.788581 163.570109,306.342802 C163.570109,308.671099 163.524746,348.280745 163.489341,384 L167.982504,384 C188.374893,384 191.633294,372.712482 191.967432,361.114964 C192.0825,357.146524 191.855684,315.812093 191.855684,312.210816 Z M21.1099475,260 C7.99225646,274.310567 0.143327584,292.459858 0.143327584,312.210816 C0.143327584,315.803298 -0.0823816759,357.134433 0.0326857903,361.102872 C0.370143262,372.691595 3.6274377,384 23.9611866,384 L28.5107772,384 C28.4764783,348.280745 28.4311152,308.671099 28.4311152,306.342802 C28.4311152,289.788581 25.8066918,274.089609 21.1099475,260 L21.1099475,260 Z" id="Fill-154" fill="#FFBE8E"></path>
                <path d="M156.098617,63.058708 C157.951805,73.3394593 173,87.8980853 173,99.1078534 C173,164.770093 138.974542,218 97.0005512,218 C65.1369627,218 37.8550809,187.325958 26.5584616,143.825989 C22.9744554,130.021571 21,114.926424 21,99.1078534 C21,81.6467377 27.9541403,65.0651641 32.2756732,50.1294344 C54.4125053,50.6824467 151.8752,39.6276979 156.098617,63.058708" id="Fill-155" fill="#FBBB91"></path>
                <path d="M52.0985121,235 C52.3301996,234.629746 43.6713014,190.247588 72.0834838,159.223146 C83.9394452,146.276336 101.6408,136.693675 112.993479,125.344341 C128.146273,110.194684 135.675557,94.6769694 143.261377,76.8641187 C148.566905,105.818653 157.445297,124.476386 166.492188,147.557394 C176.166519,114.487215 190.490117,38.7916635 139.451284,30.8559191 C125.977946,4.04819958 80.3787768,14.5746242 70.3807482,17.4850197 C54.9109081,21.9873982 42.5605327,33.9014519 33.9681478,47.7283024 C20.0380861,66.0311631 15.2314055,100.826265 17.5626899,135.771885 C21.2630358,191.214424 30.2023974,192.091169 52.0985121,235" id="Fill-156" fill="#2A2A2A"></path>
                <path d="M144,57 C135.759206,72.8666018 128.47455,87.1942987 119.609137,100.067429 C103.908048,122.867318 81.7115835,129.998855 63.0037623,152.397861 C55.003375,161.976311 44.6384385,185.025929 46.1028344,210 C39.2583756,183.34573 50.7485037,160.799953 57.3657287,150.06924 C72.3873121,125.709637 93.253306,114.603234 110.80959,93.979719 C121.206361,81.7681531 130.839099,69.6190196 144,57" id="Fill-157" fill="#DA5994"></path>
                <path d="M75.6190587,23 C73.1599709,15.2567412 61.6561175,14.863515 54,11.0819509 C67.6953314,8.43179499 87.2915739,10.5968935 102,18.1659084 C90.5737309,21.0020816 87.0453279,20.1626496 75.6190587,23" id="Fill-158" fill="#2A2A2A"></path>
                <path d="M89.1049174,19.8959762 C88.8826749,12.2539447 73.1286379,5.55503333 67,0 C80.480157,1.48582802 103.306541,12.0598053 115,23 C103.584618,22.3227184 100.519205,20.5743609 89.1049174,19.8959762" id="Fill-159" fill="#2A2A2A"></path>
                <path d="M83.4924486,28.1641619 C80.3045967,30.9415424 77.2572714,34.5739206 74.0495023,37.4438803 C70.254177,40.8399089 69.949887,40.5567251 64.419556,39.8051984 C60.5445621,39.27913 56.7492367,38.3533365 52.8742429,37.8272678 C47.0661782,37.0387096 47.3914917,39.7071732 49.0512549,45.0244955 C50.682249,50.2448819 52.2258288,55.4500197 53.5713435,60.66496 C55.140373,66.7425223 56.0034499,65.8319771 60.0610178,61.6114478 C63.1304732,58.4190939 65.4995086,55.6624076 68.5069995,52.4134171 C73.2638809,47.2703618 73.065816,48.1798177 80.3698806,49.1382862 C84.0125078,49.6164313 87.6573477,50.0934873 91.2999748,50.5716325 C95.6596195,51.1445352 97.0383295,51.4832668 95.2181226,46.5798287 C93.2319391,41.2298313 91.0830991,35.1163267 89.0958092,29.7663293 C88.3057619,27.6380933 86.3494543,25.6743219 83.4924486,28.1641619" id="Fill-160" fill="#DA5994"></path>
                <path d="M155,93.2196797 C147.729546,97.2906706 153.703957,118.001602 154.605498,132 C145.11149,119.874635 139.320108,84.7760606 143.242863,69 C149.093606,79.3255236 149.149257,82.8930471 155,93.2196797" id="Fill-161" fill="#2A2A2A"></path>
            </g>
        </g>
    </g>
</svg>