<?xml version="1.0" encoding="UTF-8"?>
<svg width="512px" height="512px" viewBox="0 0 512 512" version="1.1" xmlns="http://www.w3.org/2000/svg" xmlns:xlink="http://www.w3.org/1999/xlink">
    <!-- Generator: Sketch 60.1 (88133) - https://sketch.com -->
    <title>avatar</title>
    <desc>Created with Sketch.</desc>
    <g id="avatars" stroke="none" stroke-width="1" fill="none" fill-rule="evenodd">
        <g id="avatar">
            <rect id="invisible" stroke="#FFFFFF" fill-opacity="0" fill="#000000" x="0.5" y="0.5" width="511" height="511"></rect>
            <g id="dapper" transform="translate(148.000000, 72.000000)" fill-rule="nonzero">
                <path d="M34.6043107,73.3181326 C48.8125221,73.7327452 80,84.0494734 80,90.5342738 C80,97.0190744 40.0710246,92.4928867 25.8628131,92.078274 C11.6556943,91.6636613 0,84.8549448 0,78.3701441 C0,71.8853437 20.3971918,72.9035201 34.6043107,73.3181326" id="Fill-218" fill="#684835"></path>
                <path d="M187.999462,75 C201.254454,75 212,80.1488277 212,86.5 C212,92.8511723 201.254454,98 187.999462,98 C174.745546,98 164,92.8511723 164,86.5 C164,80.1488277 174.745546,75 187.999462,75" id="Fill-219" fill="#684835"></path>
                <path d="M43.8798586,159 C33.4831085,156.413838 23.7169971,140.868842 21.2603623,122.078533 C19.5749968,109.192564 26.3164592,105.470823 34.4136852,105 C35.4925829,124.650121 37.6448849,143.165784 43.8798586,159 Z M172.130249,159 C182.526999,156.413838 192.293111,140.868842 194.749746,122.078533 C196.435111,109.192564 189.349764,105.681572 181.252538,105.210749 C180.17364,124.860871 178.365223,143.165784 172.130249,159 L172.130249,159 Z" id="Fill-220" fill="#F49A6A"></path>
                <path d="M147,140 C145.716901,171.035302 144.433803,202.070604 143.151811,233.104806 C142.584989,246.835657 127.956114,301.231748 109.677217,301 C91.8278641,300.769258 73.3629783,246.108413 72.8249404,233.031204 C71.5506982,202.021169 70.2753491,171.011134 69,140 C95.000738,140 121.000369,140 147,140" id="Fill-221" fill="#F49A6A"></path>
                <path d="M182.747983,94.5287405 C182.747983,107.524324 183.839441,120.760648 181.479532,132.470808 C177.195642,153.724462 172.385143,176.646736 161.856234,190.768721 C136.008677,225.43318 83.5924777,223.728118 58.1480711,189.661092 C47.842043,175.862672 42.7540358,154.632209 38.3980373,133.969364 C35.8392843,121.829625 36.0020742,107.975989 36.0020742,94.4249349 C36.0020742,16.4558525 182.747983,16.5596581 182.747983,94.5287405" id="Fill-222" fill="#FAB385"></path>
                <path d="M143,234 C142.588342,234.345517 142.189753,234.783926 141.804233,235.324289 C140.18265,242.819162 129.892299,250.710527 121.164722,257.864415 C116.933796,267.180893 114.723042,276.149589 110.584685,283.230974 C108.36413,287.030521 108.788856,287.071303 106.43217,283.258163 C102.489841,276.879138 99.1475731,265.166703 95.7018464,258.115904 C89.5171807,252.892377 80.7188161,248.035892 76,241.34307 C81.4027339,262.489801 91.5939826,283.328399 99.2477649,304.415087 C105.76241,322.369474 109.378027,322.634559 116.62233,304.569154 C125.928188,281.360655 138.373753,257.045371 143,234" id="Fill-223" fill="#D1D1BE"></path>
                <path d="M74.6705281,232 C49.9484732,240.774889 30.350245,258.593262 20.9985791,280.884541 C17.1297898,290.1045 15.1413739,300.090292 15.1413739,310.517825 C15.1413739,314.144986 14.9187412,355.875096 15.0322403,359.881843 C15.365098,371.582435 18.4513988,383 38.506897,383 L180.621881,383 C200.677379,383 203.635993,371.582435 203.96776,359.881843 C204.081259,355.875096 203.858626,314.144986 203.858626,310.517825 C203.858626,300.587528 202.195429,291.057906 198.672593,282.208653 C189.550108,259.300269 169.668132,240.948033 144.45825,232 C140.275155,255.326818 127.211853,280.085411 117.536059,303.676386 C110.276486,321.376 106.653248,321.116282 100.12487,303.525439 C91.2577578,279.639231 78.9889481,256.078223 74.6705281,232" id="Fill-224" fill="#875C39"></path>
                <path d="M73.3507078,232 C69.0706299,233.505565 64.9457141,235.279861 61,237.297558 L98.6443632,312.715624 C105.32618,326.101595 113.544324,318.601309 118.091019,309.652732 L155,237.006798 C151.229117,235.109149 147.296515,233.432875 143.225141,232 C139.036849,255.147357 125.957315,279.715471 116.2695,303.12495 C109.000907,320.688395 105.373166,320.430674 98.8366772,302.975166 C89.9585472,279.272722 77.6744937,255.892979 73.3507078,232" id="Fill-225" fill="#B4894C"></path>
                <path d="M202.859192,310.052926 C210.125718,289.604734 197.831304,271.309043 181.963402,257.001117 C177.307341,271.316861 174.706747,287.269043 174.706747,304.090266 C174.706747,306.456117 174.661777,346.704627 174.626678,383 L179.080922,383 C199.296674,383 202.859192,371.53601 202.859192,359.745852 L202.859192,310.052926 Z M32.8093004,257.760691 C13.3339114,265.47149 5.44438271,281.63367 12.602323,308.990639 C12.5946451,309.343617 12.589161,309.697713 12.5869673,310.052926 L12.5869673,359.733565 C12.5606433,371.51367 16.1505817,383 36.3071047,383 L40.8172872,383 C40.7832852,346.704627 40.7394119,306.456117 40.7394119,304.090266 C40.7394119,287.269043 38.1366243,271.316861 33.4816597,257 C33.2557118,257.252447 33.0330545,257.50601 32.8093004,257.760691 L32.8093004,257.760691 Z" id="Fill-226" fill="#D1D1BE"></path>
                <path d="M94,257.699385 C82.0179541,248.434304 77.6129042,241.1595 72.288289,231.115519 C70.6707406,228.065286 65.891217,232.014247 65.3328305,234.10039 C62.5730267,244.415623 58.4383069,254.576165 56.5393492,265.255247 C53.9257899,279.946476 50.1721909,288.655979 63.7429798,275.636933 C70.577676,269.080022 84.7445204,261.996946 94,257.699385" id="Fill-227" fill="#E6E6C9"></path>
                <polyline id="Fill-228" fill="#452A21" points="172 291.571429 153.51444 283 57 383 85.885931 383 172 291.571429"></polyline>
                <path d="M149.118306,262.413026 C156.013629,241.410424 152.975531,219.132367 171.986062,231.598571 C188.975569,242.7398 201.328094,254.038397 209.458122,268.360004 C224.796251,295.383317 212.919455,288.036532 176.391194,299.442976 C150.008519,307.682246 142.869317,281.446877 149.118306,262.413026" id="Fill-229" fill="#542D20"></path>
                <path d="M127.093806,302.583172 L138.054995,290.386337 C139.614952,288.651903 142.288522,288.527772 143.996512,290.11074 L162.635244,307.383325 C164.343234,308.966294 164.464352,311.682396 162.906638,313.41569 L151.945449,325.613663 C150.386614,327.348097 147.713044,327.472228 146.003932,325.88926 L127.3652,308.616675 C125.657211,307.032566 125.534971,304.318744 127.093806,302.583172 Z M132.762807,302.488649 L138.48003,296.127162 C139.454583,295.042999 141.307241,295.134106 142.595803,296.328735 L156.664569,309.366022 C157.954253,310.560651 158.21219,312.427188 157.237637,313.511351 L151.520414,319.872838 C150.546983,320.955861 148.694325,320.865894 147.404641,319.671265 L133.335875,306.632838 C132.046191,305.438209 131.788255,303.57395 132.762807,302.488649 L132.762807,302.488649 Z" id="Fill-230" fill="#E8B003"></path>
                <path d="M35.5742431,127.354465 C41.2051866,118.577383 40.7111864,103.797924 46.1781967,99.6686905 C69.932021,95.9541314 104.406423,104.320916 134.773691,75.5322618 C144.541474,96.7758202 150.888663,91.4890014 169.715687,101.432422 C174.986858,104.216974 177.504169,116.780828 182.573999,128 C188.781459,93.4638996 181.974377,69.5408255 174.534666,55.3598529 C170.365919,22.0940334 101.888011,-2.39470402 57.9615897,38.1306443 C45.0746726,40.6547939 41.3394139,51.2568789 38.0915543,64.7047867 C33.5828386,83.3815248 32.8885976,107.930439 35.5742431,127.354465" id="Fill-231" fill="#B35A03"></path>
                <path d="M36.3314204,2.45434792 C83.7757604,-1.07589053 134.673487,-0.549785878 180.66858,2.45434792 C183.04591,2.61010975 185,4.47707324 185,6.94856693 C185,28.8009716 182.823954,50.6533764 182.823954,72.5068702 C182.823954,74.9772747 180.875304,77 178.492533,77 C131.830482,77 85.1695181,77 38.5074668,77 C36.124696,77 34.1760465,74.9772747 34.1760465,72.5068702 C34.1760465,50.6533764 32,28.8009716 32,6.94856693 C32,4.47707324 33.9562658,2.63189463 36.3314204,2.45434792" id="Fill-232" fill="#74503B"></path>
                <path d="M46,1.75361642 C50.7150013,1.46152867 55.458492,1.20649682 60.2217061,0.987430998 L62.4701799,77 L48.225463,77 L46,1.75361642 Z M82.5004433,0.226694976 C87.2439341,0.118796886 91.9939992,0.0435951876 96.7440644,0 L97.3028956,77 L83.0581788,77 L82.5004433,0.226694976 Z M121.258127,0.0523142252 C126.021341,0.114437367 130.771406,0.207077141 135.500652,0.326963908 L134.944013,77 L120.699296,77 L121.258127,0.0523142252 Z M157.777198,1.10622789 C162.555753,1.31875443 167.300339,1.55852796 172,1.8244586 L169.776728,77 L155.532011,77 L157.777198,1.10622789 L157.777198,1.10622789 Z" id="Fill-233" fill="#5E4130"></path>
                <path d="M182,48.0008203 C181.575597,56.8305584 181.221198,65.6602966 181.221198,74.4911277 C181.221198,76.9701877 179.262162,79 176.866691,79 C129.955929,79 83.0462591,79 36.1354964,79 C33.7400252,79 31.7809892,76.9701877 31.7809892,74.4911277 C31.7809892,65.6417145 31.425497,56.7933944 31,47.9439811 C80.8411132,45.149027 133.498819,45.5458076 182,48.0008203" id="Fill-234" fill="#AA8842"></path>
                <path d="M15.4995068,71.6971635 C43.5486906,68.8703895 75.3739174,75.4709013 107.519428,76.7219362 C139.636225,77.971885 169.572878,70.1702928 200.625004,74.7509048 C209.274892,76.0280028 212.580448,80.8594734 211.917791,83.8730338 C211.432947,86.0873221 210.701815,84.981807 204.80085,83.2355708 C175.672639,74.6129868 143.025717,87.6956402 111.665455,87.9953674 C80.6431482,88.2929225 53.2963811,74.140591 17.1550458,78.8916998 C5.23604788,80.4576652 0.288205854,81.0907845 0.0109941694,78.1586715 C-0.28388838,75.0310843 5.36526608,72.7179732 15.4995068,71.6971635" id="Fill-235" fill="#74503B"></path>
                <path d="M77.1484676,94 C86.7242416,94 94.9972869,99.5409071 98.9021643,107.572701 C105.271306,105.945731 112.16882,106.003837 117.98091,107.821571 C121.833943,99.656023 130.177585,94 139.852635,94 C153.188785,94 164,104.745238 164,118 C164,131.254762 153.188785,142 139.852635,142 C126.516487,142 115.705271,131.254762 115.705271,118 C115.705271,116.565986 115.832124,115.160477 116.0748,113.795532 C111.166127,112.31328 105.842698,112.337399 100.879974,113.557627 C101.151329,114.997122 101.294729,116.482664 101.294729,118 C101.294729,131.254762 90.4835133,142 77.1484676,142 C63.8112155,142 53,131.254762 53,118 C53,104.745238 63.8112155,94 77.1484676,94" id="Fill-236" fill="#AA8842"></path>
                <path d="M78.0005554,100 C88.4922389,100 97,108.505788 97,118.998889 C97,129.493101 88.4922389,138 78.0005554,138 C67.5066502,138 59,129.493101 59,118.998889 C59,108.505788 67.5066502,100 78.0005554,100" id="Fill-237" fill="#3F3F3F"></path>
                <path d="M141,100 C151.493101,100 160,108.505788 160,118.998889 C160,129.493101 151.493101,138 141,138 C130.506899,138 122,129.493101 122,118.998889 C122,108.505788 130.506899,100 141,100" id="Fill-238" fill="#3F3F3F"></path>
                <path d="M144.712234,109.155566 C140.50479,111.583709 134.852442,113.692731 128.354217,115.545588 C125.691514,116.304315 124.072169,116.794936 123.636613,116.129558 C123.269079,115.56404 123.748519,114.169242 125.161606,111.403525 C127.709112,106.41807 132.934681,103 138.966631,103 C140.893169,103 142.733035,103.361454 144.437955,103.985585 C147.952021,105.276181 147.664576,107.451415 144.712234,109.155566 Z M77.191255,103.90092 C86.13276,103.90092 92.9151383,110.900963 93.3814131,119.507466 C93.4845419,121.403741 91.2277719,121.332101 87.9276436,122.084316 C80.6680194,123.741792 71.3491062,125.733586 64.78286,125.99735 C61.6977665,126.12109 61,121.882423 61,119.507466 C61,110.889023 68.2497503,103.90092 77.191255,103.90092 L77.191255,103.90092 Z" id="Fill-239" fill="#525252"></path>
                <path d="M175.459104,238.033133 C187.450169,246.155333 196.170553,254.394565 201.90872,264.836277 C212.736281,284.539324 210.384608,277.510563 184.599851,285.82782 C173.504203,289.406849 169.526841,284.311943 167.432533,277.01233 C167.281331,276.484002 163.766154,261.717585 162.564045,251.985883 C161.897041,246.587803 161.091703,238.063229 164.881403,235.56649 C166.927455,234.218923 171.523564,235.368089 175.459104,238.033133" id="Fill-240" fill="#633528"></path>
                <path d="M122,257.699385 C133.981851,248.434304 138.387937,241.1595 143.712465,231.115519 C145.329988,228.065286 150.108325,232.014247 150.666703,234.10039 C153.427569,244.415623 157.562222,254.576165 159.461149,265.255247 C162.073558,279.946476 165.828204,288.655979 152.257636,275.636933 C145.423051,269.080022 131.256437,261.996946 122,257.699385" id="Fill-241" fill="#E6E6C9"></path>
            </g>
        </g>
    </g>
</svg>