<?xml version="1.0" encoding="UTF-8"?>
<svg width="512px" height="512px" viewBox="0 0 512 512" version="1.1" xmlns="http://www.w3.org/2000/svg" xmlns:xlink="http://www.w3.org/1999/xlink">
    <!-- Generator: Sketch 60.1 (88133) - https://sketch.com -->
    <title>avatar</title>
    <desc>Created with Sketch.</desc>
    <g id="avatars" stroke="none" stroke-width="1" fill="none" fill-rule="evenodd">
        <g id="avatar">
            <rect id="invisible" stroke="#FFFFFF" fill-opacity="0" fill="#000000" x="0.5" y="0.5" width="511" height="511"></rect>
            <g id="hippy" transform="translate(149.000000, 51.000000)" fill-rule="nonzero">
                <path d="M25,154 C76.3329242,154 127.667076,154 179,154 C179,188.477722 170.870518,226.107556 170.870518,260.585277 C126.184749,263.107976 89.627235,262.477301 44.940239,265 C38.2930836,227.99958 31.6471554,191.00042 25,154" id="Fill-85" fill="#3B2517"></path>
                <path d="M152,139 C150.585301,174.008231 149.171824,209.015223 147.757125,244.023453 C147.132168,259.512035 130.087431,276.260866 109.934995,275.99692 C90.2537185,275.737929 70.8092427,258.691694 70.217242,243.940429 C68.8123084,208.960699 67.4061541,173.97973 66,139 C94.6674804,139 123.33374,139 152,139" id="Fill-86" fill="#F49A6A"></path>
                <path d="M186.430895,34 C191.292585,50.8610386 194,69.5800807 194,89.2920437 C194,103.897911 192.565058,117.960153 189.886167,131.12132 C185.023238,155.007275 179.562519,180.771091 167.610453,196.641691 C138.269166,235.602666 78.7680413,233.685089 49.8843977,195.398057 C38.1853377,179.889873 32.4096012,156.028742 27.466057,132.805562 C24.5602055,119.160347 23,104.52221 23,89.2920437 C23,69.5800807 25.7086554,50.8610386 30.5691045,34 L186.430895,34" id="Fill-87" fill="#FAB385"></path>
                <path d="M189.224032,29.7166605 C190.343176,37.5853404 189.053085,58.2358211 194.13105,70.0816122 C202.42379,104.046985 204.544015,106.886008 204.402585,143.960668 C210.881326,170.807409 210.437358,219.204687 203.546624,253.975896 C199.602561,273.876329 193.543192,281.259028 185.461984,285.640298 C179.481324,288.883477 188.764075,269.165287 179.595698,267.784208 C169.950147,269.341333 171.407494,285.358874 167.108011,257.343052 C162.529356,227.49984 174.584143,214.889126 177.951416,191.366148 C180.30408,174.93329 182.168501,158.16694 182.773577,141.931201 C183.132687,132.2996 179.403845,107.799702 178.266252,98.5226685 C155.923943,96.9010784 146.516979,85.3515869 134.453583,74.5434648 C131.541347,76.1241434 128.099055,77.3614118 124.306261,78.1486516 C124.437853,78.6668664 124.02709,78.7896014 122.901796,78.4164372 C122.649681,78.4610681 122.396336,78.5019798 122.142991,78.5428915 C116.049187,83.9556307 58.8436763,98.9045109 40.7627257,94.7216015 C27.9761904,139.424431 39.9215226,188.483735 44.33415,232.261712 C45.941537,242.89503 50.0221106,253.5705 53.6021438,262.299565 C58.5866421,274.449093 52.1066714,273.601105 49.3297168,272.239863 C46.8343931,271.016231 47.1947331,262.971507 40.502002,261.943755 C22.9855429,254.173016 9.59147179,228.748268 17.1623011,158.157022 C14.7444567,138.753727 15.4282418,113.929016 22.6866944,85.0069371 C23.3729392,80.3020937 25.52883,82.28817 25.8092311,79.7776805 C26.6012411,72.6950007 21.947567,53.6561923 24.7011547,49.4931189 C18.82749,38.5585425 27.3366791,30.4121591 38.5564118,19.4726236 C50.8768419,7.45946651 73.7479779,1.71199527 89.642292,0.328436617 C102.251732,-0.76874027 122.254906,0.985503001 125.256919,4.06503677 C147.995234,-2.85771547 185.390654,6.04243465 189.224032,29.7166605" id="Fill-88" fill="#50331F"></path>
                <path d="M24.0959908,83.9579607 C80.6858072,69.1495079 139.500339,70.0384869 194.462886,68.8900154 C195.420031,68.8689083 196.100011,67.8396295 195.987913,66.8227668 C194.636576,54.4912874 193.28524,42.1598082 191.932672,29.8283287 C191.821806,28.8102243 190.958281,28.2490253 190.002368,28.195637 C138.948472,25.371018 85.5060243,26.4673425 22.5377046,43.5752216 C21.6088919,43.828506 20.9005799,44.6256073 21.0114461,45.6424702 C22.3627822,57.9739494 20.8143506,69.9950311 22.1656866,82.3265103 C22.2765529,83.3433732 23.1671783,84.2025541 24.0959908,83.9579607" id="Fill-89" fill="#FFCF00"></path>
                <path d="M196,65 L192.345093,29.8646716 C192.239117,28.8333512 191.370368,28.2636094 190.414128,28.2107858 C164.532798,26.7606484 138.036567,26.33177 110,28.515151 C119.063333,32.4303957 128.761284,33.4227273 131.174065,34.1534557 C132.630606,34.5936534 152.47875,36.6613252 139.02731,40.8016997 C127.35773,44.3937134 133.315747,47.6486615 147.633472,48.0964056 C157.706032,48.4108325 186.428973,50.4458039 175.644161,52.1235864 C162.134804,54.2239585 154.463935,59.3918804 174.99722,62.4971612 C182.04333,63.5636975 189.095601,64.7031809 196,65" id="Fill-90" fill="#FF8759"></path>
                <path d="M24.3858543,83.9589541 C60.8721487,74.764018 98.2714127,71.7685416 135,70.5162848 C123.782094,63.1870055 106.640505,63.468248 103.225925,62.84515 C101.715967,62.5699688 81.5007559,62.5917892 94.6732399,57.2627267 C106.100966,52.6355584 99.9025177,51.3239011 85.4199041,52.3421934 C71.6129625,53.3132078 56.4596726,56.2080671 50.1350818,56.2529203 C38.4001183,56.3365658 53.4347598,50.7189871 56.3535134,49.9855743 C69.7770329,46.6033895 77.9150725,40.2584591 57.0054558,42.4502119 C44.3450338,43.7776286 34.1624926,44.317081 21,46.7755294 C21.7206337,57.4724464 21.2035759,71.61701 22.4275291,82.3660541 C22.5399329,83.3588891 23.4429106,84.197768 24.3858543,83.9589541" id="Fill-91" fill="#A7879A"></path>
                <path d="M214.838396,330.25271 C214.838396,277.646787 166.781709,235 107.500066,235 C48.2184232,235 0.160497035,277.646787 0.160497035,330.25271 C0.160497035,334.344769 -0.0922503143,381.407826 0.0366012756,385.927991 C0.414483341,399.124224 4.0619745,412 26.8315372,412 L188.105409,412 C210.940636,412 214.589365,399.148007 214.96353,385.940509 C215.092383,381.421594 214.838396,334.354784 214.838396,330.25271" id="Fill-92" fill="#F49A6A"></path>
                <path d="M214.838396,330.543581 C214.838396,299.946283 198.463094,272.736766 173.043401,255.378756 C171.521961,273.80449 154.6932,233.704941 145.199068,246.611189 C143.35426,254.863603 131.472657,269.418837 121.543651,277.2958 C118.951751,281.947139 117.303938,292.739142 115.814711,303.746934 C112.221734,330.295361 109.543107,358.091129 96.7360026,303.98393 C95.4450088,298.531798 92.2670826,279.575943 90.8125464,276.694581 C81.9601944,269.457504 68.6129042,256.596161 67.9265217,247.591599 C66.8919921,246.026185 65.6827695,245.295242 64.3583237,245.175498 C55.4861485,244.370963 41.4338914,270.906916 40.0784717,256.69096 C15.734194,274.091379 0.160497035,300.707161 0.160497035,330.543581 C0.160497035,334.618648 -0.0922503143,381.517458 0.0366012756,386.019115 C0.414483341,399.16984 4.0619745,412 26.8315372,412 L188.105409,412 C210.940636,412 214.589365,399.193541 214.96353,386.034082 C215.092383,381.531178 214.838396,334.629874 214.838396,330.543581" id="Fill-93" fill="#E6E6C9"></path>
                <path d="M67.8854428,244 C28.2116557,257.79851 0.160496578,291.709451 0.160496578,331.357629 C0.160496578,335.391971 -0.0922500517,381.822089 0.0366011714,386.278759 C0.414482162,399.298062 4.06196294,412 26.8314608,412 L87.2317106,412 C84.6175174,356.182351 78.1675227,300.181938 67.8854428,244 Z M147.114078,244 C186.789104,257.79851 214.839024,291.709451 214.839024,331.357629 C214.839024,335.391971 215.093009,381.822089 214.962919,386.278759 C214.586277,399.298062 210.937558,412 188.169298,412 L127.76781,412 C130.383242,356.182351 136.831998,300.181938 147.114078,244 L147.114078,244 Z" id="Fill-94" fill="#826235"></path>
                <path d="M214.838396,331.527159 C214.838396,309.386776 206.049231,289.04306 191.361389,273.001232 C186.102014,288.794138 183.164445,306.392334 183.164445,324.949245 C183.164445,327.559216 183.113648,371.960745 183.074002,412 L188.105409,412 C210.940636,412 214.589365,399.348178 214.96353,386.347617 C215.092383,381.899087 214.838396,335.564111 214.838396,331.527159 Z M23.6387435,273 C8.94966221,289.041826 0.160497035,309.385543 0.160497035,331.527159 C0.160497035,335.55302 -0.0922503143,381.88553 0.0366012756,386.332831 C0.414483341,399.324763 4.0619745,412 26.8315372,412 L31.9261308,412 C31.8877232,371.960745 31.8369258,327.560448 31.8369258,324.949245 C31.8369258,306.392334 28.8981184,288.794138 23.6387435,273 L23.6387435,273 Z" id="Fill-95" fill="#E6E6C9"></path>
                <path d="M157.608291,336.069323 C168.063756,336.956574 175.819163,346.152836 174.930677,356.6083 C174.043427,367.062531 164.847165,374.819173 154.3917,373.930686 C143.93747,373.042202 136.180828,363.84594 137.069313,353.39171 C137.957799,342.936244 147.152825,335.180839 157.608291,336.069323 Z M158.88603,353.898357 L168.560517,362.959924 C169.803656,361.003772 170.605641,358.727568 170.815714,356.25859 C171.429869,349.023424 166.755124,342.560584 160.008068,340.679812 L158.88603,353.898357 Z M165.615786,366.524991 L158.385562,359.781642 L157.535383,369.789774 C160.289813,369.506794 163.494047,368.130195 165.615786,366.524991 Z M152.842101,359.31083 L144.652955,364.783854 C146.473177,366.723942 149.325229,368.576292 151.993158,369.318964 L152.842101,359.31083 Z M142.276657,360.72697 L153.341334,353.428781 L154.464607,340.210236 C147.497593,340.924486 141.799667,346.506253 141.185512,353.741419 C140.975439,356.210398 141.381992,358.589168 142.276657,360.72697 L142.276657,360.72697 Z" id="Fill-96" fill="#FFCF00"></path>
                <path d="M73.4251345,223.305533 C71.2895765,218.307557 70.349386,212.409995 70.0013048,210.936234 C69.9059232,210.529159 75.0478614,175.84235 82.8580085,173.779334 C96.6511866,170.137018 103.798617,168.207181 109.589646,168.012438 C116.038437,167.793824 120.651441,170.476247 135.771291,174.534433 C142.604086,176.367527 148.007394,211.695102 148,212.00292 C147.97271,213.09725 147.46855,215.839979 146.681961,219.306399 C143.463759,233.491203 131.082725,240.862527 123.25152,245.561479 C104.178905,257.003552 82.7700593,245.164456 73.4251345,223.305533 Z M92.2698242,207.989965 C99.8235558,208.913423 99.7343677,203.674217 102.144922,195.719922 C103.31056,191.876581 105.674043,192.102734 110.098761,191.847684 C114.52224,192.102734 117.659925,191.964529 118.825563,195.80787 C121.237356,203.760909 121.404584,208.565399 128.958315,207.641941 C137.142557,206.640587 137.882074,205.617874 136.948077,197.426118 L136.064868,189.669079 C135.638747,185.931276 136.785805,185.893584 132.798356,185.255331 C122.001648,185.682508 115.287771,179.891741 109.956308,178.916771 C105.254116,179.900535 100.11961,185.858405 88.1721293,183.936106 C84.1859195,184.574359 83.0004616,185.921225 82.6759163,189.669079 L81.7976618,197.360786 C81.0271762,206.254871 82.3005833,206.769997 92.2698242,207.989965 L92.2698242,207.989965 Z" id="Fill-97" fill="#50331F"></path>
            </g>
        </g>
    </g>
</svg>