<?xml version="1.0" encoding="UTF-8"?>
<svg width="512px" height="512px" viewBox="0 0 512 512" version="1.1" xmlns="http://www.w3.org/2000/svg" xmlns:xlink="http://www.w3.org/1999/xlink">
    <!-- Generator: Sketch 60.1 (88133) - https://sketch.com -->
    <title>avatar</title>
    <desc>Created with Sketch.</desc>
    <g id="avatars" stroke="none" stroke-width="1" fill="none" fill-rule="evenodd">
        <g id="avatar">
            <rect id="invisible" stroke="#FFFFFF" fill-opacity="0" fill="#000000" x="0.5" y="0.5" width="511" height="511"></rect>
            <g id="hipster" transform="translate(160.000000, 72.000000)" fill-rule="nonzero">
                <path d="M191.855121,304.490205 C191.855121,257.827674 148.939508,220 95.9997776,220 C43.060047,220 0.143327164,257.827674 0.143327164,304.490205 C0.143327164,308.118747 -0.0823814344,349.864761 0.0326856945,353.873033 C0.370142179,365.579194 3.62742705,377 23.9611165,377 L167.982011,377 C188.374341,377 191.632732,365.599179 191.967975,353.884136 C192.081936,349.876973 191.855121,308.127631 191.855121,304.490205" id="Fill-254" fill="#D4461A"></path>
                <path d="M182,264.809399 C177.367412,257.13372 171.431425,250.166428 164.453823,244.131811 L164.453823,377 L169.362556,377 C174.645739,377 178.773536,376.230545 182,374.889271 L182,264.809399 Z M144.136268,230.702426 C138.604556,227.969915 132.731529,225.709292 126.590091,223.980517 L126.590091,377 L144.136268,377 L144.136268,230.702426 Z M106.273641,220.357525 C103.384072,220.125466 100.459157,220 97.5000002,220 C94.5419477,220 91.6170328,220.125466 88.7274641,220.357525 L88.7274641,377 L106.273641,377 L106.273641,220.357525 Z M68.4099086,223.980517 C62.2684707,225.708183 56.396549,227.969915 50.8637321,230.702426 L50.8637321,377 L68.4099086,377 L68.4099086,223.980517 Z M30.5461765,244.130701 C23.5685752,250.165319 17.6347974,257.13372 13,264.808288 L13,374.894823 C16.2154183,376.232766 20.3266471,377 25.5811111,377 L30.5461765,377 L30.5461765,244.130701 L30.5461765,244.130701 Z" id="Fill-255" fill="#BA2C00"></path>
                <path d="M191.854953,305.187548 C191.854953,304.195786 191.828399,303.209582 191.790781,302.225602 L0.208668717,302.225602 C0.171050663,303.209582 0.143390329,304.195786 0.143390329,305.187548 C0.143390329,306.465052 0.115729994,312.468995 0.0847504202,319.887198 L191.9147,319.887198 C191.88372,312.470107 191.854953,306.468388 191.854953,305.187548 Z M188.134085,281.775508 C186.111561,275.564764 183.303484,269.648658 179.81275,264.112802 L12.1855934,264.112802 C8.69596564,269.648658 5.88788852,275.564764 3.86425849,281.775508 L188.134085,281.775508 Z M161.791489,243.662708 C152.642557,236.039924 141.796387,229.990398 129.805079,226 L62.1943711,226 C50.2030631,229.990398 39.3557864,236.039924 30.2079606,243.662708 L161.791489,243.662708 Z M0.0117271387,340.337292 C-0.00597547514,347.491989 -0.0070818885,353.268003 0.0327489925,354.637792 C0.0659413936,355.764088 0.125687715,356.88816 0.224158506,358 L191.778611,358 C191.877082,356.892606 191.935721,355.771871 191.967807,354.648912 C192.006532,353.279123 192.006532,347.49866 191.987723,340.337292 L0.0117271387,340.337292 L0.0117271387,340.337292 Z" id="Fill-256" fill="#BA2C00"></path>
                <path d="M181.667523,263.124951 L181.655372,263.104984 C181.496314,262.847642 181.33615,262.590301 181.173778,262.332958 L164.453823,262.332958 L164.453823,279.954248 L182,279.954248 L182,263.670693 L181.667523,263.124951 Z M164.453823,317.97657 L182,317.97657 L182,300.356389 L164.453823,300.356389 L164.453823,317.97657 Z M164.453823,356 L182,356 L182,338.379819 L164.453823,338.379819 L164.453823,356 Z M126.590091,317.97657 L144.136268,317.97657 L144.136268,300.356389 L126.590091,300.356389 L126.590091,317.97657 Z M88.7274641,317.97657 L106.273641,317.97657 L106.273641,300.356389 L88.7274641,300.356389 L88.7274641,317.97657 Z M50.8637321,317.97657 L68.4099086,317.97657 L68.4099086,300.356389 L50.8637321,300.356389 L50.8637321,317.97657 Z M13,317.97657 L30.5461765,317.97657 L30.5461765,300.356389 L13,300.356389 L13,317.97657 Z M126.590091,279.954248 L144.136268,279.954248 L144.136268,262.332958 L126.590091,262.332958 L126.590091,279.954248 Z M88.7274641,279.954248 L106.273641,279.954248 L106.273641,262.332958 L88.7274641,262.332958 L88.7274641,279.954248 Z M50.8637321,279.954248 L68.4099086,279.954248 L68.4099086,262.332958 L50.8637321,262.332958 L50.8637321,279.954248 Z M30.5461765,262.332958 L13.8251177,262.332958 C13.5456601,262.776652 13.2706209,263.221455 13,263.669584 L13,279.954248 L30.5461765,279.954248 L30.5461765,262.332958 Z M128.668902,241.930819 L144.136268,241.930819 L144.136268,229.596135 L143.617118,229.341013 L143.356438,229.21567 L143.095758,229.090326 L142.833974,228.964981 L142.572189,228.840747 L142.309301,228.717623 L142.299359,228.713186 L142.046412,228.594498 L141.782418,228.472483 L141.518425,228.351576 L141.254431,228.23067 L141.222399,228.216248 L140.989333,228.110873 L140.723131,227.992185 L140.536458,227.907882 L140.458033,227.872388 L140.19183,227.754807 L140.120033,227.72375 L139.924523,227.638338 L139.657216,227.521868 L139.471647,227.440895 L139.389908,227.406508 L139.121497,227.291147 L138.935928,227.212393 L138.85198,227.176896 L138.465379,227.013841 L138.398,226.986109 L138.314052,226.950615 L138.043431,226.838582 L137.858967,226.763152 L137.77281,226.727658 L137.389523,226.571256 L137.317726,226.542415 L137.230464,226.50692 L136.957634,226.397106 L136.775379,226.323897 L136.685908,226.28951 L136.413078,226.180805 L136.230823,226.109814 L136.139144,226.074318 L135.949157,226 L135.937007,226.281746 C135.697314,231.644891 133.018719,237.176641 128.668902,241.930819 Z M59.0298563,226.008874 L58.7735949,226.108705 L58.7691765,226.109814 L58.5869217,226.180805 C58.1318366,226.3605 57.6789608,226.542415 57.2271896,226.726549 L57.1410328,226.763152 L57.0891177,226.784229 L56.6870523,226.950615 L56.602,226.986109 L56.5511896,227.007183 L56.1480197,227.176896 L56.064072,227.212393 L55.8796078,227.291147 L55.6111962,227.405399 L55.528353,227.440895 L55.3427843,227.520759 L55.0754772,227.637228 L54.9948432,227.672725 L54.8092745,227.754807 L54.543072,227.872388 L54.4635424,227.907882 L54.2768694,227.991076 L54.0106667,228.110873 L53.7466732,228.23067 L53.4815752,228.350467 L53.2385687,228.4625 L53.2175818,228.472483 L52.9546929,228.594498 L52.6906995,228.717623 L52.4289151,228.840747 L52.1671308,228.963872 L52.1660262,228.964981 L51.9053465,229.089217 L51.6711765,229.202359 L51.6004838,229.235635 C51.3552679,229.355432 51.1078432,229.475229 50.8637321,229.596135 L50.8637321,241.930819 L67.5240394,241.930819 C62.4960131,237.087903 59.2728629,231.482943 59.0386929,226.206318 L59.0298563,226.008874 Z M13,356 L30.5461765,356 L30.5461765,338.379819 L13,338.379819 L13,356 Z M50.8637321,356 L68.4099086,356 L68.4099086,338.379819 L50.8637321,338.379819 L50.8637321,356 Z M88.7274641,356 L106.273641,356 L106.273641,338.379819 L88.7274641,338.379819 L88.7274641,356 Z M126.590091,356 L144.136268,356 L144.136268,338.379819 L126.590091,338.379819 L126.590091,356 Z" id="Fill-257" fill="#992F15"></path>
                <path d="M23.2573663,253.088343 C36.8902181,298.951478 41.7133016,328.083991 43.6310593,377 L57.8498314,377 C58.3662357,340.105091 47.6662951,272.289714 35.4723132,245.577616 C33.4729018,241.094598 31.0608085,243.381517 28.1014148,245.532753 C25.4399465,247.468429 22.0314577,248.825261 23.2573663,253.088343 Z M168.712338,253.088343 C155.078382,298.951478 150.256402,328.083991 148.337541,377 L134.119873,377 C133.603468,340.105091 144.302305,272.289714 156.496287,245.577616 C158.496802,241.094598 161.391093,243.381517 164.350487,245.532753 C167.011955,247.468429 169.938246,248.825261 168.712338,253.088343 L168.712338,253.088343 Z" id="Fill-258" fill="#3D3D3D"></path>
                <path d="M49.8209876,91.7799358 C50.9751932,97.1298848 51.6186107,103.066996 51.6186107,109.320443 C51.6186107,132.8358 42.5263643,151.896936 31.3087574,151.896936 C20.0933425,151.896936 11,132.8358 11,109.320443 C11,81.7471163 29.3806968,91.7799358 49.8209876,91.7799358 Z M97.9950964,208.937161 C120.242875,208.937161 138.277201,219.249686 138.277201,231.969691 C138.277201,244.688584 120.242875,255 97.9950964,255 C75.7484137,255 57.7129919,244.688584 57.7129919,231.969691 C57.7129919,219.249686 75.7484137,208.937161 97.9950964,208.937161 Z M143.179012,91.7799358 C142.024807,97.1298848 141.381389,103.066996 141.381389,109.320443 C141.381389,132.8358 150.473636,151.896936 161.691243,151.896936 C172.906658,151.896936 182,132.8358 182,109.320443 C182,81.7471163 163.619303,91.7799358 143.179012,91.7799358 L143.179012,91.7799358 Z" id="Fill-259" fill="#F49A6A"></path>
                <path d="M164.226375,40 C168.577122,55.0071943 171,71.6681073 171,89.2127714 C171,102.212747 169.716974,114.727763 167.318514,126.442985 C162.966657,147.703821 158.079836,170.632737 147.38388,184.7606 C121.126235,219.436774 67.878421,217.73003 42.0303233,183.652597 C31.5607837,169.849513 26.3920521,148.611876 21.9680529,127.942048 C19.3687036,115.797101 22.8271033,103.044577 22.8271033,89.4889435 C22.8271033,71.9442794 20.3953467,55.0071943 24.7460935,40 L164.226375,40" id="Fill-260" fill="#FAB385"></path>
                <path d="M93.9140789,111.089399 C93.1162129,110.497842 92.1447066,108.015898 91.1710025,107.61684 C89.5950522,106.972292 86.409083,107.142081 84.5462968,107.142081 C68.9406528,107.142081 53.3339099,107.142081 37.728266,107.142081 C33.6795904,107.142081 31.417871,108.347905 32.1300159,112.920306 C33.5499098,122.042397 34.9709024,131.164489 36.3907963,140.28658 C36.9853494,144.105206 38.7964832,144.960639 41.9264039,145.193152 C54.614232,146.138345 67.3020601,146.044259 79.9898882,146.989452 C82.413159,147.170056 84.6968581,145.015793 85.916736,141.726 C88.219118,135.517354 90.5215,130.346907 92.8227828,124.138261 C94.2646564,120.251504 94.1228868,118.935371 96.5,118.669332 C98.8738164,118.403294 98.7353438,120.251504 100.176118,124.138261 C102.4785,130.346907 104.780882,135.517354 107.083264,141.726 C108.303142,145.015793 110.586841,147.170056 113.010112,146.989452 C125.69794,146.044259 138.385768,146.138345 151.073596,145.193152 C154.203517,144.960639 156.014651,144.105206 156.609204,140.28658 C158.029098,131.164489 159.45009,122.042397 160.869984,112.920306 C161.582129,108.347905 159.32041,107.142081 155.271734,107.142081 C140.832118,107.142081 126.392501,107.147488 111.952884,107.142081 C111.438557,107.142081 108.395457,107.017713 105.719419,107.00041 C103.278564,106.984188 102.799405,107.452459 102.302662,107.91316 C101.469628,108.684239 100.672861,110.970439 98.9067861,111.597684 C97.9341808,111.943751 94.7328259,111.696097 93.9140789,111.089399" id="Fill-261" fill="#6E4229"></path>
                <path d="M52,232.778949 C52.4186575,229.745913 53.510953,226.761799 54.6255173,223.605895 C55.2735459,221.773104 55.4650594,221.799269 55.9906083,222.271404 C56.5016823,222.729885 57.3490184,223.596791 58.0271101,224.394302 C67.4057078,235.426314 83.7277855,247.469717 98,253.949899 C112.272214,247.469717 128.594292,235.426314 137.974003,224.394302 C138.652095,223.596791 139.499431,222.729885 140.010505,222.271404 C140.536054,221.799269 140.727568,221.773104 141.374483,223.605895 C142.49016,226.761799 143.582456,229.745913 144,232.778949 C135.208191,255.474381 125.286229,266.315264 115.853073,276.577073 C112.610704,280.104995 111.24784,279.987816 109.976279,274.847809 C107.809503,266.094556 103.720911,260.854436 98,256.722409 C92.2802026,260.854436 88.1904971,266.094556 86.0248348,274.847809 C84.7521604,279.987816 83.3904098,280.104995 80.1469272,276.577073 C70.714884,266.315264 60.7929224,255.474381 52,232.778949" id="Fill-262" fill="#D4461A"></path>
                <path d="M114.508429,260.842634 C110.546586,262.255274 106.385399,264.53844 102.37127,266.032058 C97.6196736,267.798982 97.4519188,267.409831 92.7079477,264.545188 C89.382266,262.537576 86.2842513,261.587194 82.9596589,259.579582 C77.9771276,256.5721 77.2527323,257.838526 76.7320394,263.556566 C76.2200609,269.172256 76.0435915,273.614872 75.2767132,279.113591 C74.3812954,285.523329 75.514184,284.989091 80.8180636,282.537217 C84.8311037,280.682566 87.6317352,280.09659 91.6077386,278.163209 C97.9018064,275.103991 97.3745775,275.894664 103.653395,279.64558 C106.784089,281.517103 109.916962,283.3875 113.048745,285.259021 C116.795992,287.498324 117.921255,288.35648 118.139119,282.971356 C118.3755,277.093607 118.756761,270.425187 118.994232,264.547438 C119.087913,262.210284 118.059599,259.576208 114.508429,260.842634" id="Fill-263" fill="#2A2A2A"></path>
                <path d="M58.7762547,109.178962 C67.1948007,109.178962 77.3008206,108.830413 82.8604051,109.106164 C86.5365293,109.289262 86.9019272,109.7073 88.2184668,110.818023 C88.8374288,111.339743 88.779851,112.776954 88.8108544,113.52148 C89.0112696,118.318436 66.2912713,124 49.7797156,124 C33.269267,124 33.032312,117.904811 33.032312,113.107855 C33.032312,111.134584 32.5262912,109.912458 35.5192322,109.401768 C39.8021385,108.671581 49.0799233,109.178962 58.7762547,109.178962 Z M115.782755,109.094031 C120.217357,109.094031 139.937771,108.913138 142.864276,109.055426 C144.79867,109.150284 144.995763,109.374193 145.686698,109.957681 C146.011127,110.230123 145.983445,110.9934 145.999739,111.381657 C146.100815,113.907531 116.834658,117.522069 108.137081,117.522069 C104.366839,117.522069 103.307186,117.145945 102.689331,116.125668 C102.081442,115.117524 101.194521,109.610236 103.531961,109.212052 C105.788569,108.827104 110.674936,109.094031 115.782755,109.094031 L115.782755,109.094031 Z" id="Fill-264" fill="#835B3E"></path>
                <path d="M16.8671913,61.3691529 C20.8232974,67.5611189 28.4825926,76.487229 37.9156195,81.3812574 C65.6878815,95.7901508 129.610692,70.2673863 154.279476,53.8825943 C155.539643,56.6646859 155.697578,77.9591173 168.672545,109.04272 C168.294827,112.712405 168.256171,121.744446 165.767867,132.730084 C161.490369,151.608166 149.688317,186.284514 134.455873,198.135444 C129.669227,201.859767 105.756985,204.414385 103.173699,195.255226 C101.935621,190.868554 89.8817565,190.868554 88.6436785,195.255226 C86.060392,204.414385 62.1481497,201.859767 57.3615042,198.135444 C42.1290602,186.284514 30.325904,151.608166 26.0495102,132.730084 C23.0377007,119.434027 23.6153231,108.998117 22.8344835,107.469361 C21.1568384,104.182144 21.4947972,121.48575 23.5612055,135.453077 C26.5454038,155.621291 33.9473644,184.433503 43.7481699,207.105042 C47.5341922,215.862777 52.8531779,223.231139 56.6679156,229.535727 C58.7729793,233.01362 68.2512881,235.310658 79.9572537,236.324252 C85.2000329,236.77697 90.7056691,237 95.9959394,237 C114.081153,236.992177 132.143174,234.503348 135.149461,229.535727 C138.963094,223.231139 144.283185,215.862777 148.069207,207.105042 C157.870012,184.433503 165.271973,155.621291 168.256171,135.453077 C170.17348,122.496001 171.84229,104.961576 172.577847,91.9197539 C173.970547,67.24444 171.943898,48.1176987 166.102512,36.7741239 C162.034858,3.82835941 92.4871318,-17.2285626 48.1891254,18.9442053 C43.5294908,22.7499285 42.6050741,22.9640213 36.1352612,22.5224548 C27.9811766,21.9660365 22.6080734,18.5037539 18.6453406,19.4281443 C16.0278165,20.0380859 14.1182388,21.9102832 12.8183122,25.0425058 C7.66278375,37.4699257 9.91252917,50.4805254 16.8671913,61.3691529" id="Fill-265" fill="#412319"></path>
                <path d="M17.9397077,47.880868 C20.6157136,60.5214046 34.2225047,73.6860769 48.6780004,77.141653 C68.0088684,81.7614888 82.3322698,77.0869414 101.10394,70.5762773 C109.305881,67.7312813 129.914759,56.0536664 143.978376,46.0141129 C154.735237,38.334812 162.300926,39.6850909 152.370753,30.4147805 C147.192665,25.5815697 133.078413,23.7126261 114.256107,25.9196865 C96.6039346,27.9888741 77.7111787,38.9804071 60.4046524,43.2030378 C50.9995537,45.4976368 38.6916878,40.0702596 31.0797664,39.375424 C18.1455543,38.1958448 15.1932516,34.9175339 17.9397077,47.880868" id="Fill-266" fill="#522D21"></path>
                <path d="M81,230 C70.39025,219.764707 60.60975,211.235293 50,201 C52.0404642,210.845216 56.0959287,223.99643 66.3170713,227.057921 C71.4874287,228.605726 75.8285358,228.451058 81,230" id="Fill-267" fill="#522D21"></path>
                <path d="M89.9983021,165.082295 C88.2119975,165.313338 86.5045833,165.871692 84.6822144,166.530844 C74.2731863,170.292087 69.9184348,171.841434 59,168.970385 C59.5003906,173.868722 68.6280129,178.024098 73.1890065,178.939209 C81.7024104,180.647114 89.9577298,180.503279 96.8730392,176.944765 C104.12645,180.676561 114.161312,180.141991 123.467001,177.364946 C127.78907,176.074956 132.564194,173.259403 134,168.670256 C128.546418,169.67031 126.567395,170.185626 122.399726,169.518546 C117.678698,168.763126 113.220262,168.03149 109.064991,166.530844 C106.969886,165.773159 105.025801,165.147984 102.941967,165.000751 C102.310843,164.955448 99.6330771,166.975941 96.7310365,166.991797 C93.719676,167.00652 90.4795338,165.020004 89.9983021,165.082295" id="Fill-268" fill="#412319"></path>
            </g>
        </g>
    </g>
</svg>