<?xml version="1.0" encoding="UTF-8"?>
<svg width="512px" height="512px" viewBox="0 0 512 512" version="1.1" xmlns="http://www.w3.org/2000/svg" xmlns:xlink="http://www.w3.org/1999/xlink">
    <!-- Generator: Sketch 60.1 (88133) - https://sketch.com -->
    <title>avatar</title>
    <desc>Created with Sketch.</desc>
    <g id="avatars" stroke="none" stroke-width="1" fill="none" fill-rule="evenodd">
        <g id="avatar">
            <rect id="invisible" stroke="#FFFFFF" fill-opacity="0" fill="#000000" x="0.5" y="0.5" width="511" height="511"></rect>
            <g id="mumma" transform="translate(162.000000, 72.000000)" fill-rule="nonzero">
                <path d="M32.4583467,75.0372768 C25.6687876,73.0241194 18.8792282,71.0120597 12.09077,69 C2.55984511,104.91521 -16.3148433,244.753906 48.4221232,242.983336 C60.3487154,238.043747 70.0734076,241.336806 82,236.397216 C72.5329301,191.119837 34.5710699,121.667006 32.4583467,75.0372768" id="Fill-162" fill="#2A2A2A"></path>
                <path d="M152.650849,75.5834615 C159.359015,73.5714521 166.611056,71.0120094 173.318134,69 C182.332334,117.484599 180.97482,153.369456 166.698077,199.459171 C161.086365,217.572741 142.551073,230.894349 134.159067,239.594041 C122.375451,234.657269 106.784704,246.724936 95,241.788162 C104.354666,196.536601 150.563453,122.186601 152.650849,75.5834615" id="Fill-163" fill="#2A2A2A"></path>
                <path d="M128.538012,134 C130.661815,145.890736 132.86948,159.33034 129.66635,172.990426 C126.903229,184.770373 125.057154,205.571483 124.880715,218.316728 C162.087557,229.503234 188.858359,260.668154 188.858359,297.364895 C188.858359,300.958442 189.080542,342.204161 188.968361,346.162985 C188.638355,357.736708 185.430869,369 165.357123,369 L23.5862287,369 C3.57020723,369 0.363810031,357.715867 0.0327146652,346.150919 C-0.0816439218,342.192094 0.140538493,300.949667 0.140538493,297.364895 C0.140538493,260.749325 26.793715,229.643642 63.8720391,218.393513 C63.6455001,205.653752 62.4921118,184.435808 59.3325474,172.990426 C55.5848527,159.420288 58.3359939,145.890736 60.4597963,134 L128.538012,134" id="Fill-164" fill="#F5A479"></path>
                <path d="M137.214454,222 C135.12362,222 133.428909,223.675865 133.428909,225.74345 C133.428909,227.809956 135.12362,229.486901 137.214454,229.486901 C139.305289,229.486901 141,227.809956 141,225.74345 C141,223.675865 139.305289,222 137.214454,222 Z M74.7032987,268.513099 C76.7941334,268.513099 78.4899357,270.190044 78.4899357,272.25655 C78.4899357,274.324135 76.7941334,276 74.7032987,276 C72.6135553,276 70.9188442,274.324135 70.9188442,272.25655 C70.9188442,270.190044 72.6135553,268.513099 74.7032987,268.513099 Z M66.9357824,257.479146 C69.0255258,257.479146 70.7202369,259.155014 70.7202369,261.222597 C70.7202369,263.290182 69.0255258,264.966047 66.9357824,264.966047 C64.8449478,264.966047 63.1502367,263.290182 63.1502367,261.222597 C63.1502367,259.155014 64.8449478,257.479146 66.9357824,257.479146 Z M60.3806446,245.056374 C62.470388,245.056374 64.1661904,246.732239 64.1661904,248.799824 C64.1661904,250.867409 62.470388,252.543274 60.3806446,252.543274 C58.28981,252.543274 56.5950989,250.867409 56.5950989,248.799824 C56.5950989,246.732239 58.28981,245.056374 60.3806446,245.056374 Z M55.656624,233.358765 C57.7474587,233.358765 59.4421698,235.034632 59.4421698,237.102215 C59.4421698,239.169801 57.7474587,240.845666 55.656624,240.845666 C53.5657894,240.845666 51.8710783,239.169801 51.8710783,237.102215 C51.8710783,235.034632 53.5657894,233.358765 55.656624,233.358765 Z M52.7855457,222 C54.8752892,222 56.5710915,223.675865 56.5710915,225.74345 C56.5710915,227.809956 54.8752892,229.486901 52.7855457,229.486901 C50.6947111,229.486901 49,227.809956 49,225.74345 C49,223.675865 50.6947111,222 52.7855457,222 Z M115.296701,268.513099 C113.205867,268.513099 111.511156,270.190044 111.511156,272.25655 C111.511156,274.324135 113.205867,276 115.296701,276 C117.387536,276 119.082247,274.324135 119.082247,272.25655 C119.082247,270.190044 117.387536,268.513099 115.296701,268.513099 Z M123.065309,257.479146 C120.974474,257.479146 119.279763,259.155014 119.279763,261.222597 C119.279763,263.290182 120.974474,264.966047 123.065309,264.966047 C125.156143,264.966047 126.849763,263.290182 126.849763,261.222597 C126.849763,259.155014 125.156143,257.479146 123.065309,257.479146 Z M129.619355,245.056374 C127.529612,245.056374 125.83381,246.732239 125.83381,248.799824 C125.83381,250.867409 127.529612,252.543274 129.619355,252.543274 C131.71019,252.543274 133.404901,250.867409 133.404901,248.799824 C133.404901,246.732239 131.71019,245.056374 129.619355,245.056374 Z M134.343376,233.358765 C132.252541,233.358765 130.55783,235.034632 130.55783,237.102215 C130.55783,239.169801 132.252541,240.845666 134.343376,240.845666 C136.434211,240.845666 138.128922,239.169801 138.128922,237.102215 C138.128922,235.034632 136.434211,233.358765 134.343376,233.358765 L134.343376,233.358765 Z" id="Fill-165" fill="#5F5F5F"></path>
                <path d="M166.126527,243 C180.411468,257.748139 187.265151,277.832099 188.886932,298.796148 C189.175176,302.523261 188.834722,343.991415 188.7216,347.982776 C188.39311,359.647283 185.189794,371 165.142146,371 L23.5555648,371 C3.56556566,371 0.363337045,359.626277 0.0326721375,347.970614 C-0.0815377799,343.979252 0.140355769,302.409381 0.140355769,298.796148 C0.140355769,278.621525 8.09480479,260.10647 21.3562081,245.613735 C30.563703,276.288624 58.9345348,298.664577 93.261686,298.664577 C127.587749,298.664577 157.524888,274.60584 166.126527,243" id="Fill-166" fill="#2A2A2A"></path>
                <path d="M38,276.004472 C51.6681953,290.017965 70.8599064,298.736019 92.1147617,298.736019 C114.849675,298.736019 135.221727,288.760202 149,273 C144.911857,299.407491 118.777605,337.777558 93.2318896,344 C70.2364943,338.883769 43.2990005,302.438511 38,276.004472" id="Fill-167" fill="#3F3F3F"></path>
                <path d="M33.9736321,151 C23.5666738,148.499865 13.7909735,133.473042 11.3319268,115.306692 C9.64490646,102.849363 14.5366057,99.4551612 22.641782,99 C23.7228387,117.996478 27.7325365,135.692495 33.9736321,151 Z M156.026368,151 C166.433326,148.499865 176.209026,133.473042 178.668073,115.306692 C180.355094,102.849363 175.463394,99.4551612 167.358218,99 C166.277161,117.996478 162.267464,135.692495 156.026368,151 L156.026368,151 Z" id="Fill-168" fill="#F49A6A"></path>
                <path d="M189,297.716372 C189,291.336267 188.321949,285.048944 186.825447,278.957007 C183.72252,266.323416 177.159681,254.587077 168.453852,245 C163.833745,258.990388 160.900602,275.452042 160.900602,291.889684 C160.900602,294.201584 160.855979,333.532288 160.821151,369 L165.241,369 C185.300649,369 188.505882,357.791972 188.834569,346.276128 C188.947759,342.335635 189,301.292288 189,297.716372 Z M20.7660377,245.87324 C7.86129849,260.083028 0.140439793,278.104507 0.140439793,297.716372 C0.140439793,301.283556 -0.0815865854,342.323628 0.0326916913,346.264119 C0.363554545,357.771233 3.56770002,369 23.5696652,369 L28.0450206,369 C28.0112811,333.532288 27.9666582,294.201584 27.9666582,291.889684 C27.9666582,275.452042 25.3850573,259.863628 20.7660377,245.87324 L20.7660377,245.87324 Z" id="Fill-169" fill="#4D4D4D"></path>
                <path d="M153.208837,44.058708 C155.049819,54.3394595 170,68.8980853 170,80.1078536 C170,145.770093 136.197544,199 94.5,199 C62.8473651,199 35.7440708,168.325958 24.5229479,124.825989 C20.9614514,111.02157 19,95.9253246 19,80.1078536 C19,62.6467377 25.9083393,46.0651641 30.2014101,31.1294344 C52.1935408,31.6824467 149.013236,20.6276979 153.208837,44.058708" id="Fill-170" fill="#FBBB91"></path>
                <path d="M16.3770221,97.5221453 C16.4414907,97.4017274 21.0438936,97.1827859 24.0793817,93.3994775 C30.8387513,84.9746104 24.5153643,80.9012046 36.4551691,66.4959518 C48.6987411,51.7250665 78.5050916,53.1602278 93.3263153,40.3247851 C102.196759,50.5865709 116.548126,48.3894936 128.779678,52.0589522 C142.303881,56.1159375 152.908421,69.5359539 156.278271,73.9826547 C163.942387,84.0900871 160.182447,90.3813696 168.673727,99 C173.735059,85.103786 174.895494,84.4327303 173.384306,69.5140597 C169.261593,28.8062752 141.183876,-7.96275253 91.9145621,1.5020865 C50.33231,-6.29222925 30.5666719,18.9966034 18.3733636,54.6501245 C16.8873076,58.9972069 13.8234096,65.4724005 13.0355814,70.0417086 C10.1115476,86.9943454 14.0725426,76.1370386 16.3770221,97.5221453" id="Fill-171" fill="#2A2A2A"></path>
                <path d="M120,44 C116.660057,23.5017143 109.205724,6.72451568 93.0639133,6 C92.8601672,13.9622578 93.1225835,24.9708711 94.1551817,32.9331289 C95.1451103,40.5617281 113.229443,42.0192335 120,44" id="Fill-172" fill="#3B3B3B"></path>
                <path d="M59.4913781,47.9678619 C62.1646615,48.2504565 72.7157419,46.6652773 80.5331386,43.3745955 C87.1056127,40.6082591 92.3157192,37.5913407 92.3548676,35.020392 C92.4588908,27.9963703 93.6199235,16.890181 92.5506101,10.0328459 C91.3828663,2.54740015 89.1413349,1.16423197 88.1469628,10.8464093 C87.0888348,21.1644245 82.8182926,31.2528316 70.0144954,38.9137953 C63.5102514,42.8049906 57.16372,47.1708568 59.4913781,47.9678619" id="Fill-173" fill="#1F1F1F"></path>
                <path d="M29.1376923,233 C32.1585438,227.997301 46.0116564,223.588236 43.7521403,212.686849 C38.2620059,186.198129 10.6707799,145.24843 7.17609003,130 C5.22749697,140.577989 5.66939101,168.133258 8.73283487,189.164086 C10.5099943,201.369032 13.5255219,209.173775 16.5485032,215.92858 C20.3402736,224.398947 25.4449487,231.868108 29.1376923,233" id="Fill-174" fill="#3B3B3B"></path>
                <path d="M32,71.822999 C24.6263307,84.838499 26.4246031,120.354385 27.2984796,136 C21.0448342,126.897276 17.2902822,84.3783662 19.7743273,72.9947454 C24.8595795,83.2197978 26.914748,61.5979466 32,71.822999" id="Fill-175" fill="#2A2A2A"></path>
                <path d="M94.4400249,266 C100.397724,266 105.570733,269.502066 107.812865,274.58379 C109.579844,278.589701 109.528445,284.921315 106.606705,287.791948 C105.367422,289.010481 100.880873,288.22768 100.117885,289.292679 C99.5296539,290.112242 100.294926,294.432789 99.5399336,295.085845 C96.5233919,297.699149 91.9603155,297.668874 88.9254986,294.796078 C87.993466,293.913805 89.2441716,290.466882 88.614821,289.357551 C88.155658,288.550962 83.472651,289.292679 82.4126923,288.086039 C79.6497182,284.940777 79.4372695,278.839464 80.878722,275.048714 C82.9221121,269.673979 88.2938637,266 94.4400249,266 Z M86.0585845,278.325885 C88.6433761,277.495509 91.3697999,278.585378 92.1499202,280.759707 C92.9288985,282.932954 91.4668865,285.368938 88.8832373,286.199315 C86.2995882,287.029689 83.572022,285.940903 82.7919017,283.766573 C82.0129234,281.592243 83.4760776,279.156259 86.0585845,278.325885 Z M102.941396,278.325885 C100.356604,277.495509 97.6301807,278.585378 96.8500602,280.759707 C96.0699396,282.932954 97.5330938,285.368938 100.116743,286.199315 C102.700392,287.029689 105.427958,285.940903 106.206937,283.766573 C106.987057,281.592243 105.523903,279.156259 102.941396,278.325885 L102.941396,278.325885 Z" id="Fill-176" fill="#333333"></path>
                <path d="M63.9359068,103 C77.3996512,103 86.7414186,110.958477 88.3897734,117.007454 C80.8915033,115.311604 69.3628315,110.165078 60.2587239,111.755215 C55.7530028,112.543051 49.2358964,115.309379 54.1068284,120.007462 C54.5527127,120.436988 55.0498355,120.822004 55.5872951,121.168073 C45.2316589,123.280097 36,118.202561 36,107.695858 C39.3010702,109.556397 44.6266081,106.018925 49.2718723,104.936207 C53.8081186,103.87797 56.7221743,103 63.9359068,103 Z M123.064093,103 C109.600349,103 100.259672,110.958477 98.6102272,117.007454 C106.108497,115.311604 117.638259,110.165078 126.742366,111.755215 C131.248087,112.543051 137.764104,115.309379 132.894262,120.007462 C132.324097,120.557167 131.669988,121.034542 130.954828,121.446264 C141.536132,123.936626 151,117.794177 151,107.695858 C147.70002,109.556397 142.374482,106.018925 137.729218,104.936207 C133.192972,103.87797 130.278916,103 123.064093,103 L123.064093,103 Z" id="Fill-177" fill="#4D4D4D"></path>
            </g>
        </g>
    </g>
</svg>