<?xml version="1.0" encoding="UTF-8"?>
<svg width="512px" height="512px" viewBox="0 0 512 512" version="1.1" xmlns="http://www.w3.org/2000/svg" xmlns:xlink="http://www.w3.org/1999/xlink">
    <!-- Generator: Sketch 60.1 (88133) - https://sketch.com -->
    <title>avatar</title>
    <desc>Created with Sketch.</desc>
    <g id="avatars" stroke="none" stroke-width="1" fill="none" fill-rule="evenodd">
        <g id="avatar">
            <rect id="invisible" stroke="#FFFFFF" fill-opacity="0" fill="#000000" x="0.5" y="0.5" width="511" height="511"></rect>
            <g id="punk" transform="translate(151.000000, 37.000000)" fill-rule="nonzero">
                <path d="M56.1332129,121.926734 C57.4180994,127.716445 58.1317899,134.144116 58.1317899,140.911794 C58.1317899,166.366574 48.0292938,187 35.5665038,187 C23.1037139,187 13,166.366574 13,140.911794 C13,111.066973 33.4229966,121.926734 56.1332129,121.926734 Z M159.865569,121.926734 C158.583119,127.716445 157.86821,134.144116 157.86821,140.911794 C157.86821,166.366574 167.970706,187 180.434714,187 C192.897504,187 203,166.366574 203,140.911794 C203,111.066973 182.577003,121.926734 159.865569,121.926734 L159.865569,121.926734 Z" id="Fill-41" fill="#F49A6A"></path>
                <path d="M25.5777287,176 L28.339581,176 C29.7573319,176 30.9173099,176.933047 30.9173099,178.075315 L30.9173099,196.923385 C30.9173099,198.065653 29.7573319,199 28.339581,199 L25.5777287,199 C24.159978,199 23,198.065653 23,196.923385 L23,178.075315 C23,176.933047 24.159978,176 25.5777287,176 Z M184.660419,176 L187.422271,176 C188.84125,176 190,176.933047 190,178.075315 L190,196.923385 C190,198.065653 188.84125,199 187.422271,199 L184.660419,199 C183.242668,199 182.08269,198.065653 182.08269,196.923385 L182.08269,178.075315 C182.08269,176.933047 183.242668,176 184.660419,176 L184.660419,176 Z" id="Fill-42" fill="#4D4D4D"></path>
                <path d="M210.840784,357.714559 C210.840784,305.405844 163.678313,263 105.499755,263 C47.3211972,263 0.157510581,305.405844 0.157510581,357.714559 C0.157510581,361.782254 -0.0905337636,408.580663 0.0359202163,413.074046 C0.40677083,426.196968 3.98639118,439 26.3322685,439 L184.605231,439 C207.015551,439 210.596388,426.220617 210.964806,413.087738 C211.090044,408.594353 210.840784,361.793458 210.840784,357.714559" id="Fill-43" fill="#336699"></path>
                <polyline id="Fill-44" fill="#E6E6C9" points="148.699549 439 46 333.981086 60.6502255 319 178 439 148.699549 439"></polyline>
                <polyline id="Fill-45" fill="#D0300E" points="156.538758 439 58 340.243176 64.230621 334 169 439 156.538758 439"></polyline>
                <polyline id="Fill-46" fill="#E6E6C9" points="64.3001842 439 167 333.981086 152.349908 319 35 439 64.3001842 439"></polyline>
                <polyline id="Fill-47" fill="#D0300E" points="54.4612418 439 153 340.243176 146.770609 334 42 439 54.4612418 439"></polyline>
                <polygon id="Fill-48" fill="#E6E6C9" points="34 399 184 399 184 365 34 365"></polygon>
                <polygon id="Fill-49" fill="#E6E6C9" points="90 439 126 439 126 298 90 298"></polygon>
                <polygon id="Fill-50" fill="#D0300E" points="94 439 115 439 115 298 94 298"></polygon>
                <path d="M151,166 C149.586522,201.008231 148.171824,236.016461 146.757125,271.023453 C146.132168,286.512035 129.088651,303.260866 108.934995,302.99692 C89.2537185,302.737929 69.8104633,285.691694 69.217242,270.940429 C67.8123084,235.959459 66.4061541,200.980969 65,166 C93.6674804,166 122.33374,166 151,166" id="Fill-51" fill="#F49A6A"></path>
                <path d="M107.499396,252 C85.2300744,251.993842 62.8605282,242.008401 48.3426903,222.629969 C23.4822069,189.44288 27.1966124,146.933009 27.1966124,110.249106 C27.1966124,64.2190191 67.1383892,43.3255891 107.499396,44.016576 C147.860404,43.3255891 187.803402,64.2190191 187.803402,110.249106 C187.803402,146.933009 191.517808,189.44288 166.656102,222.629969 C152.139487,242.008401 129.76994,251.993842 107.499396,252" id="Fill-52" fill="#FAB385"></path>
                <polygon id="Fill-53" fill="#D0300E" points="34 393 184 393 184 372 34 372"></polygon>
                <path d="M66.7420386,273 C27.7364827,286.635362 0.157793311,320.141136 0.157793311,359.317023 C0.157793311,363.304527 -0.0906962707,409.18035 0.0359846926,413.58515 C0.407500979,426.449366 3.9935467,439 26.3795346,439 L57.746472,439 C67.4801986,417.722736 86.4738166,402.554845 79.4929647,376.872779 C71.6411811,347.984116 68.5265348,301.573859 66.7420386,273" id="Fill-54" fill="#383838"></path>
                <path d="M144.334946,273 C183.296727,286.635362 210.842389,320.141136 210.842389,359.317023 C210.842389,363.304527 211.090592,409.18035 210.964056,413.58515 C210.594185,426.449366 207.012276,439 184.65211,439 L146.38627,439 C143.433385,423.985851 144.193811,421.356392 145.033321,403.826258 C145.75603,388.729138 148.185742,373.264746 147.800054,357.707623 C147.056662,327.681764 142.788544,297.797446 144.334946,273" id="Fill-55" fill="#383838"></path>
                <path d="M96.2548155,111.828959 C94.3454837,94.8572727 91.4876533,59.9732526 82.3110206,46.7041159 C81.1935435,37.7917292 80.3523522,29.1782981 80.0575652,21.4517279 C79.879953,16.7747575 79.9292896,11.9239174 83.0029682,8.28391102 C87.2903305,3.20416326 96.0636356,0.119539298 105.906314,0.00446005866 C115.112549,-0.104364875 126.87196,1.77693052 132.258298,5.79844961 C137.082197,9.39717757 136.065861,14.7133381 135.52069,21.8482509 C134.948384,29.3546696 134.112126,37.5478112 133.108123,45.9648568 C121.637332,60.429817 121.025557,94.5795813 118.784436,111.524999 C118.572288,117.20516 99.572711,117.664227 96.2548155,111.828959" id="Fill-56" fill="#335B60"></path>
                <path d="M210.841403,358.525927 C210.841403,336.385544 202.215757,316.041826 187.801177,300.001232 C182.639651,315.794138 179.756735,333.392334 179.756735,351.948013 C179.756735,354.559216 179.706883,398.960745 179.667974,439 L184.605773,439 C207.016159,439 210.597005,426.348178 210.96421,413.346385 C211.090663,408.897855 210.841403,362.564111 210.841403,358.525927 Z M23.2001689,300 C8.78315687,316.041826 0.157511043,336.385544 0.157511043,358.525927 C0.157511043,362.55302 -0.0905340293,408.884298 0.0359203216,413.332831 C0.406772024,426.324763 3.98640288,439 26.3323458,439 L31.3321563,439 C31.2944631,398.960745 31.2458268,354.559216 31.2458268,351.948013 C31.2458268,333.392334 28.3604791,315.792906 23.2001689,300 L23.2001689,300 Z" id="Fill-57" fill="#424242"></path>
                <path d="M210.111644,349 C201.084693,349.556471 194,354.931765 194,361.48 C194,368.243529 201.552188,373.752942 211,374 C210.970854,367.143529 210.946371,361.784706 210.946371,360.555294 C210.946371,356.64 210.661912,352.782352 210.111644,349" id="Fill-58" fill="#C24025"></path>
                <path d="M66.224291,263 C67.7071787,301.922123 73.8902909,340.685672 80.3658882,379.30056 C80.8978983,382.47449 81.5189779,384.73043 80.2720042,387 C72.3833303,370.582789 46.1788265,343.417331 32.4344312,326.702797 C27.3490411,320.51723 23.2109178,316.853957 32.6510869,313.206787 C39.0809459,310.721659 49.4503272,307.742231 51.2618094,307.200853 C58.1261832,305.150559 58.6618043,302.182281 51.8985362,298.308403 C46.8673101,295.424365 39.5696249,291.803214 34.1580475,288.38647 C28.7705431,284.984595 30.1920451,280.186537 33.8318603,278.359237 C44.9571293,272.77327 51.6012365,267.778237 66.224291,263" id="Fill-59" fill="#4D4D4D"></path>
                <path d="M48.4993246,323 C52.0893507,323 55,325.91065 55,329.500676 C55,333.08935 52.0893507,336 48.4993246,336 C44.9092986,336 42,333.08935 42,329.500676 C42,325.91065 44.9092986,323 48.4993246,323" id="Fill-60" fill="#B3B3B3"></path>
                <path d="M60.5,336 C65.1941069,336 69,339.805894 69,344.5 C69,349.194106 65.1941069,353 60.5,353 C55.8046021,353 52,349.194106 52,344.5 C52,339.805894 55.8046021,336 60.5,336" id="Fill-61" fill="#B3B3B3"></path>
                <path d="M146.249527,262 C144.723142,300.895271 150.803923,345.203048 148.231475,383.605597 C148.017311,386.814477 145.745684,400.730759 147.028194,403 C155.141678,386.839237 172.252539,339.85987 180.815397,321.759171 C183.064741,317.005276 185.661947,311.054243 181.178114,309.594649 C176.564297,308.091726 164.81621,305.020264 162.379936,304.31337 C155.319942,302.26573 154.387771,301.739583 160.983535,297.284044 L179.228353,284.954869 C187.579522,279.310858 183.762941,274.981596 176.997578,272.249347 C165.831324,267.740575 159.683694,266.264886 146.249527,262" id="Fill-62" fill="#4D4D4D"></path>
                <path d="M159.500643,317 C164.746902,317 169,321.253386 169,326.5 C169,331.746614 164.746902,336 159.500643,336 C154.254384,336 150,331.746614 150,326.5 C150,321.253386 154.254384,317 159.500643,317" id="Fill-63" fill="#B3B3B3"></path>
                <path d="M162.499325,279 C166.089351,279 169,281.91065 169,285.500676 C169,289.090702 166.089351,292 162.499325,292 C158.910649,292 156,289.090702 156,285.500676 C156,281.91065 158.910649,279 162.499325,279" id="Fill-64" fill="#B3B3B3"></path>
                <path d="M100.579424,112.655934 L98.9558171,60.4907867 C98.4034805,42.7402063 97.1473024,20.9934869 96.0462082,12.8304228 C95.2886839,7.21058135 104.038984,8.32440148 108.072353,8.17712973 C112.257227,8.02738279 119.432831,6.88633594 118.97951,13.0989772 C118.281633,22.6902062 118.744498,39.3059276 117.95715,63.8545235 L116.390805,112.655934 C116.283439,116.023384 100.668896,115.52959 100.579424,112.655934" id="Fill-65" fill="#3D6E6E"></path>
            </g>
        </g>
    </g>
</svg>