<?xml version="1.0" encoding="UTF-8"?>
<svg width="512px" height="512px" viewBox="0 0 512 512" version="1.1" xmlns="http://www.w3.org/2000/svg" xmlns:xlink="http://www.w3.org/1999/xlink">
    <!-- Generator: Sketch 60.1 (88133) - https://sketch.com -->
    <title>avatar</title>
    <desc>Created with Sketch.</desc>
    <g id="avatars" stroke="none" stroke-width="1" fill="none" fill-rule="evenodd">
        <g id="avatar">
            <rect id="invisible" stroke="#FFFFFF" fill-opacity="0" fill="#000000" x="0.5" y="0.5" width="511" height="511"></rect>
            <g id="rasta" transform="translate(138.000000, 45.000000)" fill-rule="nonzero">
                <path d="M184.148507,42.7422708 C178.289857,77.6759283 177.296941,104.728836 176.41509,143.71031 C175.615426,179.018766 178.39759,224.140677 185.642324,245.611597 C188.252338,253.343676 175.77869,258.041141 174.093843,252.740251 C165.825095,226.721786 162.208836,182.36571 163.143999,143.306778 C164.049174,103.292111 165.140937,75.4821115 171.09066,40 L184.148507,42.7422708" id="Fill-66" fill="#2C1C1C"></path>
                <path d="M69.2253248,103.070521 C70.4814108,109.292298 71.1811426,116.199647 71.1811426,123.472375 C71.1811426,150.826766 61.2905372,173 49.0899585,173 C36.8906056,173 27,150.826766 27,123.472375 C27,91.4003294 46.993214,103.070521 69.2253248,103.070521 Z M170.774675,103.070521 C169.518589,109.292298 168.818857,116.199647 168.818857,123.472375 C168.818857,150.826766 178.709463,173 190.910041,173 C203.109394,173 213,150.826766 213,123.472375 C213,91.4003294 193.006786,103.070521 170.774675,103.070521 L170.774675,103.070521 Z" id="Fill-67" fill="#E4874C"></path>
                <path d="M174.012251,103.303296 C168.50362,137.834296 162.949855,180.294091 163.010845,218.656135 C163.070616,255.875132 168.323089,289.049228 184,306.437022 L173.193763,316.345864 C154.689348,295.823917 148.495187,259.177669 148.430537,218.656135 C148.367108,179.277642 154.008698,136.070567 159.602715,101 L174.012251,103.303296 Z M67.0977168,126.31413 C73.2052717,159.752479 79.4738406,200.834475 79.9629818,237.81749 C80.4692001,276.1021 74.6629366,310.196777 56.0633767,328 L46,317.341419 C61.145077,302.844421 65.8400998,272.573412 65.3826735,237.99079 C64.9081702,202.109031 58.7481638,161.825936 52.7455119,128.964027 L67.0977168,126.31413 L67.0977168,126.31413 Z" id="Fill-68" fill="#2C1C1C"></path>
                <path d="M69.5836765,120 C74.6283088,168.260016 67.3498035,290.458566 28.8919744,324 L19,312.948719 C52.1659599,284.022583 59.1023291,163.470675 54.7169954,121.504692 L69.5836765,120" id="Fill-69" fill="#2C1C1C"></path>
                <path d="M227.8399,341.25271 C227.8399,288.646787 180.230251,246 121.500066,246 C62.7686524,246 15.159004,288.646787 15.159004,341.25271 C15.159004,345.344769 14.9086078,392.407826 15.0362608,396.927991 C15.4106277,410.124224 19.0241887,423 41.5807142,423 L201.355591,423 C223.978397,423 227.591959,410.148007 227.96387,396.940509 C228.091524,392.421594 227.8399,345.354784 227.8399,341.25271" id="Fill-70" fill="#E4874C"></path>
                <path d="M163,149 C161.586522,184.008231 160.171824,219.015224 158.758346,254.023453 C158.132168,269.512035 141.088651,286.260866 120.934995,285.99692 C101.254939,285.737929 81.8104633,268.691694 81.2184626,253.940429 C79.8123084,218.960698 78.4061541,183.97973 77,149 C105.667481,149 134.33374,149 163,149" id="Fill-71" fill="#E4874C"></path>
                <path d="M195.60795,44 C200.357127,60.6844832 203,79.2075143 203,98.7130693 C203,113.165995 201.599835,127.080989 198.982398,140.104343 C194.233221,163.740183 188.900238,189.234221 177.227752,204.938636 C148.572811,243.491644 90.4635259,241.594145 62.2555231,203.708025 C50.8301252,188.362231 45.1907049,164.750954 40.3615878,141.770949 C37.5249206,128.268615 36,113.783757 36,98.7130693 C36,79.2075143 38.645295,60.6844832 43.3932608,44 L195.60795,44" id="Fill-72" fill="#E5915A"></path>
                <path d="M227.8399,341.9058 C227.8399,312.552244 212.771939,286.331736 189.141411,269 C177.846578,304.578677 151.815191,329.484122 121.500066,329.484122 C91.1849401,329.484122 65.1523263,304.578677 53.8574932,269 C30.2257368,286.330495 15.159004,312.552244 15.159004,341.9058 C15.159004,345.962747 14.9086078,392.653007 15.0362608,397.134645 C15.4106277,410.226894 19.0241887,423 41.5807142,423 L201.355591,423 C223.978397,423 227.591959,410.250488 227.96387,397.149547 C228.091524,392.666666 227.8399,345.973921 227.8399,341.9058" id="Fill-73" fill="#74503B"></path>
                <path d="M194,274.339423 C191.940191,272.479739 189.797023,270.697807 187.576536,269 C176.459607,305.519412 150.838239,331.083383 121.000604,331.083383 C91.1629695,331.083383 65.5403929,305.519412 54.4234636,269 C52.2041853,270.697807 50.0610173,272.479739 48,274.338148 C60.4893299,313.62733 88.4761567,341 121.000604,341 C153.525051,341 181.51067,313.62733 194,274.339423" id="Fill-74" fill="#634635"></path>
                <path d="M118.778248,240 C87.2527439,236.835947 65.0896487,220.014661 49.6045329,192.961766 C42.7917193,181.058844 44.1645785,163.255393 44.03097,162.860516 C43.73556,161.980215 46.9875202,178.687063 54.5235364,189.646805 C68.1430348,209.457342 79.6824062,219.424859 100.85263,222.04564 C107.58822,222.878154 109.652412,219.882617 111.802407,212.708166 C112.841858,209.242297 114.948952,209.447281 118.89347,209.215888 C122.836763,209.447281 124.715863,209.242297 125.755314,212.708166 C127.90531,219.882617 129.969501,222.878154 136.703866,222.04564 C157.875315,219.424859 168.953798,208.750586 182.574523,188.94005 C190.110539,177.97905 194.281824,159.150677 193.985189,160.02972 C193.852806,160.425856 194.766002,181.058844 187.953189,192.961766 C172.468073,220.014661 150.304978,236.835947 118.778248,240" id="Fill-75" fill="#413333"></path>
                <path d="M55.9609175,94.7957552 L55.968245,100.286362 C56.0952538,171.156001 57.4032006,269.495987 17.0241567,300.397964 C12.4970239,303.862984 4.71406827,291.373088 8.49990896,288.322339 C35.7909352,266.337652 40.4927052,198.756194 41.2462097,137.829006 C37.2649708,180.655741 34.1605813,229.461548 12.7437142,267.382599 C10.7811833,270.857509 -1.91481664,263.613371 0.246776259,259.654941 C21.1995726,221.282523 23.6469354,174.185728 27.1396788,131.021395 C28.9458912,108.710239 29.1070947,86.3125201 26.9748115,65.3158948 C64.5303511,61.4230049 21.7564575,94.7957552 55.9609175,94.7957552" id="Fill-76" fill="#413333"></path>
                <path d="M204.612755,63 C206.681911,89.3671768 209.724437,122.522115 214.837308,155.199808 C219.6899,186.220743 226.390587,216.671704 235.852132,240.0629 C237.472038,244.066318 225.300746,252.04472 222.858406,246.027227 C212.825199,221.319281 205.813127,189.639352 200.792959,157.548942 C199.898028,151.830655 199.066087,146.096295 198.291194,140.381717 C198.532457,157.499487 199.359644,174.743368 201.100777,191.126725 C204.893238,226.556615 213.339814,257.749407 228.315936,274.234147 C231.737591,277.998945 223.283884,290.246589 218.043844,284.482554 C200.505345,265.186272 191.074702,231.010078 186.979176,192.727845 C182.793326,153.353883 183.733419,109.527694 185.480495,73.8406361 L191.251787,74.1348962 C190.970115,70.7521429 190.705083,67.4547002 190.454312,64.2549323 L204.612755,63" id="Fill-77" fill="#413333"></path>
                <path d="M206.48705,99.7615076 C142.905427,81.8896797 78.1157719,113.069054 23.8140451,139 C-14.9028261,129.26509 11.5152855,62.9619914 32.2263529,38.35859 C62.8310945,2.00611632 124.971617,-8.740197 164.208309,7.11252927 C201.004529,21.9785509 215.267869,57.6530509 206.48705,99.7615076" id="Fill-78" fill="#BF4113"></path>
                <path d="M206.488038,100.269029 C142.905533,82.6283605 78.1149781,113.404453 23.8124977,139 C4.37386695,134.175389 1.35618118,115.277981 5.78936046,94.5814005 C75.0582442,44.748218 120.157576,24.5355611 201.474018,42.399298 C209.372717,58.6150121 211.071309,78.576565 206.488038,100.269029" id="Fill-79" fill="#FFCF00"></path>
                <path d="M210.495936,100.898996 C147.093105,82.6343229 82.485638,114.49906 28.3366077,141 C21.0941855,139.133399 16.1369228,135.233603 13,129.960676 C84.3278805,76.3138776 129.563815,54.5507472 212.955098,74.0270072 C213.208194,82.5762676 212.391717,91.5823972 210.495936,100.898996" id="Fill-80" fill="#769825"></path>
                <path d="M125.521975,410.856883 C132.739293,400.217343 142.335017,390.230457 151.220037,384.415651 C163.6549,376.278372 166.761164,379.099576 158.056271,391.514837 C153.757739,397.64612 147.557463,404.398041 140.331568,410.158664 C135.954614,413.648533 133.635024,414.527772 129.332817,417.057126 C126.293946,418.84393 126.684833,418.936286 129.849915,418.367365 C130.777506,418.202354 131.990603,417.788594 133.365447,417.580483 C139.16871,416.702475 144.827381,416.736955 149.446954,417.717172 C158.164102,419.566778 155.33109,421.03464 148.932307,423 C128.617212,423 109.518891,423 89.2368806,423 C80.1410998,420.205889 82.0134362,419.351278 90.2710769,418.004095 C94.3490451,417.337892 99.1401678,417.118698 104.019516,417.643286 C105.814655,417.83539 107.618372,418.587792 108.601103,418.768811 C110.86065,419.185034 111.287073,418.864863 109.102272,417.480737 C106.057274,415.552321 103.573488,414.501912 100.37042,412.13018 C91.8150193,405.789556 84.9285464,398.814745 80.1950153,391.791908 C71.4545863,378.823736 73.809711,376.440921 86.7579956,384.955018 C95.5621427,390.745195 104.395698,399.794961 112.005128,410.284269 C117.168758,417.401925 116.023054,413.100546 115.200844,408.524558 C112.110509,391.288253 111.424312,371.559538 114.011028,358.5692 C116.634505,345.390453 121.092332,346.019713 123.767272,359.248949 C126.466721,372.601327 125.903059,391.31042 122.791893,408.616916 C122.108148,412.41341 120.039755,418.936286 125.521975,410.856883" id="Fill-81" fill="#9EA32E"></path>
                <path d="M214.034399,221.720888 C218.329632,219.273726 222.931034,218.095283 227.565331,217.054066 C228.410462,216.863878 229.293547,217.178049 229.590859,217.955652 C231.026822,221.72811 232.464047,225.500566 233.901275,229.273024 C234.198589,230.05183 233.807653,231.040085 232.953667,231.200179 C227.849995,232.152322 223.456079,233.825492 219.423999,235.867001 C218.656043,236.255803 217.694519,235.743018 217.398471,234.965416 C215.961244,231.192957 214.524018,227.420499 213.086791,223.64684 C212.790741,222.869235 213.287952,222.145799 214.034399,221.720888" id="Fill-82" fill="#FFCF00"></path>
                <path d="M31.7978642,240.013608 C36.4948409,240.551762 40.7832815,241.886385 44.8852681,243.584419 C45.6465227,243.899714 46.1583804,244.667058 45.9552999,245.510378 C44.9743384,249.600349 43.9933768,253.689054 43.0112278,257.777759 C42.809335,258.621079 41.9696984,259.226345 41.2048811,258.918646 C37.1266466,257.276326 32.9949697,255.716312 28.1186649,255.347835 C27.303968,255.287056 26.8455526,254.265196 27.0474454,253.421876 C28.0295946,249.333171 29.010556,245.244466 29.9915175,241.154495 C30.194598,240.311175 30.9867303,239.919906 31.7978642,240.013608" id="Fill-83" fill="#769825"></path>
                <path d="M15.5617713,221.019049 C20.6922031,221.658416 25.359543,223.073533 29.8148494,224.845245 C30.639569,225.174313 31.1833115,225.943806 30.9426599,226.772105 C29.7771256,230.789737 28.6115914,234.807367 27.4460572,238.823748 C27.2054058,239.652047 26.2727181,240.231357 25.4427954,239.909796 C21.0122047,238.19439 16.5230768,236.55906 11.1897174,236.084851 C10.2999569,236.004775 9.82125537,234.98629 10.061907,234.156738 C11.2274411,230.139108 12.3929753,226.122729 13.5585095,222.106349 C13.799161,221.276798 14.6746125,220.908942 15.5617713,221.019049" id="Fill-84" fill="#BF4113"></path>
            </g>
        </g>
    </g>
</svg>