<?xml version="1.0" encoding="UTF-8"?>
<svg width="512px" height="512px" viewBox="0 0 512 512" version="1.1" xmlns="http://www.w3.org/2000/svg" xmlns:xlink="http://www.w3.org/1999/xlink">
    <!-- Generator: Sketch 60.1 (88133) - https://sketch.com -->
    <title>avatar</title>
    <desc>Created with Sketch.</desc>
    <g id="avatars" stroke="none" stroke-width="1" fill="none" fill-rule="evenodd">
        <g id="avatar">
            <rect id="invisible" stroke="#FFFFFF" fill-opacity="0" fill="#000000" x="0.5" y="0.5" width="511" height="511"></rect>
            <g id="rocker" transform="translate(150.000000, 53.000000)" fill-rule="nonzero">
                <path d="M111.499394,147 C154.302737,147 189,173.415767 189,206 C189,238.585481 154.302737,265 111.499394,265 C68.6984743,265 34,238.585481 34,206 C34,173.415767 68.6984743,147 111.499394,147" id="Fill-98" fill="#875E32"></path>
                <path d="M211.840652,324.25271 C211.840652,271.646787 164.454522,229 106.000065,229 C47.5443864,229 0.158257541,271.646787 0.158257541,324.25271 C0.158257541,328.343517 -0.0909631005,375.407826 0.0360905601,379.926739 C0.408699853,393.124224 4.00529579,406 26.4559219,406 L185.480682,406 C207.997278,406 211.593873,393.148007 211.96404,379.940509 C212.091093,375.421594 211.840652,328.354784 211.840652,324.25271" id="Fill-99" fill="#232323"></path>
                <path d="M142.338481,283.005874 C131.759367,292.925583 121.666061,295 109.225503,295 C96.7837231,295 79.3605938,286.207474 69.695725,274.565747 C68.1907007,264.217408 69.3026853,242.967135 68.7924662,230.155737 L65,135 C93.6674804,135 122.33374,135 151,135 L146.763228,240.764004 C144.361048,254.335187 144.309782,269.455935 142.338481,283.005874" id="Fill-100" fill="#F49A6A"></path>
                <path d="M69.2591646,255.355623 C69.2182438,245.766939 69.4836084,235.142876 69.1785632,227.487916 C69.1190421,225.991943 69.0595211,224.495973 69,223 C95.6307061,233.814392 123.365031,233.512406 149,223 C148.796636,228.086811 148.592033,233.173623 148.388669,238.259166 C147.411532,243.773579 146.818802,249.539223 146.327753,255.355623 C120.856468,264.242634 95.2276989,266.775255 69.2591646,255.355623" id="Fill-101" fill="#2A2A2A"></path>
                <path d="M61.9985607,406 L155.001439,406 C156.941317,400.058797 158,393.641763 158,386.947262 C157.83626,320.358823 59,320.343003 59,386.947262 C59,393.641763 60.0599332,400.058797 61.9985607,406" id="Fill-102" fill="#4D4D4D"></path>
                <path d="M189.817694,51.1857823 C190.760919,62.8768442 193,74.9111074 193,87.4984429 C193,161.229909 154.945488,221 108,221 C61.056978,221 23,161.229909 23,87.4984429 C23,67.8902976 25.6928153,49.2710161 30.5260738,32.4998359 C55.673813,8.97944408 185.526944,-2.01287008 189.817694,51.1857823" id="Fill-103" fill="#FAB385"></path>
                <path d="M128.760119,406 C128.763889,405.933203 128.770173,405.872711 128.781484,405.819778 C129.991763,399.673307 133.998377,404.39186 140.220693,397.369483 C146.500822,390.284089 145.536872,378.425948 143.272154,369.980695 C141.045141,361.681634 137.199395,354.844521 131.452141,350.528 C117.578549,340.110381 96.2987547,339.961665 83.2935979,353.507344 C75.212504,361.92235 69.4501688,389.938767 78.8797874,397.752613 C83.7749444,401.808251 87.2687922,401.668357 89.5209414,406 L128.760119,406" id="Fill-104" fill="#666666"></path>
                <path d="M104.307729,105.724881 C99.5095461,102.275616 98.0181038,102.388051 86.7756728,101.186242 C70.703404,99.4684806 59.5376759,99 42.3197359,99 C37.8527141,99 35.3580486,100.290508 36.1433388,105.185192 C38.2471855,118.2939 40.6980208,126.300545 45.7774471,131.390117 C51.0723714,136.697063 59.225995,141.338143 72.8194259,142.792307 C90.9638863,144.732441 98.1045467,132.77432 103.104835,119.693095 C104.694895,115.531739 104.537837,114.12255 107.16034,113.837714 C107.279656,113.825221 107.392884,113.816476 107.500024,113.812728 C107.608382,113.816476 107.720392,113.825221 107.839708,113.837714 C110.462211,114.12255 110.305153,115.531739 111.895213,119.693095 C116.895502,132.77432 124.036162,144.732441 142.180622,142.792307 C155.775271,141.338143 163.928894,136.697063 169.222601,131.390117 C174.302027,126.300545 176.752863,118.2939 178.85671,105.185192 C179.642,100.290508 177.146116,99 172.680312,99 C155.462372,99 144.296644,99.4684806 128.224375,101.186242 C116.981944,102.388051 115.490502,102.275616 110.692319,105.724881 C110.173663,106.097167 108.789361,106.343275 107.500024,106.415734 C106.210687,106.343275 104.826386,106.097167 104.307729,105.724881" id="Fill-105" fill="#272727"></path>
                <path d="M107.377023,349 C119.499683,349 130.023147,356.508758 134.584606,367.406679 C138.1803,375.996129 138.074103,389.571475 132.132088,395.72781 C129.608356,398.341666 120.482939,396.662665 118.92872,398.946206 C118.277797,399.901004 118.441465,403.077019 118.478946,406 L95.5254756,406 C95.754111,403.357476 96.2476129,400.424522 95.5254756,399.085809 C94.5921945,397.354457 85.0644804,398.946206 82.9080635,396.358526 C77.2883864,389.613855 76.8548542,376.532113 79.7871312,368.403858 C83.9437933,356.877715 94.8745527,349 107.377023,349 Z M90.3268371,375.430231 C95.5829469,373.650266 101.13141,375.986158 102.718113,380.647969 C104.304816,385.309781 101.328811,390.532507 96.0714515,392.312472 C90.8153417,394.093682 85.268128,391.75779 83.681425,387.095977 C82.0947221,382.434167 85.0707272,377.212688 90.3268371,375.430231 Z M124.673335,375.430231 C119.415975,373.650266 113.868762,375.986158 112.282059,380.647969 C110.695356,385.309781 113.670111,390.532507 118.927471,392.312472 C124.183581,394.093682 129.732044,391.75779 131.317497,387.095977 C132.90545,382.434167 129.929444,377.212688 124.673335,375.430231 Z M105.7291,389.879353 C106.355036,389.880601 106.594916,390.773077 106.707359,392.169127 C106.878523,394.295612 108.135392,394.234533 108.269074,392.265105 C108.367775,390.812964 108.621398,389.879353 109.269822,389.879353 C110.421743,389.879353 112.023439,393.57141 112.023439,397.130093 C112.023439,400.688776 111.759821,401.790658 110.6079,401.790658 C108.573921,401.790658 106.42625,401.790658 104.392272,401.790658 C103.24035,401.790658 102.975484,400.688776 102.975484,397.130093 C102.975484,393.57141 104.909512,389.878107 105.7291,389.879353 L105.7291,389.879353 Z" id="Fill-106" fill="#DADAC5"></path>
                <path d="M66.9383535,238 C27.8168449,251.799642 0.158257444,285.7091 0.158257444,325.356987 C0.158257444,329.392533 -0.0909630446,375.821076 0.0360905379,380.278948 C0.408699601,393.298154 4.00529331,406 26.4559057,406 L62.8030036,406 C66.4753409,354.301043 69.8605859,292.499637 66.9383535,238 Z M145.061647,238 C184.181933,251.799642 211.841743,285.7091 211.841743,325.356987 C211.841743,329.392533 212.090963,375.821076 211.96391,380.278948 C211.5913,393.298154 207.994707,406 185.542873,406 L146.142824,406 C141.390531,352.035061 134.921793,294.182759 145.061647,238 L145.061647,238 Z" id="Fill-107" fill="#333333"></path>
                <path d="M61,406 L64.6684324,406 C67.0534691,366.033834 69.2910815,319.931923 68.9689703,276 L66.9817765,277.409399 L61,406" id="Fill-108" fill="#B3B3B3"></path>
                <path d="M56,293 C57.656317,293 59,294.342612 59,296 C59,297.657388 57.656317,299 56,299 C54.3426124,299 53,297.657388 53,296 C53,294.342612 54.3426124,293 56,293" id="Fill-109" fill="#A4AEAE"></path>
                <path d="M41,293 C42.656317,293 44,294.342612 44,296 C44,297.657388 42.656317,299 41,299 C39.343683,299 38,297.657388 38,296 C38,294.342612 39.343683,293 41,293" id="Fill-110" fill="#A4AEAE"></path>
                <path d="M211.840652,324.368027 C211.840652,301.909078 203.174125,281.272644 188.690008,265.00125 C183.505242,281.021392 180.607441,298.8728 180.607441,317.695467 C180.607441,320.34424 180.557352,365.384641 180.519481,406 L185.480682,406 C207.997278,406 211.593873,393.166136 211.96404,379.977269 C212.091093,375.464729 211.840652,328.464313 211.840652,324.368027 Z M23.3089004,265 C8.8247832,281.272644 0.158257541,301.909078 0.158257541,324.368027 C0.158257541,328.453062 -0.0909631005,375.45098 0.0360905601,379.963519 C0.408699853,393.142387 4.00529579,406 26.4559219,406 L31.4806499,406 C31.4415565,365.384641 31.3926897,320.34424 31.3926897,317.695467 C31.3926897,298.8728 28.494889,281.020142 23.3089004,265 L23.3089004,265 Z" id="Fill-111" fill="#2A2A2A"></path>
                <path d="M149,406 L145.332577,406 C142.946531,366.033834 140.708918,319.931923 141.031029,276 L143.019233,277.409399 L149,406" id="Fill-112" fill="#B3B3B3"></path>
                <path d="M62.5203404,253.503574 C63.1672301,256.19462 65.2084459,262.731251 68.3714221,270.56366 C70.4913794,275.813106 73.1177034,281.638591 76.1680189,287.263875 C85.5769947,304.613824 91.4607843,313.617964 97.2803697,314.282436 C103.028482,314.938309 109.680302,307.411728 120.698022,291.711289 C125.77744,284.473342 129.736308,276.521793 133.675794,268.608322 C136.305753,263.323256 138.929654,258.055385 141.877,253 L145,254.870591 C142.096264,259.848599 139.507494,265.048916 136.911455,270.263973 C132.91261,278.295356 128.894383,286.368498 123.650214,293.841037 C111.800259,310.727942 104.359815,318.791259 96.8830292,317.93887 C89.4777158,317.093849 82.9967038,307.489105 72.9880831,289.033752 C69.8820431,283.305298 67.19636,277.344708 65.0218897,271.960156 C61.7813839,263.93737 59.674752,257.174747 59,254.367017 L62.5203404,253.503574" id="Fill-113" fill="#B3B3B3"></path>
                <path d="M99.0113376,311.137763 L109.703398,315.67133 C110.722127,316.103356 111.252188,317.428943 110.88195,318.614997 L102.511352,345.489029 C102.141114,346.675081 101.006254,347.293601 99.9875241,346.862918 L89.2954641,342.328009 C88.2778845,341.895986 87.7478234,340.571738 88.1180613,339.384344 L96.4886599,312.511653 C96.8577481,311.324258 97.993758,310.70574 99.0113376,311.137763" id="Fill-114" fill="#B3B3B3"></path>
                <path d="M56,307 C57.656317,307 59,308.342852 59,310.000536 C59,311.657148 57.656317,313 56,313 C54.3426124,313 53,311.657148 53,310.000536 C53,308.342852 54.3426124,307 56,307" id="Fill-115" fill="#A4AEAE"></path>
                <path d="M41,307 C42.656317,307 44,308.342852 44,310.000536 C44,311.657148 42.656317,313 41,313 C39.343683,313 38,311.657148 38,310.000536 C38,308.342852 39.343683,307 41,307" id="Fill-116" fill="#A4AEAE"></path>
                <path d="M56,324 C57.656317,324 59,325.343684 59,327 C59,328.657388 57.656317,330 56,330 C54.3426124,330 53,328.657388 53,327 C53,325.343684 54.3426124,324 56,324" id="Fill-117" fill="#A4AEAE"></path>
                <path d="M41,324 C42.656317,324 44,325.343684 44,327 C44,328.657388 42.656317,330 41,330 C39.343683,330 38,328.657388 38,327 C38,325.343684 39.343683,324 41,324" id="Fill-118" fill="#A4AEAE"></path>
                <path d="M56,341 C57.656317,341 59,342.343684 59,344 C59,345.657388 57.656317,347 56,347 C54.3426124,347 53,345.657388 53,344 C53,342.343684 54.3426124,341 56,341" id="Fill-119" fill="#A4AEAE"></path>
                <path d="M41,341 C42.656317,341 44,342.343684 44,344 C44,345.657388 42.656317,347 41,347 C39.343683,347 38,345.657388 38,344 C38,342.343684 39.343683,341 41,341" id="Fill-120" fill="#A4AEAE"></path>
                <path d="M171,293 C172.656317,293 174,294.342612 174,296 C174,297.657388 172.656317,299 171,299 C169.342612,299 168,297.657388 168,296 C168,294.342612 169.342612,293 171,293" id="Fill-121" fill="#A4AEAE"></path>
                <path d="M158,293 C159.656317,293 161,294.342612 161,296 C161,297.657388 159.656317,299 158,299 C156.343683,299 155,297.657388 155,296 C155,294.342612 156.343683,293 158,293" id="Fill-122" fill="#A4AEAE"></path>
                <path d="M171,307 C172.656317,307 174,308.342852 174,310.000536 C174,311.657148 172.656317,313 171,313 C169.342612,313 168,311.657148 168,310.000536 C168,308.342852 169.342612,307 171,307" id="Fill-123" fill="#A4AEAE"></path>
                <path d="M158,307 C159.656317,307 161,308.342852 161,310.000536 C161,311.657148 159.656317,313 158,313 C156.343683,313 155,311.657148 155,310.000536 C155,308.342852 156.343683,307 158,307" id="Fill-124" fill="#A4AEAE"></path>
                <path d="M171,324 C172.656317,324 174,325.343684 174,327 C174,328.657388 172.656317,330 171,330 C169.342612,330 168,328.657388 168,327 C168,325.343684 169.342612,324 171,324" id="Fill-125" fill="#A4AEAE"></path>
                <path d="M158,324 C159.656317,324 161,325.343684 161,327 C161,328.657388 159.656317,330 158,330 C156.343683,330 155,328.657388 155,327 C155,325.343684 156.343683,324 158,324" id="Fill-126" fill="#A4AEAE"></path>
                <path d="M171,341 C172.656317,341 174,342.343684 174,344 C174,345.657388 172.656317,347 171,347 C169.342612,347 168,345.657388 168,344 C168,342.343684 169.342612,341 171,341" id="Fill-127" fill="#A4AEAE"></path>
                <path d="M158,341 C159.656317,341 161,342.343684 161,344 C161,345.657388 159.656317,347 158,347 C156.343683,347 155,345.657388 155,344 C155,342.343684 156.343683,341 158,341" id="Fill-128" fill="#A4AEAE"></path>
                <path d="M76.9994646,234 C78.657148,234 80,235.342852 80,237.000536 C80,238.657148 78.657148,240 76.9994646,240 C75.342852,240 74,238.657148 74,237.000536 C74,235.342852 75.342852,234 76.9994646,234" id="Fill-129" fill="#A4AEAE"></path>
                <path d="M92.9994646,238 C94.657148,238 96,239.343684 96,241.00107 C96,242.657388 94.657148,244 92.9994646,244 C91.342852,244 90,242.657388 90,241.00107 C90,239.343684 91.342852,238 92.9994646,238" id="Fill-130" fill="#A4AEAE"></path>
                <path d="M108.000535,238 C109.657148,238 111,239.342852 111,240.999464 C111,242.657148 109.657148,244 108.000535,244 C106.342852,244 105,242.657148 105,240.999464 C105,239.342852 106.342852,238 108.000535,238" id="Fill-131" fill="#A4AEAE"></path>
                <path d="M121.000535,238 C122.657148,238 124,239.343684 124,241.00107 C124,242.657388 122.657148,244 121.000535,244 C119.342852,244 118,242.657388 118,241.00107 C118,239.343684 119.342852,238 121.000535,238" id="Fill-132" fill="#A4AEAE"></path>
                <path d="M137,234 C138.656317,234 140,235.342852 140,237.000536 C140,238.657148 138.656317,240 137,240 C135.343683,240 134,238.657148 134,237.000536 C134,235.342852 135.343683,234 137,234" id="Fill-133" fill="#A4AEAE"></path>
                <path d="M76.9994646,246 C78.657148,246 80,247.342852 80,248.999464 C80,250.657148 78.657148,252 76.9994646,252 C75.342852,252 74,250.657148 74,248.999464 C74,247.342852 75.342852,246 76.9994646,246" id="Fill-134" fill="#A4AEAE"></path>
                <path d="M92.9994646,248 C94.657148,248 96,249.342852 96,251.000536 C96,252.657148 94.657148,254 92.9994646,254 C91.342852,254 90,252.657148 90,251.000536 C90,249.342852 91.342852,248 92.9994646,248" id="Fill-135" fill="#A4AEAE"></path>
                <path d="M108.000535,253 C109.657148,253 111,254.342852 111,255.999464 C111,257.656078 109.657148,259 108.000535,259 C106.342852,259 105,257.656078 105,255.999464 C105,254.342852 106.342852,253 108.000535,253" id="Fill-136" fill="#A4AEAE"></path>
                <path d="M121.000535,248 C122.657148,248 124,249.342852 124,251.000536 C124,252.657148 122.657148,254 121.000535,254 C119.342852,254 118,252.657148 118,251.000536 C118,249.342852 119.342852,248 121.000535,248" id="Fill-137" fill="#A4AEAE"></path>
                <path d="M137,246 C138.656317,246 140,247.342852 140,248.999464 C140,250.657148 138.656317,252 137,252 C135.343683,252 134,250.657148 134,248.999464 C134,247.342852 135.343683,246 137,246" id="Fill-138" fill="#A4AEAE"></path>
                <path d="M149.861719,103.000408 C154.279945,103.002756 156.601923,102.90061 156.964313,104.748622 C157.665909,108.330758 147.933854,115.207381 135.611384,117.076526 C123.288914,118.945671 114.452462,112.895605 113.949753,109.186667 C113.200571,103.643807 143.940247,102.995711 149.861719,103.000408 Z M87.1731811,105.919186 C92.3625528,106.714042 95.1079292,107.007563 95.2397073,109.257112 C95.4947223,113.616494 82.9672642,120 68.1946983,120 C53.4196919,120 44,111.265974 44,106.791532 C44,100.10746 80.2182272,104.853116 87.1731811,105.919186 L87.1731811,105.919186 Z" id="Fill-139" fill="#383838"></path>
                <path d="M72.0020176,207.827518 C71.9082864,207.423282 75.0744524,171.570532 82.7494528,169.509178 C100.051984,164.862971 117.84143,164.797691 135.111094,169.509178 C141.825654,171.33954 145.061205,208.593308 144.999124,208.893347 C142.021637,223.276376 76.4852892,227.094024 72.0020176,207.827518 Z M91.4506271,204.883623 C98.8712143,205.806337 98.7847869,204.337528 101.154847,196.390894 C102.299097,192.551904 104.6229,192.77662 108.969835,192.52052 C113.31677,192.77662 116.401378,192.638527 117.546846,196.477516 C119.915688,204.425405 120.082457,205.457338 127.503044,204.53588 C135.545666,203.536587 136.05084,202.537295 135.355769,194.328285 L134.487842,184.065452 C134.17013,180.320617 132.821375,177.281312 128.904142,176.643573 C109.408059,173.471196 107.100081,173.471196 87.6052144,176.643573 C83.6879819,177.281312 82.3404442,182.832657 82.0215147,186.577492 L81.1596749,194.263004 C80.4013043,203.148671 81.6538938,203.665893 91.4506271,204.883623 L91.4506271,204.883623 Z" id="Fill-140" fill="#875E32"></path>
                <path d="M201.47257,125.377214 C205.686553,142.302481 201.202253,167.474523 199.70008,194.343998 C206.288904,206.381788 202.85995,222.444848 200.61348,234.21404 C205.501405,246.233434 206.694996,256.996923 193.12977,265.760039 C182.283761,253.633944 168.079155,243.906823 151.735464,237.644473 C151.431821,211.902124 171.817924,193.66944 174.924719,172.276148 C177.285981,156.019306 179.157217,139.431318 179.764505,123.368258 C180.923536,92.7347509 172.003073,66.830507 161.826067,60.612311 C153.370944,55.4464253 149.481588,53.9440011 134.656117,48.9657649 C124.055738,45.4065529 117.097851,42.6175632 115.115526,30.9084672 C114.295934,26.0639162 113.294897,21.47815 111.518704,19.9094966 C109.287046,21.1040771 110.360908,25.6113493 110.694175,30.6864765 C111.933437,49.5139964 86.8161683,76.9402879 73.1682425,87.4474448 C56.0728483,100.60868 47.478247,117.356109 48.676776,139.182345 C51.4009302,188.767245 58.3723949,193.719726 63.7910793,238.449036 C47.759673,244.948094 33.8858657,254.812581 23.3546093,267 C15.2784241,249.784061 13.2689439,219.897473 20.8551021,203.980362 C11.5384209,193.518585 15.1722722,178.778885 19.4109425,144.020764 C11.9667315,85.1232867 6.06172321,28.285051 71.1649339,4.57005342 C86.6754553,-1.08028758 102.787093,-2.23316808 110.311535,5.37706978 C145.291056,-12.9046716 181.151886,25.8272077 188.651641,39.6433769 C202.388438,64.956463 201.551566,104.795844 201.47257,125.377214" id="Fill-141" fill="#986B3A"></path>
                <path d="M130.073982,39.3257052 C154.183878,48.731913 177.336349,57.9282282 193,78 C184.505199,51.2342861 185.339366,33.8245065 160.273292,18.1215185 C98.0258123,-20.8695005 112.644887,32.5249314 130.073982,39.3257052" id="Fill-142" fill="#B37F48"></path>
                <path d="M78.380502,66.4476566 C68.9992383,75.7189991 54.6929337,81.4703243 45.2343519,92.7704632 C34.4294531,105.675966 28.7165041,124.027186 22.4856464,132 C19.4935583,102.665295 15.8743345,73.5871059 23.7718271,50.9500077 C28.7557768,36.6662001 40.4148565,21.3526523 49.9605747,15.1693027 C76.9961398,-2.3460968 96.9184389,-0.40198687 100.817481,9.46584383 C109.173973,30.62154 91.7724893,53.2107719 78.380502,66.4476566" id="Fill-143" fill="#B37F48"></path>
                <path d="M98.4631264,344.905651 L89.7546238,342.27162 C89.1214901,342.080074 87.0861397,340.945896 88.4754088,339.630623 L105.553189,323.471204 C109.218632,320.002501 109.187558,323.649978 108.865165,324.448664 L101.073347,343.727359 C100.686216,344.686246 99.5390653,345.230698 98.4631264,344.905651" id="Fill-144" fill="#E6E6E6"></path>
                <path d="M43.8022785,236.657171 C41.9290692,228.944316 37.4210158,221.817804 35.9146989,212.962396 C34.1952696,202.84767 35.5526501,191.127093 34.6662962,185 C27.7159267,200.390555 20.568186,215.467223 19.2289684,230.158436 C18.3837841,239.429429 19.9675965,251.109829 22.5140473,257.161589 C23.7733477,260.154825 25.0641306,262.761352 26.3561245,265 C32.1283215,258.918107 38.7299619,253.506678 46,248.911358 C45.5156536,244.486794 44.672891,240.240516 43.8022785,236.657171" id="Fill-145" fill="#B37F48"></path>
                <path d="M30.394334,251.577419 C48.518635,256.750726 61.0813757,282.34261 68.0165077,299 C68.5583532,291.247941 68.7528305,282.878535 68.5192131,274.190734 C68.1204735,259.415764 66.7334472,231.490605 66.3041296,217 C48.0477309,223.573271 35.1412912,236.496206 29.9124219,241.244175 C24.3300688,246.312971 22.2788841,249.262374 30.394334,251.577419 Z M167.905648,255.740856 C151.211183,262.791718 146.942469,280.974243 140.007337,297.632848 C137.607561,276.544668 144.535354,240.287777 145.756035,217.365789 C158.690607,224.301204 173.954013,238.464907 176.489556,242.974688 C180.583363,250.255232 175.901231,252.363686 167.905648,255.740856 L167.905648,255.740856 Z" id="Fill-146" fill="#555555"></path>
                <path d="M35.5720742,247.451358 C30.1105114,244.290291 25.6816521,246.625581 32.3759227,240.524939 C36.0492092,237.177289 43.0977362,232.101044 46.9579553,229.964375 C51.067853,227.688071 52.0103583,229.799461 52.0182015,232.584954 C52.0417316,240.282983 51.097919,238.901071 54.8914699,247.622292 C56.5555601,251.446629 59.3621603,255.565886 60.7465055,259.762185 C61.8837864,263.209747 62.5753056,266.500819 62.8694298,268.930002 C63.3400289,272.836195 62.6210581,274.86934 59.3530098,270.679061 C51.4613261,260.562684 47.9187616,254.593252 35.5720742,247.451358" id="Fill-147" fill="#666666"></path>
                <path d="M157.008967,247.788294 C162.882827,240.746685 164.09743,237.6328 157.803131,231.288589 C153.805267,227.258195 146.615997,220.294211 146.614767,221.057971 C146.603703,225.303722 144.382258,241.762108 143.841342,246.776626 C142.868922,255.775214 142.004685,265.423623 141.112173,273.604612 C140.669605,277.667561 141.583016,280.300653 143.036114,275.142146 C146.95284,261.240476 148.134251,258.430842 157.008967,247.788294" id="Fill-148" fill="#494949"></path>
            </g>
        </g>
    </g>
</svg>